<?xml version="1.0" encoding="UTF-8" standalone="no"?>
<!-- Created with Inkscape (http://www.inkscape.org/) -->

<svg
   xmlns:dc="http://purl.org/dc/elements/1.1/"
   xmlns:cc="http://creativecommons.org/ns#"
   xmlns:rdf="http://www.w3.org/1999/02/22-rdf-syntax-ns#"
   xmlns:svg="http://www.w3.org/2000/svg"
   xmlns="http://www.w3.org/2000/svg"
   xmlns:sodipodi="http://sodipodi.sourceforge.net/DTD/sodipodi-0.dtd"
   xmlns:inkscape="http://www.inkscape.org/namespaces/inkscape"
   width="33.593758mm"
   height="12.284225mm"
   viewBox="0 0 33.593758 12.284225"
   version="1.1"
   id="svg4918"
   inkscape:version="0.92.1 r"
   sodipodi:docname="ionpak_logo.svg">
  <defs
     id="defs4912" />
  <sodipodi:namedview
     id="base"
     pagecolor="#ffffff"
     bordercolor="#666666"
     borderopacity="1.0"
     inkscape:pageopacity="0.0"
     inkscape:pageshadow="2"
     inkscape:zoom="0.35"
     inkscape:cx="-306.51573"
     inkscape:cy="-268.21429"
     inkscape:document-units="mm"
     inkscape:current-layer="layer1"
     showgrid="false"
     fit-margin-top="0"
     fit-margin-left="0"
     fit-margin-right="0"
     fit-margin-bottom="0"
     inkscape:window-width="1920"
     inkscape:window-height="1162"
     inkscape:window-x="0"
     inkscape:window-y="38"
     inkscape:window-maximized="1" />
  <metadata
     id="metadata4915">
    <rdf:RDF>
      <cc:Work
         rdf:about="">
        <dc:format>image/svg+xml</dc:format>
        <dc:type
           rdf:resource="http://purl.org/dc/dcmitype/StillImage" />
        <dc:title></dc:title>
      </cc:Work>
    </rdf:RDF>
  </metadata>
  <g
     inkscape:label="Layer 1"
     inkscape:groupmode="layer"
     id="layer1"
     transform="translate(-26.292406,-65.584076)">
    <rect
       style="fill:#000000;stroke-width:0.17481996;stroke-miterlimit:4;stroke-dasharray:none"
       id="rect14"
       width="18.885378"
       height="12.284225"
       x="41.000786"
       y="65.584076"
       ry="2.7844245" />
    <g
       aria-label="ionpak"
       style="font-style:normal;font-variant:normal;font-weight:normal;font-stretch:condensed;font-size:10.58333302px;line-height:6.61458349px;font-family:'Futura XBlkCn BT';-inkscape-font-specification:'Futura XBlkCn BT, Condensed';font-variant-ligatures:normal;font-variant-caps:normal;font-variant-numeric:normal;text-align:start;letter-spacing:0px;word-spacing:0px;writing-mode:lr-tb;text-anchor:start;fill:#000000;fill-opacity:1;stroke:none;stroke-width:0.26458332"
       id="text12">
      <path
         d="m 26.292406,67.421524 q 0,-0.485758 0.330729,-0.81132 0.33073,-0.330729 0.81132,-0.330729 0.480591,0 0.806153,0.330729 0.325561,0.325562 0.325561,0.81132 0,0.475423 -0.330729,0.81132 -0.325561,0.330729 -0.800985,0.330729 -0.48059,0 -0.81132,-0.330729 -0.330729,-0.330729 -0.330729,-0.81132 z m 0.180868,7.100342 v -5.291667 h 1.917195 v 5.291667 z"
         style="letter-spacing:0.71966666px;stroke-width:0.26458332"
         id="path4956"
         inkscape:connector-curvature="0" />
      <path
         d="m 31.699125,71.845027 q 0,0.589111 0.118856,0.888834 0.118856,0.294556 0.356568,0.294556 0.237711,0 0.356567,-0.294556 0.118856,-0.299723 0.118856,-0.888834 0,-0.583944 -0.118856,-0.873332 -0.118856,-0.289388 -0.356567,-0.289388 -0.237712,0 -0.356568,0.289388 -0.118856,0.289388 -0.118856,0.873332 z m -1.979207,0.03101 q 0,-1.333252 0.640788,-2.06189 0.645955,-0.733805 1.813843,-0.733805 1.167887,0 1.803507,0.733805 0.640788,0.728638 0.640788,2.06189 0,1.333252 -0.640788,2.067057 -0.63562,0.728637 -1.803507,0.728637 -1.173055,0 -1.813843,-0.728637 -0.640788,-0.733805 -0.640788,-2.067057 z"
         style="letter-spacing:0.71966666px;stroke-width:0.26458332"
         id="path4958"
         inkscape:connector-curvature="0" />
      <path
         d="m 35.881112,74.521866 v -5.291667 h 1.839681 v 0.785482 q 0.268718,-0.449585 0.630453,-0.661458 0.361735,-0.217041 0.852661,-0.217041 0.599446,0 0.909505,0.356567 0.315226,0.356568 0.315226,1.049032 v 3.979085 h -1.901692 v -3.079915 q 0,-0.24288 -0.09302,-0.361735 -0.09302,-0.124024 -0.279053,-0.124024 -0.170532,0 -0.273885,0.139526 -0.09818,0.139527 -0.09818,0.377238 v 3.04891 z"
         style="letter-spacing:0.71966666px;stroke-width:0.26458332"
         id="path4960"
         inkscape:connector-curvature="0" />
      <path
         d="m 43.804473,71.876033 q 0,0.56844 0.118856,0.857828 0.118856,0.284221 0.3514,0.284221 0.232544,0 0.351399,-0.289388 0.124024,-0.294556 0.124024,-0.852661 0,-0.558106 -0.124024,-0.847494 -0.118855,-0.294556 -0.351399,-0.294556 -0.232544,0 -0.3514,0.289388 -0.118856,0.284221 -0.118856,0.852662 z m -1.953369,4.454508 v -7.100342 h 1.912028 v 0.583944 q 0.279053,-0.377238 0.583944,-0.552938 0.304891,-0.180867 0.666626,-0.180867 0.795817,0 1.240234,0.733805 0.444417,0.728638 0.444417,2.06189 0,1.333252 -0.444417,2.067057 -0.444417,0.728637 -1.240234,0.728637 -0.366903,0 -0.671794,-0.175699 -0.304891,-0.1757 -0.578776,-0.547771 v 2.382284 z"
         style="fill:#ffffff;stroke-width:0.26458332"
         id="path4962"
         inkscape:connector-curvature="0" />
      <path
         d="m 49.888154,71.876033 q 0,0.563273 0.113688,0.847493 0.118856,0.28422 0.3514,0.28422 0.232544,0 0.3514,-0.289388 0.124023,-0.294555 0.124023,-0.842325 0,-0.558106 -0.124023,-0.847494 -0.118856,-0.294556 -0.3514,-0.294556 -0.227376,0 -0.346232,0.289388 -0.118856,0.289388 -0.118856,0.852662 z m 0.981852,2.645833 v -0.583944 q -0.28422,0.382406 -0.589111,0.558106 -0.299723,0.175699 -0.656291,0.175699 -0.790649,0 -1.240234,-0.733805 -0.444417,-0.738973 -0.444417,-2.061889 0,-1.333252 0.43925,-2.06189 0.444417,-0.733805 1.245401,-0.733805 0.361735,0 0.661459,0.1757 0.299723,0.170532 0.583943,0.54777 v -0.573609 h 1.917196 v 5.291667 z"
         style="fill:#ffffff;stroke-width:0.26458332"
         id="path4964"
         inkscape:connector-curvature="0" />
      <path
         d="M 54.275171,74.521866 V 66.28981 h 1.912028 v 5.183146 l 0.888835,-2.242757 h 1.948201 l -1.142049,2.330607 1.343587,2.96106 h -2.061889 l -0.976685,-2.635498 v 2.635498 z"
         style="fill:#ffffff;stroke-width:0.26458332"
         id="path4966"
         inkscape:connector-curvature="0" />
    </g>
  </g>
</svg>
