G04 #@! TF.FileFunction,Soldermask,Bot*
%FSLAX46Y46*%
G04 Gerber Fmt 4.6, Leading zero omitted, Abs format (unit mm)*
G04 Created by KiCad (PCBNEW 4.0.2-stable) date 4/26/2017 12:46:49 AM*
%MOMM*%
G01*
G04 APERTURE LIST*
%ADD10C,0.100000*%
%ADD11C,1.998980*%
%ADD12R,1.998980X1.998980*%
%ADD13R,1.300000X1.300000*%
%ADD14C,1.300000*%
%ADD15C,1.700000*%
%ADD16R,1.700000X1.700000*%
%ADD17R,1.727200X1.727200*%
%ADD18O,1.727200X1.727200*%
%ADD19O,3.600000X2.500000*%
%ADD20R,3.600000X2.500000*%
%ADD21O,2.500000X3.600000*%
%ADD22R,2.500000X3.600000*%
%ADD23C,1.600000*%
%ADD24O,1.600000X1.600000*%
%ADD25C,2.400000*%
%ADD26O,2.400000X2.400000*%
%ADD27C,2.400000*%
%ADD28C,3.750000*%
%ADD29C,1.250000*%
%ADD30R,2.100000X3.600000*%
%ADD31O,2.100000X3.600000*%
%ADD32C,5.500000*%
%ADD33C,1.500000*%
%ADD34C,2.100000*%
%ADD35O,1.700000X1.700000*%
%ADD36R,1.050000X1.050000*%
%ADD37C,1.050000*%
%ADD38C,3.000000*%
%ADD39C,8.000000*%
%ADD40R,1.800000X1.800000*%
%ADD41C,1.800000*%
%ADD42R,1.800000X3.600000*%
%ADD43O,1.800000X3.600000*%
%ADD44C,2.200000*%
%ADD45C,2.800000*%
%ADD46R,5.800000X5.800000*%
G04 APERTURE END LIST*
D10*
X248893000Y-224500000D02*
G75*
G03X248893000Y-224500000I-1143000J0D01*
G01*
X254389000Y-227000000D02*
G75*
G03X254389000Y-227000000I-889000J0D01*
G01*
X249889000Y-227000000D02*
G75*
G03X249889000Y-227000000I-889000J0D01*
G01*
X255893000Y-224500000D02*
G75*
G03X255893000Y-224500000I-1143000J0D01*
G01*
D11*
X156464000Y-226824540D03*
D12*
X166624000Y-226824540D03*
D13*
X131826000Y-192024000D03*
D14*
X136826000Y-192024000D03*
D13*
X234696000Y-202438000D03*
D14*
X239696000Y-202438000D03*
D13*
X210566000Y-184912000D03*
D14*
X210566000Y-179912000D03*
D15*
X180340000Y-217250000D03*
D16*
X180340000Y-222250000D03*
D15*
X195580000Y-217250000D03*
D16*
X195580000Y-222250000D03*
D13*
X178054000Y-201422000D03*
D14*
X183054000Y-201422000D03*
D17*
X134620000Y-179832000D03*
D18*
X134620000Y-177292000D03*
X134620000Y-174752000D03*
X134620000Y-169672000D03*
X134620000Y-167132000D03*
X134620000Y-164592000D03*
X134620000Y-162052000D03*
D19*
X208026000Y-209804000D03*
X208026000Y-205994000D03*
X218186000Y-209804000D03*
X218186000Y-205994000D03*
X208026000Y-202184000D03*
X208026000Y-198374000D03*
D20*
X208026000Y-194564000D03*
D19*
X218186000Y-194564000D03*
X218186000Y-198374000D03*
X218186000Y-202184000D03*
D21*
X146558000Y-203962000D03*
X151638000Y-203962000D03*
X146558000Y-216662000D03*
X151638000Y-216662000D03*
X156718000Y-203962000D03*
X161798000Y-203962000D03*
D22*
X166878000Y-203962000D03*
D21*
X166878000Y-216662000D03*
X161798000Y-216662000D03*
X156718000Y-216662000D03*
D23*
X217932000Y-219202000D03*
D24*
X207772000Y-219202000D03*
D25*
X207010000Y-225552000D03*
D26*
X222250000Y-225552000D03*
D23*
X157480000Y-223266000D03*
D24*
X167640000Y-223266000D03*
D25*
X246761000Y-191770000D03*
D27*
X257537307Y-180993693D02*
X257537307Y-180993693D01*
D23*
X232791000Y-194310000D03*
D24*
X232791000Y-184150000D03*
D23*
X241554000Y-194183000D03*
D24*
X241554000Y-184023000D03*
D28*
X308356000Y-231902000D03*
D29*
X299466000Y-223012000D03*
D28*
X296924000Y-231902000D03*
D29*
X302006000Y-223012000D03*
X304546000Y-223012000D03*
X307086000Y-223012000D03*
X298196000Y-225552000D03*
X300736000Y-225552000D03*
X303276000Y-225552000D03*
X305816000Y-225552000D03*
D30*
X131000000Y-226000000D03*
D31*
X136080000Y-226000000D03*
D21*
X238160000Y-226080000D03*
X233080000Y-226080000D03*
D22*
X228000000Y-226080000D03*
X228000000Y-221000000D03*
D21*
X233080000Y-221000000D03*
X238160000Y-221000000D03*
D32*
X268000000Y-220620000D03*
D33*
X270540000Y-220620000D03*
D34*
X273080000Y-225700000D03*
X262920000Y-225700000D03*
D16*
X280924000Y-223266000D03*
D35*
X283464000Y-223266000D03*
X286004000Y-223266000D03*
X288544000Y-223266000D03*
X291084000Y-223266000D03*
D16*
X290322000Y-197866000D03*
D35*
X290322000Y-200406000D03*
X290322000Y-202946000D03*
X290322000Y-205486000D03*
X290322000Y-208026000D03*
X290322000Y-210566000D03*
D36*
X314198000Y-181864000D03*
D37*
X314198000Y-183134000D03*
X314198000Y-184404000D03*
X314198000Y-185674000D03*
X314198000Y-186944000D03*
X315468000Y-183134000D03*
X315468000Y-184404000D03*
X315468000Y-185674000D03*
X315468000Y-186944000D03*
X315468000Y-181864000D03*
D38*
X121000000Y-229000000D03*
X121000000Y-158000000D03*
X315000000Y-158000000D03*
D39*
X315000000Y-229000000D03*
D40*
X289000000Y-227000000D03*
D41*
X291540000Y-227000000D03*
D40*
X283000000Y-227000000D03*
D41*
X285540000Y-227000000D03*
D40*
X145000000Y-227000000D03*
D41*
X147540000Y-227000000D03*
D13*
X178054000Y-186944000D03*
D14*
X183054000Y-186944000D03*
D42*
X130810000Y-219456000D03*
D43*
X135890000Y-219456000D03*
D44*
X247750000Y-224500000D03*
X254750000Y-224500000D03*
D15*
X249000000Y-227000000D03*
X253500000Y-227000000D03*
D38*
X218000000Y-161000000D03*
D41*
X260286500Y-212153500D03*
X255206500Y-212153500D03*
D45*
X250126500Y-212153500D03*
D46*
X265366500Y-212153500D03*
D41*
X260286500Y-205359000D03*
X255206500Y-205359000D03*
D45*
X250126500Y-205359000D03*
D46*
X265366500Y-205359000D03*
M02*
