%FSLAX45Y45*%
G04 Gerber Fmt 4.5, Leading zero omitted, Abs format (unit mm)*
G04 Created by KiCad (PCBNEW 4.0.2-stable) date 4/26/2017 8:44:02 AM*
%MOMM*%
G01*
G04 APERTURE LIST*
%ADD10C,0.127000*%
%ADD11C,0.200000*%
%ADD12C,0.300000*%
G04 APERTURE END LIST*
D10*
D11*
X26187000Y-22465000D02*
X26397000Y-22675000D01*
X26397000Y-22465000D02*
X26187000Y-22675000D01*
X27203000Y-22465000D02*
X27413000Y-22675000D01*
X27413000Y-22465000D02*
X27203000Y-22675000D01*
X12250000Y-15800000D02*
G75*
G03X12250000Y-15800000I-150000J0D01*
G01*
X12250000Y-22900000D02*
G75*
G03X12250000Y-22900000I-150000J0D01*
G01*
X21950000Y-16100000D02*
G75*
G03X21950000Y-16100000I-150000J0D01*
G01*
X31650000Y-15800000D02*
G75*
G03X31650000Y-15800000I-150000J0D01*
G01*
X29692400Y-23027700D02*
X29692400Y-23352700D01*
X29529900Y-23190200D02*
X29854900Y-23190200D01*
X30835600Y-23027700D02*
X30835600Y-23352700D01*
X30673100Y-23190200D02*
X30998100Y-23190200D01*
D12*
X271429Y-465714D02*
X271429Y-165714D01*
X342857Y-165714D01*
X385714Y-180000D01*
X414286Y-208571D01*
X428571Y-237143D01*
X442857Y-294286D01*
X442857Y-337143D01*
X428571Y-394286D01*
X414286Y-422857D01*
X385714Y-451429D01*
X342857Y-465714D01*
X271429Y-465714D01*
X571429Y-465714D02*
X571429Y-265714D01*
X571429Y-322857D02*
X585714Y-294286D01*
X600000Y-280000D01*
X628571Y-265714D01*
X657143Y-265714D01*
X757143Y-465714D02*
X757143Y-265714D01*
X757143Y-165714D02*
X742857Y-180000D01*
X757143Y-194286D01*
X771429Y-180000D01*
X757143Y-165714D01*
X757143Y-194286D01*
X942857Y-465714D02*
X914286Y-451429D01*
X900000Y-422857D01*
X900000Y-165714D01*
X1100000Y-465714D02*
X1071429Y-451429D01*
X1057143Y-422857D01*
X1057143Y-165714D01*
X1442857Y-465714D02*
X1442857Y-165714D01*
X1542857Y-380000D01*
X1642857Y-165714D01*
X1642857Y-465714D01*
X1914286Y-465714D02*
X1914286Y-308571D01*
X1900000Y-280000D01*
X1871429Y-265714D01*
X1814286Y-265714D01*
X1785714Y-280000D01*
X1914286Y-451429D02*
X1885714Y-465714D01*
X1814286Y-465714D01*
X1785714Y-451429D01*
X1771429Y-422857D01*
X1771429Y-394286D01*
X1785714Y-365714D01*
X1814286Y-351429D01*
X1885714Y-351429D01*
X1914286Y-337143D01*
X2057143Y-265714D02*
X2057143Y-565714D01*
X2057143Y-280000D02*
X2085714Y-265714D01*
X2142857Y-265714D01*
X2171429Y-280000D01*
X2185714Y-294286D01*
X2200000Y-322857D01*
X2200000Y-408571D01*
X2185714Y-437143D01*
X2171429Y-451429D01*
X2142857Y-465714D01*
X2085714Y-465714D01*
X2057143Y-451429D01*
X2328572Y-437143D02*
X2342857Y-451429D01*
X2328572Y-465714D01*
X2314286Y-451429D01*
X2328572Y-437143D01*
X2328572Y-465714D01*
X2328572Y-280000D02*
X2342857Y-294286D01*
X2328572Y-308571D01*
X2314286Y-294286D01*
X2328572Y-280000D01*
X2328572Y-308571D01*
X-210000Y-855000D02*
X0Y-1065000D01*
X0Y-855000D02*
X-210000Y-1065000D01*
X257143Y-824286D02*
X271429Y-810000D01*
X300000Y-795714D01*
X371429Y-795714D01*
X400000Y-810000D01*
X414286Y-824286D01*
X428571Y-852857D01*
X428571Y-881429D01*
X414286Y-924286D01*
X242857Y-1095714D01*
X428571Y-1095714D01*
X557143Y-1067143D02*
X571429Y-1081429D01*
X557143Y-1095714D01*
X542857Y-1081429D01*
X557143Y-1067143D01*
X557143Y-1095714D01*
X857143Y-1095714D02*
X685714Y-1095714D01*
X771428Y-1095714D02*
X771428Y-795714D01*
X742857Y-838571D01*
X714286Y-867143D01*
X685714Y-881429D01*
X1042857Y-795714D02*
X1071429Y-795714D01*
X1100000Y-810000D01*
X1114286Y-824286D01*
X1128571Y-852857D01*
X1142857Y-910000D01*
X1142857Y-981429D01*
X1128571Y-1038571D01*
X1114286Y-1067143D01*
X1100000Y-1081429D01*
X1071429Y-1095714D01*
X1042857Y-1095714D01*
X1014286Y-1081429D01*
X1000000Y-1067143D01*
X985714Y-1038571D01*
X971429Y-981429D01*
X971429Y-910000D01*
X985714Y-852857D01*
X1000000Y-824286D01*
X1014286Y-810000D01*
X1042857Y-795714D01*
X1271429Y-1095714D02*
X1271429Y-895714D01*
X1271429Y-924286D02*
X1285714Y-910000D01*
X1314286Y-895714D01*
X1357143Y-895714D01*
X1385714Y-910000D01*
X1400000Y-938571D01*
X1400000Y-1095714D01*
X1400000Y-938571D02*
X1414286Y-910000D01*
X1442857Y-895714D01*
X1485714Y-895714D01*
X1514286Y-910000D01*
X1528571Y-938571D01*
X1528571Y-1095714D01*
X1671429Y-1095714D02*
X1671429Y-895714D01*
X1671429Y-924286D02*
X1685714Y-910000D01*
X1714286Y-895714D01*
X1757143Y-895714D01*
X1785714Y-910000D01*
X1800000Y-938571D01*
X1800000Y-1095714D01*
X1800000Y-938571D02*
X1814286Y-910000D01*
X1842857Y-895714D01*
X1885714Y-895714D01*
X1914286Y-910000D01*
X1928571Y-938571D01*
X1928571Y-1095714D01*
X2514286Y-781429D02*
X2257143Y-1167143D01*
X2900000Y-795714D02*
X2928571Y-795714D01*
X2957143Y-810000D01*
X2971428Y-824286D01*
X2985714Y-852857D01*
X3000000Y-910000D01*
X3000000Y-981429D01*
X2985714Y-1038571D01*
X2971428Y-1067143D01*
X2957143Y-1081429D01*
X2928571Y-1095714D01*
X2900000Y-1095714D01*
X2871428Y-1081429D01*
X2857143Y-1067143D01*
X2842857Y-1038571D01*
X2828571Y-981429D01*
X2828571Y-910000D01*
X2842857Y-852857D01*
X2857143Y-824286D01*
X2871428Y-810000D01*
X2900000Y-795714D01*
X3128571Y-1067143D02*
X3142857Y-1081429D01*
X3128571Y-1095714D01*
X3114286Y-1081429D01*
X3128571Y-1067143D01*
X3128571Y-1095714D01*
X3328571Y-795714D02*
X3357143Y-795714D01*
X3385714Y-810000D01*
X3400000Y-824286D01*
X3414286Y-852857D01*
X3428571Y-910000D01*
X3428571Y-981429D01*
X3414286Y-1038571D01*
X3400000Y-1067143D01*
X3385714Y-1081429D01*
X3357143Y-1095714D01*
X3328571Y-1095714D01*
X3300000Y-1081429D01*
X3285714Y-1067143D01*
X3271428Y-1038571D01*
X3257143Y-981429D01*
X3257143Y-910000D01*
X3271428Y-852857D01*
X3285714Y-824286D01*
X3300000Y-810000D01*
X3328571Y-795714D01*
X3600000Y-924286D02*
X3571428Y-910000D01*
X3557143Y-895714D01*
X3542857Y-867143D01*
X3542857Y-852857D01*
X3557143Y-824286D01*
X3571428Y-810000D01*
X3600000Y-795714D01*
X3657143Y-795714D01*
X3685714Y-810000D01*
X3700000Y-824286D01*
X3714286Y-852857D01*
X3714286Y-867143D01*
X3700000Y-895714D01*
X3685714Y-910000D01*
X3657143Y-924286D01*
X3600000Y-924286D01*
X3571428Y-938571D01*
X3557143Y-952857D01*
X3542857Y-981429D01*
X3542857Y-1038571D01*
X3557143Y-1067143D01*
X3571428Y-1081429D01*
X3600000Y-1095714D01*
X3657143Y-1095714D01*
X3685714Y-1081429D01*
X3700000Y-1067143D01*
X3714286Y-1038571D01*
X3714286Y-981429D01*
X3700000Y-952857D01*
X3685714Y-938571D01*
X3657143Y-924286D01*
X3814286Y-795714D02*
X4000000Y-795714D01*
X3900000Y-910000D01*
X3942857Y-910000D01*
X3971428Y-924286D01*
X3985714Y-938571D01*
X4000000Y-967143D01*
X4000000Y-1038571D01*
X3985714Y-1067143D01*
X3971428Y-1081429D01*
X3942857Y-1095714D01*
X3857143Y-1095714D01*
X3828571Y-1081429D01*
X3814286Y-1067143D01*
X4114286Y-795714D02*
X4114286Y-852857D01*
X4228571Y-795714D02*
X4228571Y-852857D01*
X4671429Y-1210000D02*
X4657143Y-1195714D01*
X4628571Y-1152857D01*
X4614286Y-1124286D01*
X4600000Y-1081429D01*
X4585714Y-1010000D01*
X4585714Y-952857D01*
X4600000Y-881429D01*
X4614286Y-838571D01*
X4628571Y-810000D01*
X4657143Y-767143D01*
X4671429Y-752857D01*
X4771429Y-824286D02*
X4785714Y-810000D01*
X4814286Y-795714D01*
X4885714Y-795714D01*
X4914286Y-810000D01*
X4928571Y-824286D01*
X4942857Y-852857D01*
X4942857Y-881429D01*
X4928571Y-924286D01*
X4757143Y-1095714D01*
X4942857Y-1095714D01*
X5300000Y-1095714D02*
X5300000Y-795714D01*
X5428571Y-1095714D02*
X5428571Y-938571D01*
X5414286Y-910000D01*
X5385714Y-895714D01*
X5342857Y-895714D01*
X5314286Y-910000D01*
X5300000Y-924286D01*
X5614286Y-1095714D02*
X5585714Y-1081429D01*
X5571429Y-1067143D01*
X5557143Y-1038571D01*
X5557143Y-952857D01*
X5571429Y-924286D01*
X5585714Y-910000D01*
X5614286Y-895714D01*
X5657143Y-895714D01*
X5685714Y-910000D01*
X5700000Y-924286D01*
X5714286Y-952857D01*
X5714286Y-1038571D01*
X5700000Y-1067143D01*
X5685714Y-1081429D01*
X5657143Y-1095714D01*
X5614286Y-1095714D01*
X5885714Y-1095714D02*
X5857143Y-1081429D01*
X5842857Y-1052857D01*
X5842857Y-795714D01*
X6114286Y-1081429D02*
X6085714Y-1095714D01*
X6028571Y-1095714D01*
X6000000Y-1081429D01*
X5985714Y-1052857D01*
X5985714Y-938571D01*
X6000000Y-910000D01*
X6028571Y-895714D01*
X6085714Y-895714D01*
X6114286Y-910000D01*
X6128571Y-938571D01*
X6128571Y-967143D01*
X5985714Y-995714D01*
X6242857Y-1081429D02*
X6271429Y-1095714D01*
X6328571Y-1095714D01*
X6357143Y-1081429D01*
X6371429Y-1052857D01*
X6371429Y-1038571D01*
X6357143Y-1010000D01*
X6328571Y-995714D01*
X6285714Y-995714D01*
X6257143Y-981429D01*
X6242857Y-952857D01*
X6242857Y-938571D01*
X6257143Y-910000D01*
X6285714Y-895714D01*
X6328571Y-895714D01*
X6357143Y-910000D01*
X6471428Y-1210000D02*
X6485714Y-1195714D01*
X6514286Y-1152857D01*
X6528571Y-1124286D01*
X6542857Y-1081429D01*
X6557143Y-1010000D01*
X6557143Y-952857D01*
X6542857Y-881429D01*
X6528571Y-838571D01*
X6514286Y-810000D01*
X6485714Y-767143D01*
X6471428Y-752857D01*
X7014286Y-1210000D02*
X7000000Y-1195714D01*
X6971428Y-1152857D01*
X6957143Y-1124286D01*
X6942857Y-1081429D01*
X6928571Y-1010000D01*
X6928571Y-952857D01*
X6942857Y-881429D01*
X6957143Y-838571D01*
X6971428Y-810000D01*
X7000000Y-767143D01*
X7014286Y-752857D01*
X7128571Y-895714D02*
X7128571Y-1095714D01*
X7128571Y-924286D02*
X7142857Y-910000D01*
X7171428Y-895714D01*
X7214286Y-895714D01*
X7242857Y-910000D01*
X7257143Y-938571D01*
X7257143Y-1095714D01*
X7442857Y-1095714D02*
X7414286Y-1081429D01*
X7400000Y-1067143D01*
X7385714Y-1038571D01*
X7385714Y-952857D01*
X7400000Y-924286D01*
X7414286Y-910000D01*
X7442857Y-895714D01*
X7485714Y-895714D01*
X7514286Y-910000D01*
X7528571Y-924286D01*
X7542857Y-952857D01*
X7542857Y-1038571D01*
X7528571Y-1067143D01*
X7514286Y-1081429D01*
X7485714Y-1095714D01*
X7442857Y-1095714D01*
X7628571Y-895714D02*
X7742857Y-895714D01*
X7671429Y-795714D02*
X7671429Y-1052857D01*
X7685714Y-1081429D01*
X7714286Y-1095714D01*
X7742857Y-1095714D01*
X8071429Y-895714D02*
X8071429Y-1195714D01*
X8071429Y-910000D02*
X8100000Y-895714D01*
X8157143Y-895714D01*
X8185714Y-910000D01*
X8200000Y-924286D01*
X8214286Y-952857D01*
X8214286Y-1038571D01*
X8200000Y-1067143D01*
X8185714Y-1081429D01*
X8157143Y-1095714D01*
X8100000Y-1095714D01*
X8071429Y-1081429D01*
X8385714Y-1095714D02*
X8357143Y-1081429D01*
X8342857Y-1052857D01*
X8342857Y-795714D01*
X8628572Y-1095714D02*
X8628572Y-938571D01*
X8614286Y-910000D01*
X8585714Y-895714D01*
X8528572Y-895714D01*
X8500000Y-910000D01*
X8628572Y-1081429D02*
X8600000Y-1095714D01*
X8528572Y-1095714D01*
X8500000Y-1081429D01*
X8485714Y-1052857D01*
X8485714Y-1024286D01*
X8500000Y-995714D01*
X8528572Y-981429D01*
X8600000Y-981429D01*
X8628572Y-967143D01*
X8728572Y-895714D02*
X8842857Y-895714D01*
X8771429Y-795714D02*
X8771429Y-1052857D01*
X8785714Y-1081429D01*
X8814286Y-1095714D01*
X8842857Y-1095714D01*
X9057143Y-1081429D02*
X9028572Y-1095714D01*
X8971429Y-1095714D01*
X8942857Y-1081429D01*
X8928572Y-1052857D01*
X8928572Y-938571D01*
X8942857Y-910000D01*
X8971429Y-895714D01*
X9028572Y-895714D01*
X9057143Y-910000D01*
X9071429Y-938571D01*
X9071429Y-967143D01*
X8928572Y-995714D01*
X9328572Y-1095714D02*
X9328572Y-795714D01*
X9328572Y-1081429D02*
X9300000Y-1095714D01*
X9242857Y-1095714D01*
X9214286Y-1081429D01*
X9200000Y-1067143D01*
X9185715Y-1038571D01*
X9185715Y-952857D01*
X9200000Y-924286D01*
X9214286Y-910000D01*
X9242857Y-895714D01*
X9300000Y-895714D01*
X9328572Y-910000D01*
X9442857Y-1210000D02*
X9457143Y-1195714D01*
X9485715Y-1152857D01*
X9500000Y-1124286D01*
X9514286Y-1081429D01*
X9528572Y-1010000D01*
X9528572Y-952857D01*
X9514286Y-881429D01*
X9500000Y-838571D01*
X9485715Y-810000D01*
X9457143Y-767143D01*
X9442857Y-752857D01*
X0Y-1356000D02*
G75*
G03X0Y-1356000I-150000J0D01*
G01*
X242857Y-1191714D02*
X428571Y-1191714D01*
X328571Y-1306000D01*
X371429Y-1306000D01*
X400000Y-1320286D01*
X414286Y-1334571D01*
X428571Y-1363143D01*
X428571Y-1434571D01*
X414286Y-1463143D01*
X400000Y-1477429D01*
X371429Y-1491714D01*
X285714Y-1491714D01*
X257143Y-1477429D01*
X242857Y-1463143D01*
X557143Y-1463143D02*
X571429Y-1477429D01*
X557143Y-1491714D01*
X542857Y-1477429D01*
X557143Y-1463143D01*
X557143Y-1491714D01*
X757143Y-1191714D02*
X785714Y-1191714D01*
X814286Y-1206000D01*
X828571Y-1220286D01*
X842857Y-1248857D01*
X857143Y-1306000D01*
X857143Y-1377429D01*
X842857Y-1434571D01*
X828571Y-1463143D01*
X814286Y-1477429D01*
X785714Y-1491714D01*
X757143Y-1491714D01*
X728571Y-1477429D01*
X714286Y-1463143D01*
X700000Y-1434571D01*
X685714Y-1377429D01*
X685714Y-1306000D01*
X700000Y-1248857D01*
X714286Y-1220286D01*
X728571Y-1206000D01*
X757143Y-1191714D01*
X1042857Y-1191714D02*
X1071429Y-1191714D01*
X1100000Y-1206000D01*
X1114286Y-1220286D01*
X1128571Y-1248857D01*
X1142857Y-1306000D01*
X1142857Y-1377429D01*
X1128571Y-1434571D01*
X1114286Y-1463143D01*
X1100000Y-1477429D01*
X1071429Y-1491714D01*
X1042857Y-1491714D01*
X1014286Y-1477429D01*
X1000000Y-1463143D01*
X985714Y-1434571D01*
X971429Y-1377429D01*
X971429Y-1306000D01*
X985714Y-1248857D01*
X1000000Y-1220286D01*
X1014286Y-1206000D01*
X1042857Y-1191714D01*
X1271429Y-1491714D02*
X1271429Y-1291714D01*
X1271429Y-1320286D02*
X1285714Y-1306000D01*
X1314286Y-1291714D01*
X1357143Y-1291714D01*
X1385714Y-1306000D01*
X1400000Y-1334571D01*
X1400000Y-1491714D01*
X1400000Y-1334571D02*
X1414286Y-1306000D01*
X1442857Y-1291714D01*
X1485714Y-1291714D01*
X1514286Y-1306000D01*
X1528571Y-1334571D01*
X1528571Y-1491714D01*
X1671429Y-1491714D02*
X1671429Y-1291714D01*
X1671429Y-1320286D02*
X1685714Y-1306000D01*
X1714286Y-1291714D01*
X1757143Y-1291714D01*
X1785714Y-1306000D01*
X1800000Y-1334571D01*
X1800000Y-1491714D01*
X1800000Y-1334571D02*
X1814286Y-1306000D01*
X1842857Y-1291714D01*
X1885714Y-1291714D01*
X1914286Y-1306000D01*
X1928571Y-1334571D01*
X1928571Y-1491714D01*
X2514286Y-1177429D02*
X2257143Y-1563143D01*
X2900000Y-1191714D02*
X2928571Y-1191714D01*
X2957143Y-1206000D01*
X2971428Y-1220286D01*
X2985714Y-1248857D01*
X3000000Y-1306000D01*
X3000000Y-1377429D01*
X2985714Y-1434571D01*
X2971428Y-1463143D01*
X2957143Y-1477429D01*
X2928571Y-1491714D01*
X2900000Y-1491714D01*
X2871428Y-1477429D01*
X2857143Y-1463143D01*
X2842857Y-1434571D01*
X2828571Y-1377429D01*
X2828571Y-1306000D01*
X2842857Y-1248857D01*
X2857143Y-1220286D01*
X2871428Y-1206000D01*
X2900000Y-1191714D01*
X3128571Y-1463143D02*
X3142857Y-1477429D01*
X3128571Y-1491714D01*
X3114286Y-1477429D01*
X3128571Y-1463143D01*
X3128571Y-1491714D01*
X3428571Y-1491714D02*
X3257143Y-1491714D01*
X3342857Y-1491714D02*
X3342857Y-1191714D01*
X3314286Y-1234571D01*
X3285714Y-1263143D01*
X3257143Y-1277429D01*
X3714286Y-1491714D02*
X3542857Y-1491714D01*
X3628571Y-1491714D02*
X3628571Y-1191714D01*
X3600000Y-1234571D01*
X3571428Y-1263143D01*
X3542857Y-1277429D01*
X3885714Y-1320286D02*
X3857143Y-1306000D01*
X3842857Y-1291714D01*
X3828571Y-1263143D01*
X3828571Y-1248857D01*
X3842857Y-1220286D01*
X3857143Y-1206000D01*
X3885714Y-1191714D01*
X3942857Y-1191714D01*
X3971428Y-1206000D01*
X3985714Y-1220286D01*
X4000000Y-1248857D01*
X4000000Y-1263143D01*
X3985714Y-1291714D01*
X3971428Y-1306000D01*
X3942857Y-1320286D01*
X3885714Y-1320286D01*
X3857143Y-1334571D01*
X3842857Y-1348857D01*
X3828571Y-1377429D01*
X3828571Y-1434571D01*
X3842857Y-1463143D01*
X3857143Y-1477429D01*
X3885714Y-1491714D01*
X3942857Y-1491714D01*
X3971428Y-1477429D01*
X3985714Y-1463143D01*
X4000000Y-1434571D01*
X4000000Y-1377429D01*
X3985714Y-1348857D01*
X3971428Y-1334571D01*
X3942857Y-1320286D01*
X4114286Y-1191714D02*
X4114286Y-1248857D01*
X4228571Y-1191714D02*
X4228571Y-1248857D01*
X4671429Y-1606000D02*
X4657143Y-1591714D01*
X4628571Y-1548857D01*
X4614286Y-1520286D01*
X4600000Y-1477429D01*
X4585714Y-1406000D01*
X4585714Y-1348857D01*
X4600000Y-1277429D01*
X4614286Y-1234571D01*
X4628571Y-1206000D01*
X4657143Y-1163143D01*
X4671429Y-1148857D01*
X4914286Y-1291714D02*
X4914286Y-1491714D01*
X4842857Y-1177429D02*
X4771429Y-1391714D01*
X4957143Y-1391714D01*
X5300000Y-1491714D02*
X5300000Y-1191714D01*
X5428571Y-1491714D02*
X5428571Y-1334571D01*
X5414286Y-1306000D01*
X5385714Y-1291714D01*
X5342857Y-1291714D01*
X5314286Y-1306000D01*
X5300000Y-1320286D01*
X5614286Y-1491714D02*
X5585714Y-1477429D01*
X5571429Y-1463143D01*
X5557143Y-1434571D01*
X5557143Y-1348857D01*
X5571429Y-1320286D01*
X5585714Y-1306000D01*
X5614286Y-1291714D01*
X5657143Y-1291714D01*
X5685714Y-1306000D01*
X5700000Y-1320286D01*
X5714286Y-1348857D01*
X5714286Y-1434571D01*
X5700000Y-1463143D01*
X5685714Y-1477429D01*
X5657143Y-1491714D01*
X5614286Y-1491714D01*
X5885714Y-1491714D02*
X5857143Y-1477429D01*
X5842857Y-1448857D01*
X5842857Y-1191714D01*
X6114286Y-1477429D02*
X6085714Y-1491714D01*
X6028571Y-1491714D01*
X6000000Y-1477429D01*
X5985714Y-1448857D01*
X5985714Y-1334571D01*
X6000000Y-1306000D01*
X6028571Y-1291714D01*
X6085714Y-1291714D01*
X6114286Y-1306000D01*
X6128571Y-1334571D01*
X6128571Y-1363143D01*
X5985714Y-1391714D01*
X6242857Y-1477429D02*
X6271429Y-1491714D01*
X6328571Y-1491714D01*
X6357143Y-1477429D01*
X6371429Y-1448857D01*
X6371429Y-1434571D01*
X6357143Y-1406000D01*
X6328571Y-1391714D01*
X6285714Y-1391714D01*
X6257143Y-1377429D01*
X6242857Y-1348857D01*
X6242857Y-1334571D01*
X6257143Y-1306000D01*
X6285714Y-1291714D01*
X6328571Y-1291714D01*
X6357143Y-1306000D01*
X6471428Y-1606000D02*
X6485714Y-1591714D01*
X6514286Y-1548857D01*
X6528571Y-1520286D01*
X6542857Y-1477429D01*
X6557143Y-1406000D01*
X6557143Y-1348857D01*
X6542857Y-1277429D01*
X6528571Y-1234571D01*
X6514286Y-1206000D01*
X6485714Y-1163143D01*
X6471428Y-1148857D01*
X7014286Y-1606000D02*
X7000000Y-1591714D01*
X6971428Y-1548857D01*
X6957143Y-1520286D01*
X6942857Y-1477429D01*
X6928571Y-1406000D01*
X6928571Y-1348857D01*
X6942857Y-1277429D01*
X6957143Y-1234571D01*
X6971428Y-1206000D01*
X7000000Y-1163143D01*
X7014286Y-1148857D01*
X7128571Y-1291714D02*
X7128571Y-1491714D01*
X7128571Y-1320286D02*
X7142857Y-1306000D01*
X7171428Y-1291714D01*
X7214286Y-1291714D01*
X7242857Y-1306000D01*
X7257143Y-1334571D01*
X7257143Y-1491714D01*
X7442857Y-1491714D02*
X7414286Y-1477429D01*
X7400000Y-1463143D01*
X7385714Y-1434571D01*
X7385714Y-1348857D01*
X7400000Y-1320286D01*
X7414286Y-1306000D01*
X7442857Y-1291714D01*
X7485714Y-1291714D01*
X7514286Y-1306000D01*
X7528571Y-1320286D01*
X7542857Y-1348857D01*
X7542857Y-1434571D01*
X7528571Y-1463143D01*
X7514286Y-1477429D01*
X7485714Y-1491714D01*
X7442857Y-1491714D01*
X7628571Y-1291714D02*
X7742857Y-1291714D01*
X7671429Y-1191714D02*
X7671429Y-1448857D01*
X7685714Y-1477429D01*
X7714286Y-1491714D01*
X7742857Y-1491714D01*
X8071429Y-1291714D02*
X8071429Y-1591714D01*
X8071429Y-1306000D02*
X8100000Y-1291714D01*
X8157143Y-1291714D01*
X8185714Y-1306000D01*
X8200000Y-1320286D01*
X8214286Y-1348857D01*
X8214286Y-1434571D01*
X8200000Y-1463143D01*
X8185714Y-1477429D01*
X8157143Y-1491714D01*
X8100000Y-1491714D01*
X8071429Y-1477429D01*
X8385714Y-1491714D02*
X8357143Y-1477429D01*
X8342857Y-1448857D01*
X8342857Y-1191714D01*
X8628572Y-1491714D02*
X8628572Y-1334571D01*
X8614286Y-1306000D01*
X8585714Y-1291714D01*
X8528572Y-1291714D01*
X8500000Y-1306000D01*
X8628572Y-1477429D02*
X8600000Y-1491714D01*
X8528572Y-1491714D01*
X8500000Y-1477429D01*
X8485714Y-1448857D01*
X8485714Y-1420286D01*
X8500000Y-1391714D01*
X8528572Y-1377429D01*
X8600000Y-1377429D01*
X8628572Y-1363143D01*
X8728572Y-1291714D02*
X8842857Y-1291714D01*
X8771429Y-1191714D02*
X8771429Y-1448857D01*
X8785714Y-1477429D01*
X8814286Y-1491714D01*
X8842857Y-1491714D01*
X9057143Y-1477429D02*
X9028572Y-1491714D01*
X8971429Y-1491714D01*
X8942857Y-1477429D01*
X8928572Y-1448857D01*
X8928572Y-1334571D01*
X8942857Y-1306000D01*
X8971429Y-1291714D01*
X9028572Y-1291714D01*
X9057143Y-1306000D01*
X9071429Y-1334571D01*
X9071429Y-1363143D01*
X8928572Y-1391714D01*
X9328572Y-1491714D02*
X9328572Y-1191714D01*
X9328572Y-1477429D02*
X9300000Y-1491714D01*
X9242857Y-1491714D01*
X9214286Y-1477429D01*
X9200000Y-1463143D01*
X9185715Y-1434571D01*
X9185715Y-1348857D01*
X9200000Y-1320286D01*
X9214286Y-1306000D01*
X9242857Y-1291714D01*
X9300000Y-1291714D01*
X9328572Y-1306000D01*
X9442857Y-1606000D02*
X9457143Y-1591714D01*
X9485715Y-1548857D01*
X9500000Y-1520286D01*
X9514286Y-1477429D01*
X9528572Y-1406000D01*
X9528572Y-1348857D01*
X9514286Y-1277429D01*
X9500000Y-1234571D01*
X9485715Y-1206000D01*
X9457143Y-1163143D01*
X9442857Y-1148857D01*
X-162500Y-1623500D02*
X-162500Y-1948500D01*
X-325000Y-1786000D02*
X0Y-1786000D01*
X242857Y-1621714D02*
X428571Y-1621714D01*
X328571Y-1736000D01*
X371429Y-1736000D01*
X400000Y-1750286D01*
X414286Y-1764571D01*
X428571Y-1793143D01*
X428571Y-1864571D01*
X414286Y-1893143D01*
X400000Y-1907429D01*
X371429Y-1921714D01*
X285714Y-1921714D01*
X257143Y-1907429D01*
X242857Y-1893143D01*
X557143Y-1893143D02*
X571429Y-1907429D01*
X557143Y-1921714D01*
X542857Y-1907429D01*
X557143Y-1893143D01*
X557143Y-1921714D01*
X685714Y-1650286D02*
X700000Y-1636000D01*
X728571Y-1621714D01*
X800000Y-1621714D01*
X828571Y-1636000D01*
X842857Y-1650286D01*
X857143Y-1678857D01*
X857143Y-1707429D01*
X842857Y-1750286D01*
X671429Y-1921714D01*
X857143Y-1921714D01*
X1128571Y-1621714D02*
X985714Y-1621714D01*
X971429Y-1764571D01*
X985714Y-1750286D01*
X1014286Y-1736000D01*
X1085714Y-1736000D01*
X1114286Y-1750286D01*
X1128571Y-1764571D01*
X1142857Y-1793143D01*
X1142857Y-1864571D01*
X1128571Y-1893143D01*
X1114286Y-1907429D01*
X1085714Y-1921714D01*
X1014286Y-1921714D01*
X985714Y-1907429D01*
X971429Y-1893143D01*
X1271429Y-1921714D02*
X1271429Y-1721714D01*
X1271429Y-1750286D02*
X1285714Y-1736000D01*
X1314286Y-1721714D01*
X1357143Y-1721714D01*
X1385714Y-1736000D01*
X1400000Y-1764571D01*
X1400000Y-1921714D01*
X1400000Y-1764571D02*
X1414286Y-1736000D01*
X1442857Y-1721714D01*
X1485714Y-1721714D01*
X1514286Y-1736000D01*
X1528571Y-1764571D01*
X1528571Y-1921714D01*
X1671429Y-1921714D02*
X1671429Y-1721714D01*
X1671429Y-1750286D02*
X1685714Y-1736000D01*
X1714286Y-1721714D01*
X1757143Y-1721714D01*
X1785714Y-1736000D01*
X1800000Y-1764571D01*
X1800000Y-1921714D01*
X1800000Y-1764571D02*
X1814286Y-1736000D01*
X1842857Y-1721714D01*
X1885714Y-1721714D01*
X1914286Y-1736000D01*
X1928571Y-1764571D01*
X1928571Y-1921714D01*
X2514286Y-1607429D02*
X2257143Y-1993143D01*
X2900000Y-1621714D02*
X2928571Y-1621714D01*
X2957143Y-1636000D01*
X2971428Y-1650286D01*
X2985714Y-1678857D01*
X3000000Y-1736000D01*
X3000000Y-1807429D01*
X2985714Y-1864571D01*
X2971428Y-1893143D01*
X2957143Y-1907429D01*
X2928571Y-1921714D01*
X2900000Y-1921714D01*
X2871428Y-1907429D01*
X2857143Y-1893143D01*
X2842857Y-1864571D01*
X2828571Y-1807429D01*
X2828571Y-1736000D01*
X2842857Y-1678857D01*
X2857143Y-1650286D01*
X2871428Y-1636000D01*
X2900000Y-1621714D01*
X3128571Y-1893143D02*
X3142857Y-1907429D01*
X3128571Y-1921714D01*
X3114286Y-1907429D01*
X3128571Y-1893143D01*
X3128571Y-1921714D01*
X3428571Y-1921714D02*
X3257143Y-1921714D01*
X3342857Y-1921714D02*
X3342857Y-1621714D01*
X3314286Y-1664571D01*
X3285714Y-1693143D01*
X3257143Y-1707429D01*
X3542857Y-1650286D02*
X3557143Y-1636000D01*
X3585714Y-1621714D01*
X3657143Y-1621714D01*
X3685714Y-1636000D01*
X3700000Y-1650286D01*
X3714286Y-1678857D01*
X3714286Y-1707429D01*
X3700000Y-1750286D01*
X3528571Y-1921714D01*
X3714286Y-1921714D01*
X3885714Y-1750286D02*
X3857143Y-1736000D01*
X3842857Y-1721714D01*
X3828571Y-1693143D01*
X3828571Y-1678857D01*
X3842857Y-1650286D01*
X3857143Y-1636000D01*
X3885714Y-1621714D01*
X3942857Y-1621714D01*
X3971428Y-1636000D01*
X3985714Y-1650286D01*
X4000000Y-1678857D01*
X4000000Y-1693143D01*
X3985714Y-1721714D01*
X3971428Y-1736000D01*
X3942857Y-1750286D01*
X3885714Y-1750286D01*
X3857143Y-1764571D01*
X3842857Y-1778857D01*
X3828571Y-1807429D01*
X3828571Y-1864571D01*
X3842857Y-1893143D01*
X3857143Y-1907429D01*
X3885714Y-1921714D01*
X3942857Y-1921714D01*
X3971428Y-1907429D01*
X3985714Y-1893143D01*
X4000000Y-1864571D01*
X4000000Y-1807429D01*
X3985714Y-1778857D01*
X3971428Y-1764571D01*
X3942857Y-1750286D01*
X4114286Y-1621714D02*
X4114286Y-1678857D01*
X4228571Y-1621714D02*
X4228571Y-1678857D01*
X4671429Y-2036000D02*
X4657143Y-2021714D01*
X4628571Y-1978857D01*
X4614286Y-1950286D01*
X4600000Y-1907429D01*
X4585714Y-1836000D01*
X4585714Y-1778857D01*
X4600000Y-1707429D01*
X4614286Y-1664571D01*
X4628571Y-1636000D01*
X4657143Y-1593143D01*
X4671429Y-1578857D01*
X4771429Y-1650286D02*
X4785714Y-1636000D01*
X4814286Y-1621714D01*
X4885714Y-1621714D01*
X4914286Y-1636000D01*
X4928571Y-1650286D01*
X4942857Y-1678857D01*
X4942857Y-1707429D01*
X4928571Y-1750286D01*
X4757143Y-1921714D01*
X4942857Y-1921714D01*
X5300000Y-1921714D02*
X5300000Y-1621714D01*
X5428571Y-1921714D02*
X5428571Y-1764571D01*
X5414286Y-1736000D01*
X5385714Y-1721714D01*
X5342857Y-1721714D01*
X5314286Y-1736000D01*
X5300000Y-1750286D01*
X5614286Y-1921714D02*
X5585714Y-1907429D01*
X5571429Y-1893143D01*
X5557143Y-1864571D01*
X5557143Y-1778857D01*
X5571429Y-1750286D01*
X5585714Y-1736000D01*
X5614286Y-1721714D01*
X5657143Y-1721714D01*
X5685714Y-1736000D01*
X5700000Y-1750286D01*
X5714286Y-1778857D01*
X5714286Y-1864571D01*
X5700000Y-1893143D01*
X5685714Y-1907429D01*
X5657143Y-1921714D01*
X5614286Y-1921714D01*
X5885714Y-1921714D02*
X5857143Y-1907429D01*
X5842857Y-1878857D01*
X5842857Y-1621714D01*
X6114286Y-1907429D02*
X6085714Y-1921714D01*
X6028571Y-1921714D01*
X6000000Y-1907429D01*
X5985714Y-1878857D01*
X5985714Y-1764571D01*
X6000000Y-1736000D01*
X6028571Y-1721714D01*
X6085714Y-1721714D01*
X6114286Y-1736000D01*
X6128571Y-1764571D01*
X6128571Y-1793143D01*
X5985714Y-1821714D01*
X6242857Y-1907429D02*
X6271429Y-1921714D01*
X6328571Y-1921714D01*
X6357143Y-1907429D01*
X6371429Y-1878857D01*
X6371429Y-1864571D01*
X6357143Y-1836000D01*
X6328571Y-1821714D01*
X6285714Y-1821714D01*
X6257143Y-1807429D01*
X6242857Y-1778857D01*
X6242857Y-1764571D01*
X6257143Y-1736000D01*
X6285714Y-1721714D01*
X6328571Y-1721714D01*
X6357143Y-1736000D01*
X6471428Y-2036000D02*
X6485714Y-2021714D01*
X6514286Y-1978857D01*
X6528571Y-1950286D01*
X6542857Y-1907429D01*
X6557143Y-1836000D01*
X6557143Y-1778857D01*
X6542857Y-1707429D01*
X6528571Y-1664571D01*
X6514286Y-1636000D01*
X6485714Y-1593143D01*
X6471428Y-1578857D01*
X7014286Y-2036000D02*
X7000000Y-2021714D01*
X6971428Y-1978857D01*
X6957143Y-1950286D01*
X6942857Y-1907429D01*
X6928571Y-1836000D01*
X6928571Y-1778857D01*
X6942857Y-1707429D01*
X6957143Y-1664571D01*
X6971428Y-1636000D01*
X7000000Y-1593143D01*
X7014286Y-1578857D01*
X7128571Y-1721714D02*
X7128571Y-1921714D01*
X7128571Y-1750286D02*
X7142857Y-1736000D01*
X7171428Y-1721714D01*
X7214286Y-1721714D01*
X7242857Y-1736000D01*
X7257143Y-1764571D01*
X7257143Y-1921714D01*
X7442857Y-1921714D02*
X7414286Y-1907429D01*
X7400000Y-1893143D01*
X7385714Y-1864571D01*
X7385714Y-1778857D01*
X7400000Y-1750286D01*
X7414286Y-1736000D01*
X7442857Y-1721714D01*
X7485714Y-1721714D01*
X7514286Y-1736000D01*
X7528571Y-1750286D01*
X7542857Y-1778857D01*
X7542857Y-1864571D01*
X7528571Y-1893143D01*
X7514286Y-1907429D01*
X7485714Y-1921714D01*
X7442857Y-1921714D01*
X7628571Y-1721714D02*
X7742857Y-1721714D01*
X7671429Y-1621714D02*
X7671429Y-1878857D01*
X7685714Y-1907429D01*
X7714286Y-1921714D01*
X7742857Y-1921714D01*
X8071429Y-1721714D02*
X8071429Y-2021714D01*
X8071429Y-1736000D02*
X8100000Y-1721714D01*
X8157143Y-1721714D01*
X8185714Y-1736000D01*
X8200000Y-1750286D01*
X8214286Y-1778857D01*
X8214286Y-1864571D01*
X8200000Y-1893143D01*
X8185714Y-1907429D01*
X8157143Y-1921714D01*
X8100000Y-1921714D01*
X8071429Y-1907429D01*
X8385714Y-1921714D02*
X8357143Y-1907429D01*
X8342857Y-1878857D01*
X8342857Y-1621714D01*
X8628572Y-1921714D02*
X8628572Y-1764571D01*
X8614286Y-1736000D01*
X8585714Y-1721714D01*
X8528572Y-1721714D01*
X8500000Y-1736000D01*
X8628572Y-1907429D02*
X8600000Y-1921714D01*
X8528572Y-1921714D01*
X8500000Y-1907429D01*
X8485714Y-1878857D01*
X8485714Y-1850286D01*
X8500000Y-1821714D01*
X8528572Y-1807429D01*
X8600000Y-1807429D01*
X8628572Y-1793143D01*
X8728572Y-1721714D02*
X8842857Y-1721714D01*
X8771429Y-1621714D02*
X8771429Y-1878857D01*
X8785714Y-1907429D01*
X8814286Y-1921714D01*
X8842857Y-1921714D01*
X9057143Y-1907429D02*
X9028572Y-1921714D01*
X8971429Y-1921714D01*
X8942857Y-1907429D01*
X8928572Y-1878857D01*
X8928572Y-1764571D01*
X8942857Y-1736000D01*
X8971429Y-1721714D01*
X9028572Y-1721714D01*
X9057143Y-1736000D01*
X9071429Y-1764571D01*
X9071429Y-1793143D01*
X8928572Y-1821714D01*
X9328572Y-1921714D02*
X9328572Y-1621714D01*
X9328572Y-1907429D02*
X9300000Y-1921714D01*
X9242857Y-1921714D01*
X9214286Y-1907429D01*
X9200000Y-1893143D01*
X9185715Y-1864571D01*
X9185715Y-1778857D01*
X9200000Y-1750286D01*
X9214286Y-1736000D01*
X9242857Y-1721714D01*
X9300000Y-1721714D01*
X9328572Y-1736000D01*
X9442857Y-2036000D02*
X9457143Y-2021714D01*
X9485715Y-1978857D01*
X9500000Y-1950286D01*
X9514286Y-1907429D01*
X9528572Y-1836000D01*
X9528572Y-1778857D01*
X9514286Y-1707429D01*
X9500000Y-1664571D01*
X9485715Y-1636000D01*
X9457143Y-1593143D01*
X9442857Y-1578857D01*
M02*
