M48
;DRILL file {KiCad 4.0.2-stable} date 06/03/2018 00:18:57
;FORMAT={-:-/ absolute / inch / decimal}
FMAT,2
INCH,TZ
T1C0.016
T2C0.026
T3C0.030
T4C0.031
T5C0.035
T6C0.039
T7C0.039
T8C0.040
T9C0.047
T10C0.050
T11C0.051
T12C0.055
T13C0.063
T14C0.087
T15C0.138
%
G90
G05
M72
T1
X4.675Y-6.582
X5.79Y-7.42
X5.82Y-7.
X5.82Y-7.39
X5.83Y-7.44
X5.85Y-7.41
X5.85Y-7.47
X5.86Y-7.61
X5.86Y-7.71
X5.86Y-7.79
X5.86Y-7.88
X5.86Y-8.84
X5.88Y-7.3
X5.88Y-7.4
X5.88Y-7.44
X5.96Y-7.88
X6.02Y-7.05
X6.09Y-7.88
X6.19Y-6.54
X6.68Y-7.54
X6.68Y-7.58
X6.68Y-7.62
X6.73Y-7.54
X6.73Y-7.58
X6.73Y-7.62
X6.78Y-7.54
X6.78Y-7.58
X6.78Y-7.62
X7.44Y-7.99
X7.44Y-8.06
X7.44Y-8.11
X7.45Y-7.42
X7.47Y-8.03
X7.47Y-8.08
X7.48Y-6.6
X7.49Y-7.98
X7.51Y-8.01
X7.51Y-8.06
X7.51Y-8.1
X7.57Y-7.42
X7.59Y-8.36
X7.61Y-8.4
X7.63Y-8.36
X7.64Y-7.14
X7.64Y-7.18
X7.65Y-8.4
X7.66Y-6.96
X7.67Y-8.36
X7.68Y-6.98
X7.69Y-8.4
X7.7Y-6.96
X7.71Y-8.36
X7.72Y-6.98
X7.74Y-6.66
X7.74Y-6.96
X7.88Y-8.09
X7.97Y-8.08
X7.97Y-8.17
X8.06Y-7.98
X8.06Y-8.08
X8.66Y-6.72
X8.66Y-7.22
X8.66Y-8.51
X8.7Y-8.46
X8.75Y-8.465
X8.785Y-6.46
X8.8Y-8.46
X8.835Y-8.51
X9.135Y-6.78
X9.2125Y-6.43
X9.275Y-6.765
X9.28Y-7.02
X9.29Y-6.94
X9.32Y-7.29
X9.3275Y-6.39
X9.33Y-6.94
X9.3325Y-6.2375
X9.335Y-6.77
X9.34Y-6.3
X9.35Y-7.29
X9.37Y-6.3
X9.38Y-7.02
X9.39Y-6.51
X9.47Y-6.24
X9.47Y-6.385
X9.54Y-6.82
X9.56Y-6.61
X9.65Y-6.73
X9.706Y-8.209
X9.71Y-8.49
X9.7318Y-7.2018
X9.77Y-6.71
X9.77Y-7.91
X9.88Y-7.65
X9.89Y-7.7
X9.97Y-7.83
X10.04Y-7.74
X10.06Y-6.49
X10.07Y-7.47
X10.16Y-6.24
X10.19Y-6.27
X10.21Y-7.75
X10.26Y-7.8
X10.38Y-6.44
X10.46Y-7.73
X10.56Y-7.73
X10.59Y-7.61
X10.6Y-7.47
X10.69Y-7.43
X10.7375Y-7.865
X10.75Y-7.44
X10.8Y-7.65
X10.82Y-6.381
X10.82Y-7.69
X10.86Y-6.46
X10.9Y-6.26
X10.9Y-6.31
X10.9375Y-6.1125
X10.94Y-6.31
X10.94Y-6.47
X10.94Y-7.18
X10.94Y-7.61
X10.94Y-8.68
X11.01Y-7.41
X11.023Y-6.489
X11.03Y-8.47
X11.035Y-6.295
X11.08Y-7.53
X11.085Y-7.71
X11.1Y-6.25
X11.1Y-7.632
X11.1275Y-7.8625
X11.14Y-6.83
X11.14Y-7.38
X11.15Y-6.45
X11.174Y-6.885
X11.188Y-6.583
X11.21Y-6.77
X11.21Y-6.81
X11.21Y-7.6
X11.21Y-7.71
X11.215Y-7.36
X11.2395Y-6.4325
X11.28Y-6.33
X11.28Y-7.53
X11.28Y-8.33
X11.283Y-6.568
X11.295Y-7.06
X11.3195Y-6.628
X11.32Y-6.31
X11.33Y-7.88
X11.33Y-8.1
X11.39Y-6.18
X11.39Y-7.06
X11.445Y-7.415
X11.46Y-6.44
X11.465Y-6.56
X11.4775Y-6.7685
X11.53Y-6.25
X11.535Y-6.485
X11.551Y-7.741
X11.575Y-8.03
X11.607Y-8.002
X11.61Y-6.835
X11.613Y-7.277
X11.621Y-7.124
X11.622Y-7.056
X11.63Y-6.405
X11.636Y-7.215
X11.665Y-7.858
X11.667Y-6.15
X11.675Y-8.17
X11.677Y-7.6965
X11.69Y-6.74
X11.701Y-7.121
X11.742Y-7.463
X11.759Y-7.2745
X11.76Y-6.98
X11.764Y-7.788
X11.788Y-7.406
X11.79Y-6.8425
X11.825Y-7.403
X11.828Y-7.858
X11.835Y-7.369
X11.838Y-8.018
X11.85Y-6.88
X11.854Y-6.981
X11.858Y-7.872
X11.862Y-7.4895
X11.875Y-8.12
X11.885Y-7.902
X11.89Y-6.44
X11.895Y-8.17
X11.9Y-8.135
X11.906Y-7.928
X11.91Y-6.74
X11.915Y-7.015
X11.9175Y-7.2785
X11.93Y-8.02
X11.95Y-7.84
X11.97Y-6.35
X11.97Y-7.38
X11.995Y-7.405
X12.Y-6.75
X12.02Y-7.1
X12.02Y-7.43
X12.024Y-7.6405
X12.032Y-7.151
X12.04Y-6.87
X12.04Y-8.09
X12.041Y-7.7505
X12.05Y-6.76
X12.062Y-7.2355
X12.075Y-7.7755
X12.078Y-7.407
X12.089Y-7.2085
X12.0945Y-7.7035
X12.11Y-6.88
X12.1115Y-6.7425
X12.12Y-6.48
X12.13Y-7.15
X12.13Y-8.22
X12.1435Y-7.7345
X12.1545Y-7.5015
X12.17Y-7.6725
X12.1745Y-7.5335
X12.175Y-6.875
X12.175Y-7.888
X12.18Y-8.185
X12.1809Y-7.3471
X12.198Y-7.8425
X12.2Y-6.695
X12.2035Y-7.553
X12.2075Y-6.9385
X12.24Y-6.8
X12.24Y-7.41
X12.24Y-7.641
X12.245Y-7.15
X12.293Y-7.995
X12.308Y-8.16
X12.313Y-7.4735
X12.3135Y-8.089
X12.328Y-7.8
X12.34Y-8.2
X12.399Y-7.037
X12.407Y-6.756
X12.419Y-8.206
X12.425Y-7.074
X12.5Y-7.57
X12.514Y-7.8595
T2
X12.37Y-7.16
X12.37Y-7.21
X12.37Y-7.26
X12.37Y-7.31
X12.37Y-7.36
X12.42Y-7.16
X12.42Y-7.21
X12.42Y-7.26
X12.42Y-7.31
X12.42Y-7.36
T3
X11.74Y-8.88
X11.79Y-8.78
X11.84Y-8.88
X11.89Y-8.78
X11.94Y-8.88
X11.99Y-8.78
X12.04Y-8.88
X12.09Y-8.78
T4
X5.19Y-7.56
X5.3869Y-7.56
X6.2Y-8.79
X6.58Y-6.67
X6.58Y-6.97
X6.6Y-8.79
X7.01Y-7.36
X7.01Y-7.93
X7.2069Y-7.36
X7.2069Y-7.93
X8.18Y-8.63
X8.29Y-7.0831
X8.29Y-7.28
X8.58Y-8.63
X8.8805Y-8.1061
X8.95Y-8.5
X9.165Y-7.25
X9.165Y-7.65
X9.24Y-7.97
X9.4369Y-7.97
X9.51Y-7.245
X9.51Y-7.645
X9.59Y-7.76
X9.8475Y-8.085
X9.8475Y-8.3525
X9.89Y-7.76
X10.0475Y-8.085
X10.0475Y-8.3525
X10.2475Y-8.085
X10.2475Y-8.3525
X10.4475Y-8.085
X10.4475Y-8.3525
X12.135Y-8.37
X12.535Y-8.37
T5
X5.7087Y-8.937
X5.8087Y-8.937
X10.5512Y-8.6858
X10.6512Y-8.6858
X11.1417Y-8.937
X11.2417Y-8.937
X11.378Y-8.937
X11.478Y-8.937
T6
X8.25Y-6.14
X8.955Y-7.69
X8.955Y-7.89
X9.8031Y-8.937
X9.9803Y-8.937
X10.2166Y-6.8634
X10.48Y-6.78
X10.48Y-7.01
X10.48Y-7.22
X10.68Y-6.78
X11.08Y-8.77
X11.18Y-8.77
X11.28Y-8.77
X11.38Y-8.77
X11.43Y-7.79
X11.43Y-7.89
X11.43Y-7.99
X11.43Y-8.09
X11.43Y-8.19
X11.43Y-8.29
X11.48Y-8.77
X12.5Y-6.52
X12.5Y-6.62
X12.5Y-6.72
X12.5Y-6.82
T7
X6.56Y-8.9301
T8
X5.3Y-6.38
X5.3Y-6.48
X5.3Y-6.58
X5.3Y-6.68
X5.3Y-6.88
X5.3Y-6.98
X5.3Y-7.08
T9
X4.7Y-7.56
X4.8Y-7.56
X5.15Y-8.64
X5.35Y-8.64
X7.1Y-8.5531
X7.1Y-8.75
X7.7Y-8.5531
X7.7Y-8.75
X8.15Y-8.88
X8.75Y-8.88
X9.715Y-7.55
X10.1393Y-7.1257
T10
X6.16Y-8.9301
T11
X8.19Y-7.81
X8.19Y-7.96
X8.19Y-8.11
X8.19Y-8.26
X8.59Y-7.66
X8.59Y-7.81
X8.59Y-7.96
X8.59Y-8.11
X8.59Y-8.26
X9.7539Y-8.8386
X10.0295Y-8.8386
T12
X5.1575Y-8.8976
X5.3575Y-8.8976
T13
X5.77Y-8.03
X5.77Y-8.53
X5.97Y-8.03
X5.97Y-8.53
X6.17Y-8.03
X6.17Y-8.53
X6.37Y-8.03
X6.37Y-8.53
X6.57Y-8.03
X6.57Y-8.53
X8.19Y-7.66
X8.9764Y-8.7008
X8.9764Y-8.9008
X9.1764Y-8.7008
X9.1764Y-8.9008
X9.3764Y-8.7008
X9.3764Y-8.9008
T14
X10.3512Y-8.8858
X10.7512Y-8.8858
T15
X12.4016Y-8.7697G85X12.4016Y-8.8287
G05
T0
M30
