G04 #@! TF.FileFunction,Copper,L4,Bot,Signal*
%FSLAX46Y46*%
G04 Gerber Fmt 4.6, Leading zero omitted, Abs format (unit mm)*
G04 Created by KiCad (PCBNEW 4.0.2-stable) date 06/03/2018 00:18:55*
%MOMM*%
G01*
G04 APERTURE LIST*
%ADD10C,0.100000*%
%ADD11C,1.998980*%
%ADD12R,1.998980X1.998980*%
%ADD13R,1.300000X1.300000*%
%ADD14C,1.300000*%
%ADD15C,1.700000*%
%ADD16R,1.700000X1.700000*%
%ADD17R,1.727200X1.727200*%
%ADD18O,1.727200X1.727200*%
%ADD19O,3.600000X2.500000*%
%ADD20R,3.600000X2.500000*%
%ADD21O,2.500000X3.600000*%
%ADD22R,2.500000X3.600000*%
%ADD23C,1.600000*%
%ADD24O,1.600000X1.600000*%
%ADD25C,2.400000*%
%ADD26O,2.400000X2.400000*%
%ADD27C,2.400000*%
%ADD28C,3.750000*%
%ADD29C,1.250000*%
%ADD30R,2.100000X3.600000*%
%ADD31O,2.100000X3.600000*%
%ADD32O,1.700000X1.700000*%
%ADD33R,1.050000X1.050000*%
%ADD34C,1.050000*%
%ADD35R,1.800000X1.800000*%
%ADD36C,1.800000*%
%ADD37R,1.800000X3.600000*%
%ADD38O,1.800000X3.600000*%
%ADD39C,2.200000*%
%ADD40C,1.600000*%
%ADD41O,1.800000X1.800000*%
%ADD42O,8.000000X10.500000*%
%ADD43R,2.000000X2.600000*%
%ADD44O,2.000000X2.600000*%
%ADD45C,1.500000*%
%ADD46C,4.000000*%
%ADD47C,0.600000*%
%ADD48C,2.000000*%
%ADD49C,0.180000*%
%ADD50C,0.700000*%
%ADD51C,0.500000*%
%ADD52C,1.000000*%
%ADD53C,0.800000*%
%ADD54C,0.200000*%
G04 APERTURE END LIST*
D10*
D11*
X156464000Y-226824540D03*
D12*
X166624000Y-226824540D03*
D13*
X131826000Y-192024000D03*
D14*
X136826000Y-192024000D03*
D13*
X234696000Y-202438000D03*
D14*
X239696000Y-202438000D03*
D13*
X210566000Y-184912000D03*
D14*
X210566000Y-179912000D03*
D15*
X180340000Y-217250000D03*
D16*
X180340000Y-222250000D03*
D15*
X195580000Y-217250000D03*
D16*
X195580000Y-222250000D03*
D13*
X178054000Y-201422000D03*
D14*
X183054000Y-201422000D03*
D17*
X134620000Y-179832000D03*
D18*
X134620000Y-177292000D03*
X134620000Y-174752000D03*
X134620000Y-169672000D03*
X134620000Y-167132000D03*
X134620000Y-164592000D03*
X134620000Y-162052000D03*
D19*
X208026000Y-209804000D03*
X208026000Y-205994000D03*
X218186000Y-209804000D03*
X218186000Y-205994000D03*
X208026000Y-202184000D03*
X208026000Y-198374000D03*
D20*
X208026000Y-194564000D03*
D19*
X218186000Y-194564000D03*
X218186000Y-198374000D03*
X218186000Y-202184000D03*
D21*
X146558000Y-203962000D03*
X151638000Y-203962000D03*
X146558000Y-216662000D03*
X151638000Y-216662000D03*
X156718000Y-203962000D03*
X161798000Y-203962000D03*
D22*
X166878000Y-203962000D03*
D21*
X166878000Y-216662000D03*
X161798000Y-216662000D03*
X156718000Y-216662000D03*
D23*
X217932000Y-219202000D03*
D24*
X207772000Y-219202000D03*
D25*
X207010000Y-225552000D03*
D26*
X222250000Y-225552000D03*
D23*
X157480000Y-223266000D03*
D24*
X167640000Y-223266000D03*
D25*
X246761000Y-191770000D03*
D27*
X257537307Y-180993693D02*
X257537307Y-180993693D01*
D23*
X232791000Y-194310000D03*
D24*
X232791000Y-184150000D03*
D23*
X241554000Y-194183000D03*
D24*
X241554000Y-184023000D03*
D28*
X308356000Y-231902000D03*
D29*
X299466000Y-223012000D03*
D28*
X296924000Y-231902000D03*
D29*
X302006000Y-223012000D03*
X304546000Y-223012000D03*
X307086000Y-223012000D03*
X298196000Y-225552000D03*
X300736000Y-225552000D03*
X303276000Y-225552000D03*
X305816000Y-225552000D03*
D30*
X131000000Y-226000000D03*
D31*
X136080000Y-226000000D03*
D21*
X238160000Y-226080000D03*
X233080000Y-226080000D03*
D22*
X228000000Y-226080000D03*
X228000000Y-221000000D03*
D21*
X233080000Y-221000000D03*
X238160000Y-221000000D03*
D16*
X281432000Y-222758000D03*
D32*
X283972000Y-222758000D03*
X286512000Y-222758000D03*
X289052000Y-222758000D03*
X291592000Y-222758000D03*
D16*
X290322000Y-197866000D03*
D32*
X290322000Y-200406000D03*
X290322000Y-202946000D03*
X290322000Y-205486000D03*
X290322000Y-208026000D03*
X290322000Y-210566000D03*
D33*
X314198000Y-181864000D03*
D34*
X314198000Y-183134000D03*
X314198000Y-184404000D03*
X314198000Y-185674000D03*
X314198000Y-186944000D03*
X315468000Y-183134000D03*
X315468000Y-184404000D03*
X315468000Y-185674000D03*
X315468000Y-186944000D03*
X315468000Y-181864000D03*
D35*
X289000000Y-227000000D03*
D36*
X291540000Y-227000000D03*
D35*
X283000000Y-227000000D03*
D36*
X285540000Y-227000000D03*
D35*
X145000000Y-227000000D03*
D36*
X147540000Y-227000000D03*
D13*
X178054000Y-186944000D03*
D14*
X183054000Y-186944000D03*
D37*
X130810000Y-219456000D03*
D38*
X135890000Y-219456000D03*
D39*
X247750000Y-224500000D03*
X254750000Y-224500000D03*
D15*
X249000000Y-227000000D03*
X253500000Y-227000000D03*
D36*
X260286500Y-212153500D03*
X255206500Y-212153500D03*
X250126500Y-212153500D03*
D35*
X265366500Y-212153500D03*
D36*
X260286500Y-205359000D03*
X255206500Y-205359000D03*
X250126500Y-205359000D03*
D35*
X265366500Y-205359000D03*
D23*
X227330000Y-215900000D03*
D40*
X225565735Y-205894353D02*
X225565735Y-205894353D01*
D35*
X227457000Y-200406000D03*
D41*
X227457000Y-195326000D03*
D36*
X243586000Y-197104000D03*
X251206000Y-197104000D03*
D42*
X315000000Y-223500000D03*
D16*
X317500000Y-173228000D03*
D32*
X317500000Y-170688000D03*
X317500000Y-168148000D03*
X317500000Y-165608000D03*
D43*
X121920000Y-192024000D03*
D44*
X119380000Y-192024000D03*
D23*
X308229000Y-212598000D03*
D24*
X318389000Y-212598000D03*
D45*
X268000000Y-220620000D03*
X270540000Y-220620000D03*
D46*
X273080000Y-225700000D03*
X262920000Y-225700000D03*
D36*
X167132000Y-169418000D03*
X167132000Y-177038000D03*
D47*
X301294800Y-190233300D03*
X309968900Y-191846200D03*
X284734000Y-193040000D03*
X282638500Y-199707500D03*
X313436000Y-208280000D03*
X219964000Y-216154000D03*
X222250000Y-215011000D03*
X220980000Y-214884000D03*
X274828000Y-162078620D03*
X309395106Y-186616094D03*
X308102000Y-208788000D03*
X302260000Y-206629000D03*
X282956000Y-173482000D03*
X279654000Y-188214000D03*
X268986000Y-193294000D03*
X274828000Y-195326000D03*
X240538000Y-158496000D03*
X237045500Y-158432500D03*
X233997500Y-163322000D03*
X236918500Y-162306000D03*
X280289000Y-159893000D03*
X298704000Y-177292000D03*
X290703000Y-188341000D03*
X289306000Y-156972000D03*
X301625000Y-206248000D03*
X307848000Y-164592000D03*
X196596000Y-169164000D03*
X219964000Y-170688000D03*
X219964000Y-183388000D03*
X246532400Y-208508600D03*
X276860000Y-159004000D03*
X277876000Y-164338000D03*
X255524000Y-164846000D03*
X258826000Y-159258000D03*
X258064000Y-158496000D03*
X263652000Y-163576000D03*
X295554400Y-183261000D03*
X295173400Y-180949600D03*
X317500000Y-192278000D03*
X238506000Y-165354000D03*
X312623200Y-207264000D03*
X296926002Y-171195998D03*
X305816000Y-174498000D03*
X294970200Y-184835800D03*
X301193200Y-199948800D03*
X305816000Y-205486000D03*
X300609000Y-187172600D03*
X298246800Y-189560200D03*
X296291000Y-199593200D03*
X309245000Y-200355200D03*
X300431200Y-199593200D03*
X291084000Y-163576000D03*
X302006000Y-163576000D03*
X317855600Y-199632000D03*
X313131200Y-198120000D03*
X282956000Y-187452000D03*
X247186660Y-182924660D03*
X251206000Y-195580000D03*
X250952000Y-194310000D03*
X246634000Y-215646000D03*
X248158000Y-200914000D03*
X253238000Y-198882000D03*
X260604000Y-198120000D03*
X268224000Y-196342000D03*
X287782000Y-200152000D03*
X287782000Y-205740000D03*
X286512000Y-211582000D03*
X280162000Y-215138000D03*
X277876000Y-220472000D03*
X237490000Y-185166000D03*
X236728000Y-185166000D03*
X223520000Y-214884000D03*
X224409000Y-216154000D03*
X194310000Y-213360000D03*
X192786000Y-212344000D03*
X193294000Y-213360000D03*
X195326000Y-213360000D03*
X194818000Y-212344000D03*
X193802000Y-212344000D03*
X195834000Y-212344000D03*
X281559000Y-195834000D03*
X284734000Y-195834000D03*
X277876000Y-193294000D03*
X237998000Y-160020000D03*
X237236000Y-160020000D03*
X291528500Y-171919900D03*
X305308000Y-180340000D03*
X284734000Y-172974000D03*
X289306000Y-179324000D03*
X284734000Y-171958000D03*
X275844000Y-164084000D03*
X286512000Y-191262000D03*
X295198800Y-179222402D03*
X286893000Y-179324000D03*
D48*
X209550000Y-155956000D03*
D47*
X271526000Y-188722000D03*
X255778000Y-189738000D03*
X284175200Y-167208202D03*
X306070000Y-171704000D03*
X235585000Y-171831000D03*
X236982000Y-176276000D03*
X235966000Y-176276000D03*
X147828000Y-177800000D03*
X172212000Y-193548000D03*
X189738000Y-203962000D03*
X189738000Y-205232000D03*
X188976000Y-204724000D03*
X188976000Y-202946000D03*
X190754000Y-203454000D03*
X190754000Y-204724000D03*
X190246000Y-202692000D03*
X195072000Y-177292000D03*
X195580000Y-176784000D03*
X194564000Y-176784000D03*
X196088000Y-177292000D03*
X196596000Y-176784000D03*
X172212000Y-192532000D03*
X170942000Y-193548000D03*
X172212000Y-191516000D03*
X170942000Y-192532000D03*
X170942000Y-191516000D03*
X169672000Y-192532000D03*
X169672000Y-193548000D03*
X169672000Y-191516000D03*
X148590000Y-188214000D03*
X147066000Y-188468000D03*
X149352000Y-188976000D03*
X147828000Y-187706000D03*
X148082000Y-188976000D03*
X149352000Y-187960000D03*
X148590000Y-189738000D03*
X188976000Y-205994000D03*
X190754000Y-205740000D03*
X194056000Y-181356000D03*
X194056000Y-182372000D03*
X281940000Y-193852800D03*
X298678600Y-184772300D03*
X311023000Y-181610000D03*
X314934600Y-178739800D03*
X315595000Y-179679600D03*
X223139000Y-164084000D03*
X305308000Y-188722000D03*
X304038000Y-187452000D03*
X304673000Y-188087000D03*
X277876000Y-160274000D03*
X276860000Y-160274000D03*
X292862000Y-158750000D03*
X281940000Y-158750000D03*
X303530000Y-199136000D03*
X309372000Y-207899000D03*
X302133000Y-207518000D03*
X296545000Y-207518000D03*
X297206620Y-180873400D03*
X296341800Y-156210000D03*
X309118000Y-194881500D03*
X306781200Y-188137800D03*
X255016000Y-196596000D03*
X259334000Y-196850000D03*
D48*
X266192000Y-172212000D03*
X259502000Y-174330000D03*
X266192000Y-183388000D03*
X271272000Y-172212000D03*
X266192000Y-178054000D03*
D47*
X308102000Y-181610000D03*
X304038000Y-161290000D03*
X295402000Y-162687000D03*
X309880000Y-170053000D03*
X305841400Y-196862700D03*
X307200300Y-195668900D03*
X310070500Y-176237900D03*
X248158000Y-170434000D03*
X305612800Y-181635400D03*
X154686000Y-200152000D03*
X151384000Y-200152000D03*
X148844000Y-200152000D03*
X148844000Y-197866000D03*
X148844000Y-195834000D03*
X148844000Y-193294000D03*
X307594000Y-174752000D03*
X309829200Y-199199500D03*
X309245000Y-174625000D03*
X312762900Y-205460600D03*
X308444900Y-196456300D03*
X312750200Y-189826900D03*
X312242200Y-203073000D03*
X294005000Y-203962000D03*
X300685200Y-203657200D03*
X294817800Y-203250800D03*
X302412400Y-201371200D03*
X269240000Y-189738000D03*
X306374800Y-183781700D03*
X265684000Y-196342000D03*
X273050000Y-188976000D03*
X307060600Y-183095900D03*
X310896000Y-188214000D03*
X299466000Y-173799500D03*
X245109994Y-170942000D03*
X277876000Y-182372000D03*
X279984200Y-164820600D03*
X309232300Y-191350900D03*
X308724300Y-190538100D03*
X291211000Y-166624000D03*
X315442600Y-208432400D03*
X148844000Y-224536000D03*
X294894000Y-173609000D03*
X300355000Y-188036200D03*
X235712000Y-178308000D03*
X238252000Y-178308000D03*
X302514000Y-171196000D03*
X242316000Y-173228000D03*
X232029000Y-172212000D03*
X300990000Y-174752000D03*
X304800000Y-171450000D03*
X242824000Y-167894000D03*
X302704500Y-184873900D03*
X298805600Y-197815200D03*
X301091600Y-177317400D03*
X283819600Y-174879000D03*
X277812500Y-155257500D03*
X287515300Y-168351200D03*
X299415200Y-188112400D03*
X149352000Y-185420000D03*
X152908000Y-179070000D03*
X281432000Y-191262000D03*
X284861000Y-186944000D03*
X302641000Y-178181000D03*
X301879000Y-200710800D03*
X303022000Y-203708000D03*
X310896000Y-194081400D03*
X310896000Y-172720000D03*
X292989000Y-164719000D03*
X307632100Y-171259500D03*
X306705000Y-197497700D03*
X157226000Y-166116000D03*
X286512000Y-160782000D03*
X283210000Y-163830000D03*
X293395400Y-196621400D03*
X285483300Y-163385500D03*
X296595800Y-195491100D03*
X305409600Y-194068700D03*
X286588200Y-166827200D03*
X272732500Y-199771000D03*
X274320000Y-194310000D03*
X192278000Y-188468000D03*
X189230000Y-188468000D03*
X202438000Y-207518000D03*
X202438000Y-205232000D03*
X204724000Y-205232000D03*
X204724000Y-202692000D03*
X200152000Y-205486000D03*
X287528000Y-160274000D03*
X189992000Y-167640000D03*
X237109000Y-171958000D03*
X240538000Y-162179000D03*
X118745000Y-167182800D03*
X315137800Y-171602400D03*
D49*
X300603836Y-190500000D02*
X300870536Y-190233300D01*
X300870536Y-190233300D02*
X301294800Y-190233300D01*
X284734000Y-193040000D02*
X284226000Y-192532000D01*
X284226000Y-192532000D02*
X281686000Y-192532000D01*
X281686000Y-192532000D02*
X280670000Y-193548000D01*
X280670000Y-193548000D02*
X280670000Y-197739000D01*
X280670000Y-197739000D02*
X282638500Y-199707500D01*
D50*
X317500000Y-165608000D02*
X319151000Y-165608000D01*
X319151000Y-175641000D02*
X319151000Y-176911000D01*
X319786000Y-175006000D02*
X319151000Y-175641000D01*
X319786000Y-166243000D02*
X319786000Y-175006000D01*
X319151000Y-165608000D02*
X319786000Y-166243000D01*
D51*
X291540000Y-227000000D02*
X291540000Y-223722000D01*
X291540000Y-223722000D02*
X291084000Y-223266000D01*
X285540000Y-227000000D02*
X285540000Y-228009000D01*
X291540000Y-228499600D02*
X291540000Y-227000000D01*
X291033200Y-229006400D02*
X291540000Y-228499600D01*
X286537400Y-229006400D02*
X291033200Y-229006400D01*
X285540000Y-228009000D02*
X286537400Y-229006400D01*
X305816000Y-205486000D02*
X309372000Y-201930000D01*
X309372000Y-201930000D02*
X309372000Y-200482200D01*
X309372000Y-200482200D02*
X309245000Y-200355200D01*
X219964000Y-183388000D02*
X228600000Y-183388000D01*
X228600000Y-183388000D02*
X231140000Y-185928000D01*
X231140000Y-185928000D02*
X243078000Y-185928000D01*
X243078000Y-185928000D02*
X246081340Y-182924660D01*
X246081340Y-182924660D02*
X247186660Y-182924660D01*
D49*
X277876000Y-164338000D02*
X278384000Y-164338000D01*
X278384000Y-164338000D02*
X279400000Y-163322000D01*
X279400000Y-163322000D02*
X280924000Y-163322000D01*
X280924000Y-163322000D02*
X282448000Y-164846000D01*
X282448000Y-164846000D02*
X283972000Y-164846000D01*
X283972000Y-164846000D02*
X284226000Y-164592000D01*
X284226000Y-164592000D02*
X290068000Y-164592000D01*
X290068000Y-164592000D02*
X291084000Y-163576000D01*
X255778000Y-164592000D02*
X274320000Y-164592000D01*
X274320000Y-164592000D02*
X274828000Y-165100000D01*
X274828000Y-165100000D02*
X277114000Y-165100000D01*
X277114000Y-165100000D02*
X277876000Y-164338000D01*
X317855600Y-199632000D02*
X317855600Y-199644000D01*
D50*
X247186660Y-182924660D02*
X247142000Y-182880000D01*
D51*
X281559000Y-195834000D02*
X284734000Y-195834000D01*
D49*
X291947600Y-172339000D02*
X291528500Y-171919900D01*
X291947600Y-172339000D02*
X295148000Y-172339000D01*
X295148000Y-172339000D02*
X298577000Y-175768000D01*
X298577000Y-175768000D02*
X303911000Y-175768000D01*
X303911000Y-175768000D02*
X305308000Y-177165000D01*
X305308000Y-180340000D02*
X305308000Y-177165000D01*
D51*
X284734000Y-171958000D02*
X284734000Y-172974000D01*
X289306000Y-179324000D02*
X289306000Y-176530000D01*
X289306000Y-176530000D02*
X284734000Y-171958000D01*
X294898801Y-179522401D02*
X295198800Y-179222402D01*
X293624002Y-180797200D02*
X294898801Y-179522401D01*
X286893000Y-179324000D02*
X288366200Y-180797200D01*
X288366200Y-180797200D02*
X293624002Y-180797200D01*
X218186000Y-194564000D02*
X221996000Y-194564000D01*
X223266000Y-203594618D02*
X225565735Y-205894353D01*
X223266000Y-195834000D02*
X223266000Y-203594618D01*
X221996000Y-194564000D02*
X223266000Y-195834000D01*
X256032000Y-189484000D02*
X256540000Y-189484000D01*
X255778000Y-189738000D02*
X256032000Y-189484000D01*
D52*
X247396000Y-180594000D02*
X247650000Y-180594000D01*
X247650000Y-180594000D02*
X256540000Y-189484000D01*
D51*
X268224000Y-188722000D02*
X271526000Y-188722000D01*
X256540000Y-189484000D02*
X267462000Y-189484000D01*
X267462000Y-189484000D02*
X268224000Y-188722000D01*
X284599464Y-167208202D02*
X284175200Y-167208202D01*
X285064202Y-167208202D02*
X284599464Y-167208202D01*
X287274000Y-169418000D02*
X285064202Y-167208202D01*
X306070000Y-171279736D02*
X304208264Y-169418000D01*
X304208264Y-169418000D02*
X287274000Y-169418000D01*
X306070000Y-171704000D02*
X306070000Y-171279736D01*
D52*
X236982000Y-176276000D02*
X235966000Y-176276000D01*
X247396000Y-180594000D02*
X242824000Y-180594000D01*
X242824000Y-180594000D02*
X238506000Y-176276000D01*
X238506000Y-176276000D02*
X236982000Y-176276000D01*
D49*
X281940000Y-193852800D02*
X298856400Y-193852800D01*
X301854801Y-190854399D02*
X301854801Y-186996001D01*
X298856400Y-193852800D02*
X301854801Y-190854399D01*
X299631100Y-184772300D02*
X298678600Y-184772300D01*
X301854801Y-186996001D02*
X299631100Y-184772300D01*
X311023000Y-181610000D02*
X311264300Y-181851300D01*
X311264300Y-181851300D02*
X311023000Y-181610000D01*
X311023000Y-181610000D02*
X311023000Y-182092600D01*
D52*
X304673000Y-188087000D02*
X305028600Y-188087000D01*
X305028600Y-188087000D02*
X311023000Y-182092600D01*
X311023000Y-182092600D02*
X314375800Y-178739800D01*
X314510336Y-178739800D02*
X314934600Y-178739800D01*
X314375800Y-178739800D02*
X314510336Y-178739800D01*
X314934600Y-179019200D02*
X314934600Y-178739800D01*
X315595000Y-179679600D02*
X314934600Y-179019200D01*
D51*
X314198000Y-181864000D02*
X314198000Y-180839000D01*
X314198000Y-180839000D02*
X315357400Y-179679600D01*
X315357400Y-179679600D02*
X315595000Y-179679600D01*
X304673000Y-188087000D02*
X304673000Y-192151000D01*
X304673000Y-192151000D02*
X304038000Y-192786000D01*
X304038000Y-192786000D02*
X304038000Y-198628000D01*
X304038000Y-198628000D02*
X303530000Y-199136000D01*
D52*
X304673000Y-188087000D02*
X304038000Y-187452000D01*
X304673000Y-188087000D02*
X305308000Y-188722000D01*
D51*
X281940000Y-158750000D02*
X279400000Y-158750000D01*
X279400000Y-158750000D02*
X277876000Y-160274000D01*
X277876000Y-160274000D02*
X276860000Y-160274000D01*
X292862000Y-158750000D02*
X281940000Y-158750000D01*
X296545000Y-207518000D02*
X302133000Y-207518000D01*
X302133000Y-207518000D02*
X308991000Y-207518000D01*
X308991000Y-207518000D02*
X309372000Y-207899000D01*
D52*
X306781200Y-192544700D02*
X308818001Y-194581501D01*
X306781200Y-188137800D02*
X306781200Y-192544700D01*
X308818001Y-194581501D02*
X309118000Y-194881500D01*
D51*
X259502000Y-174330000D02*
X259588000Y-174244000D01*
X266192000Y-178054000D02*
X266192000Y-177800000D01*
D49*
X284683200Y-170561000D02*
X283718000Y-170561000D01*
X248158000Y-170180000D02*
X250317000Y-168021000D01*
X250317000Y-168021000D02*
X281178000Y-168021000D01*
X281178000Y-168021000D02*
X283718000Y-170561000D01*
X248158000Y-170180000D02*
X248158000Y-170434000D01*
X303911000Y-179933600D02*
X305312801Y-181335401D01*
X302082200Y-176517300D02*
X303911000Y-178346100D01*
X284683200Y-170561000D02*
X290639500Y-176517300D01*
X290639500Y-176517300D02*
X302082200Y-176517300D01*
X303911000Y-178346100D02*
X303911000Y-179933600D01*
X305312801Y-181335401D02*
X305612800Y-181635400D01*
X313771364Y-189826900D02*
X313174464Y-189826900D01*
X316738000Y-186860264D02*
X313771364Y-189826900D01*
X316738000Y-184404000D02*
X316738000Y-186860264D01*
X315468000Y-183134000D02*
X316738000Y-184404000D01*
X313174464Y-189826900D02*
X312750200Y-189826900D01*
X297357800Y-203657200D02*
X297053000Y-203962000D01*
X297053000Y-203962000D02*
X294005000Y-203962000D01*
X300685200Y-203657200D02*
X297357800Y-203657200D01*
X294843200Y-203225400D02*
X294817800Y-203250800D01*
X299237400Y-203225400D02*
X294843200Y-203225400D01*
X299593000Y-202869800D02*
X299237400Y-203225400D01*
X300913800Y-202869800D02*
X299593000Y-202869800D01*
X302412400Y-201371200D02*
X300913800Y-202869800D01*
D52*
X302006000Y-223012000D02*
X302006000Y-223139000D01*
X302006000Y-223139000D02*
X302514000Y-223647000D01*
X302514000Y-223647000D02*
X302514000Y-224790000D01*
X302514000Y-224790000D02*
X303276000Y-225552000D01*
D49*
X269748000Y-189992000D02*
X269494000Y-189992000D01*
X269494000Y-189992000D02*
X269240000Y-189738000D01*
X306374800Y-183781700D02*
X305944201Y-184212299D01*
X305944201Y-184212299D02*
X298324201Y-184212299D01*
X298324201Y-184212299D02*
X292798500Y-189738000D01*
X292798500Y-189738000D02*
X277586302Y-189738000D01*
X277586302Y-189738000D02*
X277332302Y-189992000D01*
X277332302Y-189992000D02*
X269748000Y-189992000D01*
X273304000Y-189230000D02*
X273050000Y-188976000D01*
X273304000Y-189230000D02*
X274574000Y-189230000D01*
X307060600Y-183095900D02*
X306158900Y-183095900D01*
X292430200Y-189230000D02*
X274574000Y-189230000D01*
X297929300Y-183730900D02*
X292430200Y-189230000D01*
X305523900Y-183730900D02*
X297929300Y-183730900D01*
X306158900Y-183095900D02*
X305523900Y-183730900D01*
X274574000Y-189230000D02*
X274535900Y-189230000D01*
D51*
X254508000Y-183896000D02*
X258826000Y-188214000D01*
X245158506Y-170990506D02*
X245110000Y-170942000D01*
X241759494Y-170990506D02*
X245158506Y-170990506D01*
X240792000Y-171958000D02*
X241759494Y-170990506D01*
X240792000Y-173736000D02*
X240792000Y-171958000D01*
X245110000Y-170942000D02*
X245109994Y-170942000D01*
X245364000Y-178308000D02*
X240792000Y-173736000D01*
X248920000Y-178308000D02*
X254508000Y-183896000D01*
X245364000Y-178308000D02*
X248920000Y-178308000D01*
X272796000Y-187452000D02*
X277876000Y-182372000D01*
X267462000Y-187452000D02*
X272796000Y-187452000D01*
X266700000Y-188214000D02*
X267462000Y-187452000D01*
X258826000Y-188214000D02*
X266700000Y-188214000D01*
X148844000Y-224536000D02*
X149860000Y-225552000D01*
X149860000Y-225552000D02*
X149860000Y-228092000D01*
X149860000Y-228092000D02*
X151892000Y-230124000D01*
X151892000Y-230124000D02*
X276733000Y-230124000D01*
X276733000Y-230124000D02*
X277876000Y-228981000D01*
X277876000Y-228981000D02*
X277876000Y-223393000D01*
X277876000Y-223393000D02*
X285623000Y-215646000D01*
X314071000Y-209804000D02*
X315442600Y-208432400D01*
X285623000Y-215646000D02*
X288696400Y-215646000D01*
X288696400Y-215646000D02*
X294538400Y-209804000D01*
X294538400Y-209804000D02*
X314071000Y-209804000D01*
X241554000Y-184023000D02*
X241427000Y-184023000D01*
X241427000Y-184023000D02*
X235712000Y-178308000D01*
X234950000Y-177292000D02*
X236220000Y-177292000D01*
X236220000Y-177292000D02*
X237236000Y-178308000D01*
X237236000Y-178308000D02*
X238252000Y-178308000D01*
X232791000Y-184150000D02*
X232791000Y-184023000D01*
X232791000Y-184023000D02*
X234442000Y-182372000D01*
X234442000Y-177800000D02*
X234950000Y-177292000D01*
X234442000Y-182372000D02*
X234442000Y-177800000D01*
D49*
X242316000Y-173228000D02*
X245364000Y-173228000D01*
X245364000Y-173228000D02*
X246634000Y-171958000D01*
X249707400Y-166598600D02*
X281838400Y-166598600D01*
X286740600Y-170180000D02*
X301498000Y-170180000D01*
X246634000Y-171958000D02*
X246634000Y-169672000D01*
X301498000Y-170180000D02*
X302514000Y-171196000D01*
X246634000Y-169672000D02*
X249707400Y-166598600D01*
X281838400Y-166598600D02*
X283895800Y-168656000D01*
X283895800Y-168656000D02*
X285216600Y-168656000D01*
X285216600Y-168656000D02*
X286740600Y-170180000D01*
X285242000Y-169926000D02*
X285623000Y-169926000D01*
X232328999Y-171912001D02*
X232029000Y-172212000D01*
X234569000Y-169672000D02*
X232328999Y-171912001D01*
X245364000Y-169672000D02*
X234569000Y-169672000D01*
X246049800Y-170357800D02*
X245364000Y-169672000D01*
X245364000Y-171958000D02*
X246049800Y-171272200D01*
X241554000Y-173482000D02*
X241554000Y-172694600D01*
X241554000Y-172694600D02*
X242290600Y-171958000D01*
X242290600Y-171958000D02*
X245364000Y-171958000D01*
X250037600Y-167284400D02*
X247142000Y-170180000D01*
X247142000Y-170180000D02*
X247142000Y-172720000D01*
X247142000Y-172720000D02*
X245592600Y-174269400D01*
X245592600Y-174269400D02*
X242341400Y-174269400D01*
X242341400Y-174269400D02*
X241554000Y-173482000D01*
X281330400Y-167284400D02*
X250037600Y-167284400D01*
X285242000Y-169926000D02*
X283972000Y-169926000D01*
X283972000Y-169926000D02*
X281330400Y-167284400D01*
X246049800Y-171272200D02*
X246049800Y-170357800D01*
X300990000Y-173863000D02*
X300990000Y-174752000D01*
X299339000Y-172212000D02*
X300990000Y-173863000D01*
X296418000Y-172212000D02*
X299339000Y-172212000D01*
X295021000Y-170815000D02*
X296418000Y-172212000D01*
X286512000Y-170815000D02*
X295021000Y-170815000D01*
X285623000Y-169926000D02*
X286512000Y-170815000D01*
X300990000Y-174752000D02*
X304292000Y-171450000D01*
X304292000Y-171450000D02*
X304800000Y-171450000D01*
X242824000Y-167894000D02*
X242824000Y-167843200D01*
X302742600Y-184912000D02*
X302704500Y-184873900D01*
X242824000Y-167843200D02*
X244703600Y-165963600D01*
X314198000Y-177038000D02*
X306324000Y-184912000D01*
X244703600Y-165963600D02*
X283108400Y-165963600D01*
X299720000Y-163576000D02*
X302310800Y-166166800D01*
X283108400Y-165963600D02*
X283464000Y-165608000D01*
X283464000Y-165608000D02*
X290449000Y-165608000D01*
X290449000Y-165608000D02*
X292481000Y-163576000D01*
X292481000Y-163576000D02*
X299720000Y-163576000D01*
X302310800Y-166166800D02*
X311708800Y-166166800D01*
X311708800Y-166166800D02*
X314198000Y-168656000D01*
X314198000Y-168656000D02*
X314198000Y-177038000D01*
X306324000Y-184912000D02*
X302742600Y-184912000D01*
X302704500Y-184873900D02*
X302704500Y-193916300D01*
X302704500Y-193916300D02*
X298805600Y-197815200D01*
X301091600Y-177317400D02*
X300939200Y-177317400D01*
X300939200Y-177317400D02*
X299948600Y-178308000D01*
X299948600Y-178308000D02*
X292989000Y-178308000D01*
X292989000Y-178308000D02*
X291287200Y-180009800D01*
X291287200Y-180009800D02*
X288798000Y-180009800D01*
X288798000Y-180009800D02*
X283819600Y-175031400D01*
X283819600Y-175031400D02*
X283819600Y-174879000D01*
D51*
X149352000Y-182626000D02*
X149352000Y-185420000D01*
X152908000Y-179070000D02*
X149352000Y-182626000D01*
X250571000Y-191262000D02*
X250520200Y-191262000D01*
X243255800Y-203530200D02*
X242620800Y-204165200D01*
X235839000Y-210947000D02*
X242620800Y-204165200D01*
X281432000Y-191262000D02*
X250571000Y-191262000D01*
X243255800Y-203377800D02*
X243255800Y-203530200D01*
X223012000Y-213614000D02*
X225679000Y-210947000D01*
X225679000Y-210947000D02*
X235839000Y-210947000D01*
X213360000Y-213614000D02*
X207772000Y-219202000D01*
X213360000Y-213614000D02*
X223012000Y-213614000D01*
X243255800Y-201295000D02*
X243255800Y-203377800D01*
X246024400Y-198526400D02*
X243255800Y-201295000D01*
X246024400Y-195757800D02*
X246024400Y-198526400D01*
X250520200Y-191262000D02*
X246024400Y-195757800D01*
D49*
X302641000Y-178181000D02*
X302641000Y-178257200D01*
X295109900Y-185788300D02*
X301701200Y-179197000D01*
X289699700Y-185788300D02*
X295109900Y-185788300D01*
X288544000Y-186944000D02*
X289699700Y-185788300D01*
X284861000Y-186944000D02*
X288544000Y-186944000D01*
X302641000Y-178257200D02*
X301701200Y-179197000D01*
X302183800Y-200406000D02*
X301879000Y-200710800D01*
X302768000Y-200406000D02*
X302183800Y-200406000D01*
X303276000Y-200914000D02*
X302768000Y-200406000D01*
X303276000Y-203454000D02*
X303276000Y-200914000D01*
X303022000Y-203708000D02*
X303276000Y-203454000D01*
X310896000Y-194081400D02*
X310730900Y-194246500D01*
X310730900Y-194246500D02*
X310730900Y-197370700D01*
X310730900Y-197370700D02*
X302742600Y-205359000D01*
X302742600Y-205359000D02*
X295236900Y-205359000D01*
X295236900Y-205359000D02*
X292976300Y-207619600D01*
X292976300Y-207619600D02*
X292976300Y-210070700D01*
X292976300Y-210070700D02*
X288213800Y-214833200D01*
X275844000Y-228727000D02*
X250727000Y-228727000D01*
X250727000Y-228727000D02*
X249000000Y-227000000D01*
X288213800Y-214833200D02*
X285292800Y-214833200D01*
X285292800Y-214833200D02*
X276580600Y-223545400D01*
X276580600Y-223545400D02*
X276580600Y-227990400D01*
X276580600Y-227990400D02*
X275844000Y-228727000D01*
X292989000Y-164719000D02*
X293370000Y-164338000D01*
X293370000Y-164338000D02*
X299466000Y-164338000D01*
X299466000Y-164338000D02*
X302107600Y-166979600D01*
X302107600Y-166979600D02*
X305663600Y-166979600D01*
X305663600Y-166979600D02*
X307632100Y-168948100D01*
X307632100Y-168948100D02*
X307632100Y-171259500D01*
X278409400Y-161518600D02*
X229387400Y-161518600D01*
X229387400Y-161518600D02*
X224790000Y-166116000D01*
X279146000Y-160782000D02*
X278409400Y-161518600D01*
X286512000Y-160782000D02*
X279146000Y-160782000D01*
X224790000Y-166116000D02*
X157226000Y-166116000D01*
D51*
X272732500Y-199771000D02*
X272732500Y-195897500D01*
X272732500Y-195897500D02*
X274320000Y-194310000D01*
X189230000Y-188468000D02*
X192278000Y-188468000D01*
D49*
X287528000Y-160274000D02*
X287528000Y-161798000D01*
X287528000Y-161798000D02*
X286867600Y-162458400D01*
X286867600Y-162458400D02*
X275945600Y-162458400D01*
X275945600Y-162458400D02*
X275590000Y-162814000D01*
X275590000Y-162814000D02*
X258572000Y-162814000D01*
X228600000Y-164084000D02*
X225044000Y-167640000D01*
X258572000Y-162814000D02*
X258064000Y-163322000D01*
X258064000Y-163322000D02*
X241300000Y-163322000D01*
X241300000Y-163322000D02*
X240538000Y-164084000D01*
X225044000Y-167640000D02*
X189992000Y-167640000D01*
X240538000Y-164084000D02*
X228600000Y-164084000D01*
D51*
X281432000Y-222758000D02*
X279654000Y-224536000D01*
X145000000Y-228566000D02*
X145000000Y-227000000D01*
X277622000Y-231648000D02*
X148082000Y-231648000D01*
X279654000Y-229616000D02*
X277622000Y-231648000D01*
X279654000Y-224536000D02*
X279654000Y-229616000D01*
X148082000Y-231648000D02*
X145000000Y-228566000D01*
X145000000Y-227000000D02*
X145000000Y-227550000D01*
D49*
X240334800Y-160985200D02*
X228981000Y-160985200D01*
X157048200Y-165176200D02*
X153968799Y-168255601D01*
X127406400Y-168427400D02*
X126085600Y-169748200D01*
X228981000Y-160985200D02*
X224459800Y-165506400D01*
X158115000Y-165506400D02*
X157784800Y-165176200D01*
X157784800Y-165176200D02*
X157048200Y-165176200D01*
X224459800Y-165506400D02*
X158115000Y-165506400D01*
X153968799Y-168255601D02*
X136747599Y-168255601D01*
X136747599Y-168255601D02*
X136575800Y-168427400D01*
X126085600Y-169748200D02*
X121310400Y-169748200D01*
X136575800Y-168427400D02*
X127406400Y-168427400D01*
X121310400Y-169748200D02*
X118745000Y-167182800D01*
X315137800Y-171602400D02*
X315036200Y-171500800D01*
X315036200Y-171500800D02*
X315036200Y-168503600D01*
X315036200Y-168503600D02*
X311988200Y-165455600D01*
X311988200Y-165455600D02*
X302666400Y-165455600D01*
X302666400Y-165455600D02*
X295071800Y-157861000D01*
X295071800Y-157861000D02*
X275640800Y-157861000D01*
X275640800Y-157861000D02*
X272516600Y-160985200D01*
X272516600Y-160985200D02*
X240334800Y-160985200D01*
X240334800Y-160985200D02*
X239725200Y-160375600D01*
D53*
G36*
X287927806Y-224704974D02*
X287581191Y-224770194D01*
X287104697Y-225076809D01*
X286785034Y-225544651D01*
X286681499Y-226055920D01*
X286638072Y-226043349D01*
X285681421Y-227000000D01*
X286638072Y-227956651D01*
X286680900Y-227944254D01*
X286770194Y-228418809D01*
X287076809Y-228895303D01*
X287544651Y-229214966D01*
X288100000Y-229327427D01*
X289900000Y-229327427D01*
X290418809Y-229229806D01*
X290895303Y-228923191D01*
X291142130Y-228561948D01*
X291257123Y-228606633D01*
X291893488Y-228592588D01*
X292416176Y-228376084D01*
X292462000Y-228217779D01*
X292462000Y-231756000D01*
X279847452Y-231756000D01*
X280820726Y-230782726D01*
X280922106Y-230631000D01*
X281178401Y-230247428D01*
X281304000Y-229616000D01*
X281304000Y-229050536D01*
X281544651Y-229214966D01*
X282100000Y-229327427D01*
X283900000Y-229327427D01*
X284418809Y-229229806D01*
X284895303Y-228923191D01*
X285142130Y-228561948D01*
X285257123Y-228606633D01*
X285893488Y-228592588D01*
X286416176Y-228376084D01*
X286496651Y-228098072D01*
X285540000Y-227141421D01*
X285525858Y-227155564D01*
X285384437Y-227014143D01*
X285398579Y-227000000D01*
X285384437Y-226985858D01*
X285525858Y-226844437D01*
X285540000Y-226858579D01*
X286496651Y-225901928D01*
X286416176Y-225623916D01*
X285822877Y-225393367D01*
X285186512Y-225407412D01*
X285132404Y-225429824D01*
X284923191Y-225104697D01*
X284649075Y-224917401D01*
X284833038Y-224880809D01*
X285242000Y-224607549D01*
X285650962Y-224880809D01*
X286512000Y-225052080D01*
X287373038Y-224880809D01*
X287782000Y-224607549D01*
X287927806Y-224704974D01*
X287927806Y-224704974D01*
G37*
X287927806Y-224704974D02*
X287581191Y-224770194D01*
X287104697Y-225076809D01*
X286785034Y-225544651D01*
X286681499Y-226055920D01*
X286638072Y-226043349D01*
X285681421Y-227000000D01*
X286638072Y-227956651D01*
X286680900Y-227944254D01*
X286770194Y-228418809D01*
X287076809Y-228895303D01*
X287544651Y-229214966D01*
X288100000Y-229327427D01*
X289900000Y-229327427D01*
X290418809Y-229229806D01*
X290895303Y-228923191D01*
X291142130Y-228561948D01*
X291257123Y-228606633D01*
X291893488Y-228592588D01*
X292416176Y-228376084D01*
X292462000Y-228217779D01*
X292462000Y-231756000D01*
X279847452Y-231756000D01*
X280820726Y-230782726D01*
X280922106Y-230631000D01*
X281178401Y-230247428D01*
X281304000Y-229616000D01*
X281304000Y-229050536D01*
X281544651Y-229214966D01*
X282100000Y-229327427D01*
X283900000Y-229327427D01*
X284418809Y-229229806D01*
X284895303Y-228923191D01*
X285142130Y-228561948D01*
X285257123Y-228606633D01*
X285893488Y-228592588D01*
X286416176Y-228376084D01*
X286496651Y-228098072D01*
X285540000Y-227141421D01*
X285525858Y-227155564D01*
X285384437Y-227014143D01*
X285398579Y-227000000D01*
X285384437Y-226985858D01*
X285525858Y-226844437D01*
X285540000Y-226858579D01*
X286496651Y-225901928D01*
X286416176Y-225623916D01*
X285822877Y-225393367D01*
X285186512Y-225407412D01*
X285132404Y-225429824D01*
X284923191Y-225104697D01*
X284649075Y-224917401D01*
X284833038Y-224880809D01*
X285242000Y-224607549D01*
X285650962Y-224880809D01*
X286512000Y-225052080D01*
X287373038Y-224880809D01*
X287782000Y-224607549D01*
X287927806Y-224704974D01*
G36*
X272879650Y-193345770D02*
X272829143Y-193467405D01*
X271565774Y-194730774D01*
X271208099Y-195266072D01*
X271082500Y-195897500D01*
X271082500Y-199311665D01*
X271032796Y-199431366D01*
X271032206Y-200107667D01*
X271290470Y-200732715D01*
X271768270Y-201211350D01*
X272392866Y-201470704D01*
X273069167Y-201471294D01*
X273694215Y-201213030D01*
X274172850Y-200735230D01*
X274432204Y-200110634D01*
X274432794Y-199434333D01*
X274382500Y-199312612D01*
X274382500Y-196580952D01*
X275161927Y-195801525D01*
X275281715Y-195752030D01*
X275760350Y-195274230D01*
X276019704Y-194649634D01*
X276020294Y-193973333D01*
X275762030Y-193348285D01*
X275326506Y-192912000D01*
X276193888Y-192912000D01*
X276176296Y-192954366D01*
X276175706Y-193630667D01*
X276433970Y-194255715D01*
X276911770Y-194734350D01*
X277536366Y-194993704D01*
X278212667Y-194994294D01*
X278837715Y-194736030D01*
X279180000Y-194394342D01*
X279180000Y-197739000D01*
X279293419Y-198309199D01*
X279616411Y-198792589D01*
X280987648Y-200163826D01*
X281196470Y-200669215D01*
X281674270Y-201147850D01*
X282298866Y-201407204D01*
X282975167Y-201407794D01*
X283600215Y-201149530D01*
X284078850Y-200671730D01*
X284338204Y-200047134D01*
X284338794Y-199370833D01*
X284080530Y-198745785D01*
X283602730Y-198267150D01*
X283094146Y-198055968D01*
X282160000Y-197121822D01*
X282160000Y-196876762D01*
X288772000Y-196876762D01*
X288772000Y-197591000D01*
X288947000Y-197766000D01*
X290222000Y-197766000D01*
X290222000Y-196491000D01*
X290047000Y-196316000D01*
X289332761Y-196316000D01*
X289075482Y-196422569D01*
X288878568Y-196619482D01*
X288772000Y-196876762D01*
X282160000Y-196876762D01*
X282160000Y-195552992D01*
X282276667Y-195553094D01*
X282785618Y-195342800D01*
X290941402Y-195342800D01*
X290969514Y-195481622D01*
X291062696Y-195616185D01*
X291715071Y-196235105D01*
X291695696Y-196281766D01*
X291695462Y-196549513D01*
X291568518Y-196422569D01*
X291311239Y-196316000D01*
X290597000Y-196316000D01*
X290422000Y-196491000D01*
X290422000Y-197766000D01*
X291697000Y-197766000D01*
X291872000Y-197591000D01*
X291872000Y-197386184D01*
X291953370Y-197583115D01*
X292431170Y-198061750D01*
X293055766Y-198321104D01*
X293732067Y-198321694D01*
X293859116Y-198269199D01*
X297512679Y-201735400D01*
X295601289Y-201735400D01*
X295157434Y-201551096D01*
X294481133Y-201550506D01*
X293856085Y-201808770D01*
X293377450Y-202286570D01*
X293329670Y-202401639D01*
X293043285Y-202519970D01*
X292615973Y-202946536D01*
X292616080Y-202946000D01*
X292444809Y-202084962D01*
X292171549Y-201676000D01*
X292444809Y-201267038D01*
X292616080Y-200406000D01*
X292444809Y-199544962D01*
X291957070Y-198815010D01*
X291872000Y-198758168D01*
X291872000Y-198141000D01*
X291697000Y-197966000D01*
X290422000Y-197966000D01*
X290422000Y-197986000D01*
X290222000Y-197986000D01*
X290222000Y-197966000D01*
X288947000Y-197966000D01*
X288772000Y-198141000D01*
X288772000Y-198758168D01*
X288686930Y-198815010D01*
X288199191Y-199544962D01*
X288027920Y-200406000D01*
X288199191Y-201267038D01*
X288472451Y-201676000D01*
X288199191Y-202084962D01*
X288027920Y-202946000D01*
X288199191Y-203807038D01*
X288472451Y-204216000D01*
X288199191Y-204624962D01*
X288027920Y-205486000D01*
X288199191Y-206347038D01*
X288472451Y-206756000D01*
X288199191Y-207164962D01*
X288027920Y-208026000D01*
X288199191Y-208887038D01*
X288472451Y-209296000D01*
X288199191Y-209704962D01*
X288027920Y-210566000D01*
X288199191Y-211427038D01*
X288686930Y-212156990D01*
X288744419Y-212195403D01*
X287596622Y-213343200D01*
X285292800Y-213343200D01*
X284722602Y-213456619D01*
X284289382Y-213746088D01*
X284239211Y-213779611D01*
X275527011Y-222491811D01*
X275204019Y-222975201D01*
X275121625Y-223389427D01*
X275090600Y-223545400D01*
X275090600Y-224014024D01*
X274972187Y-223949235D01*
X273221421Y-225700000D01*
X273235564Y-225714142D01*
X273094142Y-225855564D01*
X273080000Y-225841421D01*
X273065858Y-225855564D01*
X272924436Y-225714142D01*
X272938579Y-225700000D01*
X271187813Y-223949235D01*
X270795552Y-224163858D01*
X270381589Y-225155009D01*
X270378434Y-226229132D01*
X270786568Y-227222698D01*
X270795552Y-227236142D01*
X270797120Y-227237000D01*
X265202880Y-227237000D01*
X265204448Y-227236142D01*
X265618411Y-226244991D01*
X265621566Y-225170868D01*
X265213432Y-224177302D01*
X265204448Y-224163858D01*
X264812187Y-223949235D01*
X263061421Y-225700000D01*
X263075564Y-225714142D01*
X262934142Y-225855564D01*
X262920000Y-225841421D01*
X262905858Y-225855564D01*
X262764436Y-225714142D01*
X262778579Y-225700000D01*
X261027813Y-223949235D01*
X260635552Y-224163858D01*
X260221589Y-225155009D01*
X260218434Y-226229132D01*
X260626568Y-227222698D01*
X260635552Y-227236142D01*
X260637120Y-227237000D01*
X255056149Y-227237000D01*
X255042138Y-226654503D01*
X254894473Y-226298008D01*
X255135442Y-226294334D01*
X255746237Y-226041333D01*
X255851142Y-225742563D01*
X254750000Y-224641421D01*
X254735858Y-224655564D01*
X254594437Y-224514143D01*
X254608579Y-224500000D01*
X254891421Y-224500000D01*
X255992563Y-225601142D01*
X256291333Y-225496237D01*
X256555250Y-224830560D01*
X256544334Y-224114558D01*
X256417276Y-223807813D01*
X261169235Y-223807813D01*
X262920000Y-225558579D01*
X264670765Y-223807813D01*
X271329235Y-223807813D01*
X273080000Y-225558579D01*
X274830765Y-223807813D01*
X274616142Y-223415552D01*
X273624991Y-223001589D01*
X272550868Y-222998434D01*
X271557302Y-223406568D01*
X271543858Y-223415552D01*
X271329235Y-223807813D01*
X264670765Y-223807813D01*
X264456142Y-223415552D01*
X263464991Y-223001589D01*
X262390868Y-222998434D01*
X261397302Y-223406568D01*
X261383858Y-223415552D01*
X261169235Y-223807813D01*
X256417276Y-223807813D01*
X256291333Y-223503763D01*
X255992563Y-223398858D01*
X254891421Y-224500000D01*
X254608579Y-224500000D01*
X253507437Y-223398858D01*
X253208667Y-223503763D01*
X252944750Y-224169440D01*
X252955666Y-224885442D01*
X253192394Y-225456951D01*
X253154503Y-225457862D01*
X252653847Y-225665240D01*
X252579486Y-225938064D01*
X253500000Y-226858579D01*
X253514142Y-226844436D01*
X253655564Y-226985858D01*
X253641421Y-227000000D01*
X253655564Y-227014143D01*
X253514143Y-227155564D01*
X253500000Y-227141421D01*
X253485858Y-227155564D01*
X253344437Y-227014143D01*
X253358579Y-227000000D01*
X252438064Y-226079486D01*
X252165240Y-226153847D01*
X251943034Y-226729047D01*
X251955252Y-227237000D01*
X251344178Y-227237000D01*
X251249876Y-227142698D01*
X251250390Y-226554411D01*
X250908569Y-225727142D01*
X250276187Y-225093655D01*
X249554694Y-224794065D01*
X249544334Y-224114558D01*
X249291333Y-223503763D01*
X248992563Y-223398858D01*
X247891421Y-224500000D01*
X247905564Y-224514143D01*
X247764143Y-224655564D01*
X247750000Y-224641421D01*
X247735858Y-224655564D01*
X247594437Y-224514143D01*
X247608579Y-224500000D01*
X247594437Y-224485858D01*
X247735858Y-224344437D01*
X247750000Y-224358579D01*
X248851142Y-223257437D01*
X253648858Y-223257437D01*
X254750000Y-224358579D01*
X255851142Y-223257437D01*
X255746237Y-222958667D01*
X255080560Y-222694750D01*
X254364558Y-222705666D01*
X253753763Y-222958667D01*
X253648858Y-223257437D01*
X248851142Y-223257437D01*
X248746237Y-222958667D01*
X248080560Y-222694750D01*
X247364558Y-222705666D01*
X247288000Y-222737378D01*
X247288000Y-221243825D01*
X264849455Y-221243825D01*
X265328003Y-222402001D01*
X266213339Y-223288883D01*
X267370677Y-223769452D01*
X268623825Y-223770545D01*
X269782001Y-223291997D01*
X270668883Y-222406661D01*
X270811640Y-222062863D01*
X270869513Y-222061218D01*
X271326094Y-221872096D01*
X271388221Y-221609642D01*
X271113789Y-221335210D01*
X271149452Y-221249323D01*
X271149593Y-221088172D01*
X271529642Y-221468221D01*
X271792096Y-221406094D01*
X271997612Y-220867100D01*
X271981218Y-220290487D01*
X271792096Y-219833906D01*
X271529642Y-219771779D01*
X271150410Y-220151011D01*
X271150545Y-219996175D01*
X271113079Y-219905500D01*
X271388221Y-219630358D01*
X271326094Y-219367904D01*
X270809572Y-219170957D01*
X270671997Y-218837999D01*
X269786661Y-217951117D01*
X268629323Y-217470548D01*
X267376175Y-217469455D01*
X266217999Y-217948003D01*
X265331117Y-218833339D01*
X264850548Y-219990677D01*
X264849455Y-221243825D01*
X247288000Y-221243825D01*
X247288000Y-217170000D01*
X247256486Y-217014378D01*
X247170843Y-216887157D01*
X245510000Y-215226314D01*
X245510000Y-212608991D01*
X247826101Y-212608991D01*
X248175518Y-213454643D01*
X248821953Y-214102208D01*
X249666995Y-214453100D01*
X250581991Y-214453899D01*
X251427643Y-214104482D01*
X252075208Y-213458047D01*
X252160943Y-213251572D01*
X254249849Y-213251572D01*
X254330324Y-213529584D01*
X254923623Y-213760133D01*
X255559988Y-213746088D01*
X256082676Y-213529584D01*
X256163151Y-213251572D01*
X255206500Y-212294921D01*
X254249849Y-213251572D01*
X252160943Y-213251572D01*
X252426100Y-212613005D01*
X252426748Y-211870623D01*
X253599867Y-211870623D01*
X253613912Y-212506988D01*
X253830416Y-213029676D01*
X254108428Y-213110151D01*
X255065079Y-212153500D01*
X255347921Y-212153500D01*
X256304572Y-213110151D01*
X256582584Y-213029676D01*
X256746057Y-212608991D01*
X257986101Y-212608991D01*
X258335518Y-213454643D01*
X258981953Y-214102208D01*
X259826995Y-214453100D01*
X260741991Y-214453899D01*
X261587643Y-214104482D01*
X262117679Y-213575371D01*
X262186832Y-213942887D01*
X262712458Y-214759734D01*
X263514473Y-215307727D01*
X264466500Y-215500518D01*
X266266500Y-215500518D01*
X267155887Y-215333168D01*
X267972734Y-214807542D01*
X268520727Y-214005527D01*
X268713518Y-213053500D01*
X268713518Y-211253500D01*
X268546168Y-210364113D01*
X268020542Y-209547266D01*
X267218527Y-208999273D01*
X266266500Y-208806482D01*
X264466500Y-208806482D01*
X263577113Y-208973832D01*
X262760266Y-209499458D01*
X262212273Y-210301473D01*
X262123781Y-210738457D01*
X261591047Y-210204792D01*
X260746005Y-209853900D01*
X259831009Y-209853101D01*
X258985357Y-210202518D01*
X258337792Y-210848953D01*
X257986900Y-211693995D01*
X257986101Y-212608991D01*
X256746057Y-212608991D01*
X256813133Y-212436377D01*
X256799088Y-211800012D01*
X256582584Y-211277324D01*
X256304572Y-211196849D01*
X255347921Y-212153500D01*
X255065079Y-212153500D01*
X254108428Y-211196849D01*
X253830416Y-211277324D01*
X253599867Y-211870623D01*
X252426748Y-211870623D01*
X252426899Y-211698009D01*
X252161390Y-211055428D01*
X254249849Y-211055428D01*
X255206500Y-212012079D01*
X256163151Y-211055428D01*
X256082676Y-210777416D01*
X255489377Y-210546867D01*
X254853012Y-210560912D01*
X254330324Y-210777416D01*
X254249849Y-211055428D01*
X252161390Y-211055428D01*
X252077482Y-210852357D01*
X251431047Y-210204792D01*
X250586005Y-209853900D01*
X249671009Y-209853101D01*
X248825357Y-210202518D01*
X248177792Y-210848953D01*
X247826900Y-211693995D01*
X247826101Y-212608991D01*
X245510000Y-212608991D01*
X245510000Y-205814491D01*
X247826101Y-205814491D01*
X248175518Y-206660143D01*
X248821953Y-207307708D01*
X249666995Y-207658600D01*
X250581991Y-207659399D01*
X251427643Y-207309982D01*
X252075208Y-206663547D01*
X252160943Y-206457072D01*
X254249849Y-206457072D01*
X254330324Y-206735084D01*
X254923623Y-206965633D01*
X255559988Y-206951588D01*
X256082676Y-206735084D01*
X256163151Y-206457072D01*
X255206500Y-205500421D01*
X254249849Y-206457072D01*
X252160943Y-206457072D01*
X252426100Y-205818505D01*
X252426748Y-205076123D01*
X253599867Y-205076123D01*
X253613912Y-205712488D01*
X253830416Y-206235176D01*
X254108428Y-206315651D01*
X255065079Y-205359000D01*
X255347921Y-205359000D01*
X256304572Y-206315651D01*
X256582584Y-206235176D01*
X256746057Y-205814491D01*
X257986101Y-205814491D01*
X258335518Y-206660143D01*
X258981953Y-207307708D01*
X259826995Y-207658600D01*
X260741991Y-207659399D01*
X261587643Y-207309982D01*
X262117679Y-206780871D01*
X262186832Y-207148387D01*
X262712458Y-207965234D01*
X263514473Y-208513227D01*
X264466500Y-208706018D01*
X266266500Y-208706018D01*
X267155887Y-208538668D01*
X267972734Y-208013042D01*
X268520727Y-207211027D01*
X268713518Y-206259000D01*
X268713518Y-204459000D01*
X268546168Y-203569613D01*
X268020542Y-202752766D01*
X267218527Y-202204773D01*
X266266500Y-202011982D01*
X264466500Y-202011982D01*
X263577113Y-202179332D01*
X262760266Y-202704958D01*
X262212273Y-203506973D01*
X262123781Y-203943957D01*
X261591047Y-203410292D01*
X260746005Y-203059400D01*
X259831009Y-203058601D01*
X258985357Y-203408018D01*
X258337792Y-204054453D01*
X257986900Y-204899495D01*
X257986101Y-205814491D01*
X256746057Y-205814491D01*
X256813133Y-205641877D01*
X256799088Y-205005512D01*
X256582584Y-204482824D01*
X256304572Y-204402349D01*
X255347921Y-205359000D01*
X255065079Y-205359000D01*
X254108428Y-204402349D01*
X253830416Y-204482824D01*
X253599867Y-205076123D01*
X252426748Y-205076123D01*
X252426899Y-204903509D01*
X252161390Y-204260928D01*
X254249849Y-204260928D01*
X255206500Y-205217579D01*
X256163151Y-204260928D01*
X256082676Y-203982916D01*
X255489377Y-203752367D01*
X254853012Y-203766412D01*
X254330324Y-203982916D01*
X254249849Y-204260928D01*
X252161390Y-204260928D01*
X252077482Y-204057857D01*
X251431047Y-203410292D01*
X250586005Y-203059400D01*
X249671009Y-203058601D01*
X248825357Y-203408018D01*
X248177792Y-204054453D01*
X247826900Y-204899495D01*
X247826101Y-205814491D01*
X245510000Y-205814491D01*
X245510000Y-203365686D01*
X250377194Y-198498492D01*
X250923123Y-198710633D01*
X251559488Y-198696588D01*
X252082176Y-198480084D01*
X252162651Y-198202072D01*
X251206000Y-197245421D01*
X251191858Y-197259564D01*
X251050437Y-197118143D01*
X251064579Y-197104000D01*
X251347421Y-197104000D01*
X252304072Y-198060651D01*
X252582084Y-197980176D01*
X252812633Y-197386877D01*
X252802609Y-196932667D01*
X253315706Y-196932667D01*
X253573970Y-197557715D01*
X254051770Y-198036350D01*
X254676366Y-198295704D01*
X255352667Y-198296294D01*
X255977715Y-198038030D01*
X256456350Y-197560230D01*
X256611466Y-197186667D01*
X257633706Y-197186667D01*
X257891970Y-197811715D01*
X258369770Y-198290350D01*
X258994366Y-198549704D01*
X259670667Y-198550294D01*
X260295715Y-198292030D01*
X260774350Y-197814230D01*
X261033704Y-197189634D01*
X261034149Y-196678667D01*
X263983706Y-196678667D01*
X264241970Y-197303715D01*
X264719770Y-197782350D01*
X265344366Y-198041704D01*
X266020667Y-198042294D01*
X266645715Y-197784030D01*
X267124350Y-197306230D01*
X267383704Y-196681634D01*
X267384294Y-196005333D01*
X267126030Y-195380285D01*
X266648230Y-194901650D01*
X266023634Y-194642296D01*
X265347333Y-194641706D01*
X264722285Y-194899970D01*
X264243650Y-195377770D01*
X263984296Y-196002366D01*
X263983706Y-196678667D01*
X261034149Y-196678667D01*
X261034294Y-196513333D01*
X260776030Y-195888285D01*
X260298230Y-195409650D01*
X259673634Y-195150296D01*
X258997333Y-195149706D01*
X258372285Y-195407970D01*
X257893650Y-195885770D01*
X257634296Y-196510366D01*
X257633706Y-197186667D01*
X256611466Y-197186667D01*
X256715704Y-196935634D01*
X256716294Y-196259333D01*
X256458030Y-195634285D01*
X255980230Y-195155650D01*
X255355634Y-194896296D01*
X254679333Y-194895706D01*
X254054285Y-195153970D01*
X253575650Y-195631770D01*
X253316296Y-196256366D01*
X253315706Y-196932667D01*
X252802609Y-196932667D01*
X252798588Y-196750512D01*
X252582084Y-196227824D01*
X252304072Y-196147349D01*
X251347421Y-197104000D01*
X251064579Y-197104000D01*
X251050437Y-197089858D01*
X251191858Y-196948437D01*
X251206000Y-196962579D01*
X252162651Y-196005928D01*
X252082176Y-195727916D01*
X251488877Y-195497367D01*
X250852512Y-195511412D01*
X250590000Y-195620148D01*
X250590000Y-193525652D01*
X251203652Y-192912000D01*
X273314178Y-192912000D01*
X272879650Y-193345770D01*
X272879650Y-193345770D01*
G37*
X272879650Y-193345770D02*
X272829143Y-193467405D01*
X271565774Y-194730774D01*
X271208099Y-195266072D01*
X271082500Y-195897500D01*
X271082500Y-199311665D01*
X271032796Y-199431366D01*
X271032206Y-200107667D01*
X271290470Y-200732715D01*
X271768270Y-201211350D01*
X272392866Y-201470704D01*
X273069167Y-201471294D01*
X273694215Y-201213030D01*
X274172850Y-200735230D01*
X274432204Y-200110634D01*
X274432794Y-199434333D01*
X274382500Y-199312612D01*
X274382500Y-196580952D01*
X275161927Y-195801525D01*
X275281715Y-195752030D01*
X275760350Y-195274230D01*
X276019704Y-194649634D01*
X276020294Y-193973333D01*
X275762030Y-193348285D01*
X275326506Y-192912000D01*
X276193888Y-192912000D01*
X276176296Y-192954366D01*
X276175706Y-193630667D01*
X276433970Y-194255715D01*
X276911770Y-194734350D01*
X277536366Y-194993704D01*
X278212667Y-194994294D01*
X278837715Y-194736030D01*
X279180000Y-194394342D01*
X279180000Y-197739000D01*
X279293419Y-198309199D01*
X279616411Y-198792589D01*
X280987648Y-200163826D01*
X281196470Y-200669215D01*
X281674270Y-201147850D01*
X282298866Y-201407204D01*
X282975167Y-201407794D01*
X283600215Y-201149530D01*
X284078850Y-200671730D01*
X284338204Y-200047134D01*
X284338794Y-199370833D01*
X284080530Y-198745785D01*
X283602730Y-198267150D01*
X283094146Y-198055968D01*
X282160000Y-197121822D01*
X282160000Y-196876762D01*
X288772000Y-196876762D01*
X288772000Y-197591000D01*
X288947000Y-197766000D01*
X290222000Y-197766000D01*
X290222000Y-196491000D01*
X290047000Y-196316000D01*
X289332761Y-196316000D01*
X289075482Y-196422569D01*
X288878568Y-196619482D01*
X288772000Y-196876762D01*
X282160000Y-196876762D01*
X282160000Y-195552992D01*
X282276667Y-195553094D01*
X282785618Y-195342800D01*
X290941402Y-195342800D01*
X290969514Y-195481622D01*
X291062696Y-195616185D01*
X291715071Y-196235105D01*
X291695696Y-196281766D01*
X291695462Y-196549513D01*
X291568518Y-196422569D01*
X291311239Y-196316000D01*
X290597000Y-196316000D01*
X290422000Y-196491000D01*
X290422000Y-197766000D01*
X291697000Y-197766000D01*
X291872000Y-197591000D01*
X291872000Y-197386184D01*
X291953370Y-197583115D01*
X292431170Y-198061750D01*
X293055766Y-198321104D01*
X293732067Y-198321694D01*
X293859116Y-198269199D01*
X297512679Y-201735400D01*
X295601289Y-201735400D01*
X295157434Y-201551096D01*
X294481133Y-201550506D01*
X293856085Y-201808770D01*
X293377450Y-202286570D01*
X293329670Y-202401639D01*
X293043285Y-202519970D01*
X292615973Y-202946536D01*
X292616080Y-202946000D01*
X292444809Y-202084962D01*
X292171549Y-201676000D01*
X292444809Y-201267038D01*
X292616080Y-200406000D01*
X292444809Y-199544962D01*
X291957070Y-198815010D01*
X291872000Y-198758168D01*
X291872000Y-198141000D01*
X291697000Y-197966000D01*
X290422000Y-197966000D01*
X290422000Y-197986000D01*
X290222000Y-197986000D01*
X290222000Y-197966000D01*
X288947000Y-197966000D01*
X288772000Y-198141000D01*
X288772000Y-198758168D01*
X288686930Y-198815010D01*
X288199191Y-199544962D01*
X288027920Y-200406000D01*
X288199191Y-201267038D01*
X288472451Y-201676000D01*
X288199191Y-202084962D01*
X288027920Y-202946000D01*
X288199191Y-203807038D01*
X288472451Y-204216000D01*
X288199191Y-204624962D01*
X288027920Y-205486000D01*
X288199191Y-206347038D01*
X288472451Y-206756000D01*
X288199191Y-207164962D01*
X288027920Y-208026000D01*
X288199191Y-208887038D01*
X288472451Y-209296000D01*
X288199191Y-209704962D01*
X288027920Y-210566000D01*
X288199191Y-211427038D01*
X288686930Y-212156990D01*
X288744419Y-212195403D01*
X287596622Y-213343200D01*
X285292800Y-213343200D01*
X284722602Y-213456619D01*
X284289382Y-213746088D01*
X284239211Y-213779611D01*
X275527011Y-222491811D01*
X275204019Y-222975201D01*
X275121625Y-223389427D01*
X275090600Y-223545400D01*
X275090600Y-224014024D01*
X274972187Y-223949235D01*
X273221421Y-225700000D01*
X273235564Y-225714142D01*
X273094142Y-225855564D01*
X273080000Y-225841421D01*
X273065858Y-225855564D01*
X272924436Y-225714142D01*
X272938579Y-225700000D01*
X271187813Y-223949235D01*
X270795552Y-224163858D01*
X270381589Y-225155009D01*
X270378434Y-226229132D01*
X270786568Y-227222698D01*
X270795552Y-227236142D01*
X270797120Y-227237000D01*
X265202880Y-227237000D01*
X265204448Y-227236142D01*
X265618411Y-226244991D01*
X265621566Y-225170868D01*
X265213432Y-224177302D01*
X265204448Y-224163858D01*
X264812187Y-223949235D01*
X263061421Y-225700000D01*
X263075564Y-225714142D01*
X262934142Y-225855564D01*
X262920000Y-225841421D01*
X262905858Y-225855564D01*
X262764436Y-225714142D01*
X262778579Y-225700000D01*
X261027813Y-223949235D01*
X260635552Y-224163858D01*
X260221589Y-225155009D01*
X260218434Y-226229132D01*
X260626568Y-227222698D01*
X260635552Y-227236142D01*
X260637120Y-227237000D01*
X255056149Y-227237000D01*
X255042138Y-226654503D01*
X254894473Y-226298008D01*
X255135442Y-226294334D01*
X255746237Y-226041333D01*
X255851142Y-225742563D01*
X254750000Y-224641421D01*
X254735858Y-224655564D01*
X254594437Y-224514143D01*
X254608579Y-224500000D01*
X254891421Y-224500000D01*
X255992563Y-225601142D01*
X256291333Y-225496237D01*
X256555250Y-224830560D01*
X256544334Y-224114558D01*
X256417276Y-223807813D01*
X261169235Y-223807813D01*
X262920000Y-225558579D01*
X264670765Y-223807813D01*
X271329235Y-223807813D01*
X273080000Y-225558579D01*
X274830765Y-223807813D01*
X274616142Y-223415552D01*
X273624991Y-223001589D01*
X272550868Y-222998434D01*
X271557302Y-223406568D01*
X271543858Y-223415552D01*
X271329235Y-223807813D01*
X264670765Y-223807813D01*
X264456142Y-223415552D01*
X263464991Y-223001589D01*
X262390868Y-222998434D01*
X261397302Y-223406568D01*
X261383858Y-223415552D01*
X261169235Y-223807813D01*
X256417276Y-223807813D01*
X256291333Y-223503763D01*
X255992563Y-223398858D01*
X254891421Y-224500000D01*
X254608579Y-224500000D01*
X253507437Y-223398858D01*
X253208667Y-223503763D01*
X252944750Y-224169440D01*
X252955666Y-224885442D01*
X253192394Y-225456951D01*
X253154503Y-225457862D01*
X252653847Y-225665240D01*
X252579486Y-225938064D01*
X253500000Y-226858579D01*
X253514142Y-226844436D01*
X253655564Y-226985858D01*
X253641421Y-227000000D01*
X253655564Y-227014143D01*
X253514143Y-227155564D01*
X253500000Y-227141421D01*
X253485858Y-227155564D01*
X253344437Y-227014143D01*
X253358579Y-227000000D01*
X252438064Y-226079486D01*
X252165240Y-226153847D01*
X251943034Y-226729047D01*
X251955252Y-227237000D01*
X251344178Y-227237000D01*
X251249876Y-227142698D01*
X251250390Y-226554411D01*
X250908569Y-225727142D01*
X250276187Y-225093655D01*
X249554694Y-224794065D01*
X249544334Y-224114558D01*
X249291333Y-223503763D01*
X248992563Y-223398858D01*
X247891421Y-224500000D01*
X247905564Y-224514143D01*
X247764143Y-224655564D01*
X247750000Y-224641421D01*
X247735858Y-224655564D01*
X247594437Y-224514143D01*
X247608579Y-224500000D01*
X247594437Y-224485858D01*
X247735858Y-224344437D01*
X247750000Y-224358579D01*
X248851142Y-223257437D01*
X253648858Y-223257437D01*
X254750000Y-224358579D01*
X255851142Y-223257437D01*
X255746237Y-222958667D01*
X255080560Y-222694750D01*
X254364558Y-222705666D01*
X253753763Y-222958667D01*
X253648858Y-223257437D01*
X248851142Y-223257437D01*
X248746237Y-222958667D01*
X248080560Y-222694750D01*
X247364558Y-222705666D01*
X247288000Y-222737378D01*
X247288000Y-221243825D01*
X264849455Y-221243825D01*
X265328003Y-222402001D01*
X266213339Y-223288883D01*
X267370677Y-223769452D01*
X268623825Y-223770545D01*
X269782001Y-223291997D01*
X270668883Y-222406661D01*
X270811640Y-222062863D01*
X270869513Y-222061218D01*
X271326094Y-221872096D01*
X271388221Y-221609642D01*
X271113789Y-221335210D01*
X271149452Y-221249323D01*
X271149593Y-221088172D01*
X271529642Y-221468221D01*
X271792096Y-221406094D01*
X271997612Y-220867100D01*
X271981218Y-220290487D01*
X271792096Y-219833906D01*
X271529642Y-219771779D01*
X271150410Y-220151011D01*
X271150545Y-219996175D01*
X271113079Y-219905500D01*
X271388221Y-219630358D01*
X271326094Y-219367904D01*
X270809572Y-219170957D01*
X270671997Y-218837999D01*
X269786661Y-217951117D01*
X268629323Y-217470548D01*
X267376175Y-217469455D01*
X266217999Y-217948003D01*
X265331117Y-218833339D01*
X264850548Y-219990677D01*
X264849455Y-221243825D01*
X247288000Y-221243825D01*
X247288000Y-217170000D01*
X247256486Y-217014378D01*
X247170843Y-216887157D01*
X245510000Y-215226314D01*
X245510000Y-212608991D01*
X247826101Y-212608991D01*
X248175518Y-213454643D01*
X248821953Y-214102208D01*
X249666995Y-214453100D01*
X250581991Y-214453899D01*
X251427643Y-214104482D01*
X252075208Y-213458047D01*
X252160943Y-213251572D01*
X254249849Y-213251572D01*
X254330324Y-213529584D01*
X254923623Y-213760133D01*
X255559988Y-213746088D01*
X256082676Y-213529584D01*
X256163151Y-213251572D01*
X255206500Y-212294921D01*
X254249849Y-213251572D01*
X252160943Y-213251572D01*
X252426100Y-212613005D01*
X252426748Y-211870623D01*
X253599867Y-211870623D01*
X253613912Y-212506988D01*
X253830416Y-213029676D01*
X254108428Y-213110151D01*
X255065079Y-212153500D01*
X255347921Y-212153500D01*
X256304572Y-213110151D01*
X256582584Y-213029676D01*
X256746057Y-212608991D01*
X257986101Y-212608991D01*
X258335518Y-213454643D01*
X258981953Y-214102208D01*
X259826995Y-214453100D01*
X260741991Y-214453899D01*
X261587643Y-214104482D01*
X262117679Y-213575371D01*
X262186832Y-213942887D01*
X262712458Y-214759734D01*
X263514473Y-215307727D01*
X264466500Y-215500518D01*
X266266500Y-215500518D01*
X267155887Y-215333168D01*
X267972734Y-214807542D01*
X268520727Y-214005527D01*
X268713518Y-213053500D01*
X268713518Y-211253500D01*
X268546168Y-210364113D01*
X268020542Y-209547266D01*
X267218527Y-208999273D01*
X266266500Y-208806482D01*
X264466500Y-208806482D01*
X263577113Y-208973832D01*
X262760266Y-209499458D01*
X262212273Y-210301473D01*
X262123781Y-210738457D01*
X261591047Y-210204792D01*
X260746005Y-209853900D01*
X259831009Y-209853101D01*
X258985357Y-210202518D01*
X258337792Y-210848953D01*
X257986900Y-211693995D01*
X257986101Y-212608991D01*
X256746057Y-212608991D01*
X256813133Y-212436377D01*
X256799088Y-211800012D01*
X256582584Y-211277324D01*
X256304572Y-211196849D01*
X255347921Y-212153500D01*
X255065079Y-212153500D01*
X254108428Y-211196849D01*
X253830416Y-211277324D01*
X253599867Y-211870623D01*
X252426748Y-211870623D01*
X252426899Y-211698009D01*
X252161390Y-211055428D01*
X254249849Y-211055428D01*
X255206500Y-212012079D01*
X256163151Y-211055428D01*
X256082676Y-210777416D01*
X255489377Y-210546867D01*
X254853012Y-210560912D01*
X254330324Y-210777416D01*
X254249849Y-211055428D01*
X252161390Y-211055428D01*
X252077482Y-210852357D01*
X251431047Y-210204792D01*
X250586005Y-209853900D01*
X249671009Y-209853101D01*
X248825357Y-210202518D01*
X248177792Y-210848953D01*
X247826900Y-211693995D01*
X247826101Y-212608991D01*
X245510000Y-212608991D01*
X245510000Y-205814491D01*
X247826101Y-205814491D01*
X248175518Y-206660143D01*
X248821953Y-207307708D01*
X249666995Y-207658600D01*
X250581991Y-207659399D01*
X251427643Y-207309982D01*
X252075208Y-206663547D01*
X252160943Y-206457072D01*
X254249849Y-206457072D01*
X254330324Y-206735084D01*
X254923623Y-206965633D01*
X255559988Y-206951588D01*
X256082676Y-206735084D01*
X256163151Y-206457072D01*
X255206500Y-205500421D01*
X254249849Y-206457072D01*
X252160943Y-206457072D01*
X252426100Y-205818505D01*
X252426748Y-205076123D01*
X253599867Y-205076123D01*
X253613912Y-205712488D01*
X253830416Y-206235176D01*
X254108428Y-206315651D01*
X255065079Y-205359000D01*
X255347921Y-205359000D01*
X256304572Y-206315651D01*
X256582584Y-206235176D01*
X256746057Y-205814491D01*
X257986101Y-205814491D01*
X258335518Y-206660143D01*
X258981953Y-207307708D01*
X259826995Y-207658600D01*
X260741991Y-207659399D01*
X261587643Y-207309982D01*
X262117679Y-206780871D01*
X262186832Y-207148387D01*
X262712458Y-207965234D01*
X263514473Y-208513227D01*
X264466500Y-208706018D01*
X266266500Y-208706018D01*
X267155887Y-208538668D01*
X267972734Y-208013042D01*
X268520727Y-207211027D01*
X268713518Y-206259000D01*
X268713518Y-204459000D01*
X268546168Y-203569613D01*
X268020542Y-202752766D01*
X267218527Y-202204773D01*
X266266500Y-202011982D01*
X264466500Y-202011982D01*
X263577113Y-202179332D01*
X262760266Y-202704958D01*
X262212273Y-203506973D01*
X262123781Y-203943957D01*
X261591047Y-203410292D01*
X260746005Y-203059400D01*
X259831009Y-203058601D01*
X258985357Y-203408018D01*
X258337792Y-204054453D01*
X257986900Y-204899495D01*
X257986101Y-205814491D01*
X256746057Y-205814491D01*
X256813133Y-205641877D01*
X256799088Y-205005512D01*
X256582584Y-204482824D01*
X256304572Y-204402349D01*
X255347921Y-205359000D01*
X255065079Y-205359000D01*
X254108428Y-204402349D01*
X253830416Y-204482824D01*
X253599867Y-205076123D01*
X252426748Y-205076123D01*
X252426899Y-204903509D01*
X252161390Y-204260928D01*
X254249849Y-204260928D01*
X255206500Y-205217579D01*
X256163151Y-204260928D01*
X256082676Y-203982916D01*
X255489377Y-203752367D01*
X254853012Y-203766412D01*
X254330324Y-203982916D01*
X254249849Y-204260928D01*
X252161390Y-204260928D01*
X252077482Y-204057857D01*
X251431047Y-203410292D01*
X250586005Y-203059400D01*
X249671009Y-203058601D01*
X248825357Y-203408018D01*
X248177792Y-204054453D01*
X247826900Y-204899495D01*
X247826101Y-205814491D01*
X245510000Y-205814491D01*
X245510000Y-203365686D01*
X250377194Y-198498492D01*
X250923123Y-198710633D01*
X251559488Y-198696588D01*
X252082176Y-198480084D01*
X252162651Y-198202072D01*
X251206000Y-197245421D01*
X251191858Y-197259564D01*
X251050437Y-197118143D01*
X251064579Y-197104000D01*
X251347421Y-197104000D01*
X252304072Y-198060651D01*
X252582084Y-197980176D01*
X252812633Y-197386877D01*
X252802609Y-196932667D01*
X253315706Y-196932667D01*
X253573970Y-197557715D01*
X254051770Y-198036350D01*
X254676366Y-198295704D01*
X255352667Y-198296294D01*
X255977715Y-198038030D01*
X256456350Y-197560230D01*
X256611466Y-197186667D01*
X257633706Y-197186667D01*
X257891970Y-197811715D01*
X258369770Y-198290350D01*
X258994366Y-198549704D01*
X259670667Y-198550294D01*
X260295715Y-198292030D01*
X260774350Y-197814230D01*
X261033704Y-197189634D01*
X261034149Y-196678667D01*
X263983706Y-196678667D01*
X264241970Y-197303715D01*
X264719770Y-197782350D01*
X265344366Y-198041704D01*
X266020667Y-198042294D01*
X266645715Y-197784030D01*
X267124350Y-197306230D01*
X267383704Y-196681634D01*
X267384294Y-196005333D01*
X267126030Y-195380285D01*
X266648230Y-194901650D01*
X266023634Y-194642296D01*
X265347333Y-194641706D01*
X264722285Y-194899970D01*
X264243650Y-195377770D01*
X263984296Y-196002366D01*
X263983706Y-196678667D01*
X261034149Y-196678667D01*
X261034294Y-196513333D01*
X260776030Y-195888285D01*
X260298230Y-195409650D01*
X259673634Y-195150296D01*
X258997333Y-195149706D01*
X258372285Y-195407970D01*
X257893650Y-195885770D01*
X257634296Y-196510366D01*
X257633706Y-197186667D01*
X256611466Y-197186667D01*
X256715704Y-196935634D01*
X256716294Y-196259333D01*
X256458030Y-195634285D01*
X255980230Y-195155650D01*
X255355634Y-194896296D01*
X254679333Y-194895706D01*
X254054285Y-195153970D01*
X253575650Y-195631770D01*
X253316296Y-196256366D01*
X253315706Y-196932667D01*
X252802609Y-196932667D01*
X252798588Y-196750512D01*
X252582084Y-196227824D01*
X252304072Y-196147349D01*
X251347421Y-197104000D01*
X251064579Y-197104000D01*
X251050437Y-197089858D01*
X251191858Y-196948437D01*
X251206000Y-196962579D01*
X252162651Y-196005928D01*
X252082176Y-195727916D01*
X251488877Y-195497367D01*
X250852512Y-195511412D01*
X250590000Y-195620148D01*
X250590000Y-193525652D01*
X251203652Y-192912000D01*
X273314178Y-192912000D01*
X272879650Y-193345770D01*
G36*
X291695564Y-226985858D02*
X291681421Y-227000000D01*
X291695564Y-227014143D01*
X291554143Y-227155564D01*
X291540000Y-227141421D01*
X291525858Y-227155564D01*
X291384437Y-227014143D01*
X291398579Y-227000000D01*
X291384437Y-226985858D01*
X291525858Y-226844437D01*
X291540000Y-226858579D01*
X291554143Y-226844437D01*
X291695564Y-226985858D01*
X291695564Y-226985858D01*
G37*
X291695564Y-226985858D02*
X291681421Y-227000000D01*
X291695564Y-227014143D01*
X291554143Y-227155564D01*
X291540000Y-227141421D01*
X291525858Y-227155564D01*
X291384437Y-227014143D01*
X291398579Y-227000000D01*
X291384437Y-226985858D01*
X291525858Y-226844437D01*
X291540000Y-226858579D01*
X291554143Y-226844437D01*
X291695564Y-226985858D01*
G36*
X291692000Y-222658000D02*
X291712000Y-222658000D01*
X291712000Y-222858000D01*
X291692000Y-222858000D01*
X291692000Y-224129359D01*
X291932737Y-224270084D01*
X292420272Y-224068148D01*
X292462000Y-224028479D01*
X292462000Y-225782221D01*
X292416176Y-225623916D01*
X291822877Y-225393367D01*
X291186512Y-225407412D01*
X291132404Y-225429824D01*
X290923191Y-225104697D01*
X290455349Y-224785034D01*
X290149169Y-224723031D01*
X290642990Y-224393070D01*
X290839207Y-224099411D01*
X291251263Y-224270084D01*
X291492000Y-224129359D01*
X291492000Y-222858000D01*
X291472000Y-222858000D01*
X291472000Y-222658000D01*
X291492000Y-222658000D01*
X291492000Y-222638000D01*
X291692000Y-222638000D01*
X291692000Y-222658000D01*
X291692000Y-222658000D01*
G37*
X291692000Y-222658000D02*
X291712000Y-222658000D01*
X291712000Y-222858000D01*
X291692000Y-222858000D01*
X291692000Y-224129359D01*
X291932737Y-224270084D01*
X292420272Y-224068148D01*
X292462000Y-224028479D01*
X292462000Y-225782221D01*
X292416176Y-225623916D01*
X291822877Y-225393367D01*
X291186512Y-225407412D01*
X291132404Y-225429824D01*
X290923191Y-225104697D01*
X290455349Y-224785034D01*
X290149169Y-224723031D01*
X290642990Y-224393070D01*
X290839207Y-224099411D01*
X291251263Y-224270084D01*
X291492000Y-224129359D01*
X291492000Y-222858000D01*
X291472000Y-222858000D01*
X291472000Y-222658000D01*
X291492000Y-222658000D01*
X291492000Y-222638000D01*
X291692000Y-222638000D01*
X291692000Y-222658000D01*
G36*
X319640000Y-209912000D02*
X316313388Y-209912000D01*
X316404315Y-209874430D01*
X316882950Y-209396630D01*
X317142304Y-208772034D01*
X317142894Y-208095733D01*
X316884630Y-207470685D01*
X316406830Y-206992050D01*
X315782234Y-206732696D01*
X315105933Y-206732106D01*
X314480885Y-206990370D01*
X314002250Y-207468170D01*
X313951743Y-207589805D01*
X313387548Y-208154000D01*
X311071778Y-208154000D01*
X311072294Y-207562333D01*
X310814030Y-206937285D01*
X310336230Y-206458650D01*
X310214595Y-206408143D01*
X310157726Y-206351274D01*
X309983973Y-206235176D01*
X309622428Y-205993599D01*
X308991000Y-205868000D01*
X304340778Y-205868000D01*
X305092593Y-205116185D01*
X305209622Y-205092486D01*
X305336843Y-205006843D01*
X306934019Y-203409667D01*
X310541906Y-203409667D01*
X310800170Y-204034715D01*
X311277970Y-204513350D01*
X311309980Y-204526642D01*
X311063196Y-205120966D01*
X311062606Y-205797267D01*
X311320870Y-206422315D01*
X311798670Y-206900950D01*
X312423266Y-207160304D01*
X313099567Y-207160894D01*
X313724615Y-206902630D01*
X314203250Y-206424830D01*
X314462604Y-205800234D01*
X314463194Y-205123933D01*
X314204930Y-204498885D01*
X313727130Y-204020250D01*
X313695120Y-204006958D01*
X313941904Y-203412634D01*
X313942494Y-202736333D01*
X313684230Y-202111285D01*
X313206430Y-201632650D01*
X312581834Y-201373296D01*
X311905533Y-201372706D01*
X311280485Y-201630970D01*
X310801850Y-202108770D01*
X310542496Y-202733366D01*
X310541906Y-203409667D01*
X306934019Y-203409667D01*
X309457710Y-200885976D01*
X309489566Y-200899204D01*
X310165867Y-200899794D01*
X310790915Y-200641530D01*
X311269550Y-200163730D01*
X311528904Y-199539134D01*
X311529494Y-198862833D01*
X311515272Y-198828414D01*
X314988843Y-195354843D01*
X315076600Y-195222517D01*
X315106000Y-195072000D01*
X315106000Y-191008000D01*
X315074486Y-190852378D01*
X314988843Y-190725157D01*
X314984564Y-190720878D01*
X317791589Y-187913853D01*
X318114581Y-187430463D01*
X318228000Y-186860264D01*
X318228000Y-184404000D01*
X318114581Y-183833802D01*
X317791589Y-183350411D01*
X317393159Y-182951981D01*
X317393333Y-182752774D01*
X317288580Y-182499251D01*
X317392665Y-182248586D01*
X317393333Y-181482774D01*
X317102184Y-180778138D01*
X317350372Y-180406698D01*
X317495000Y-179679600D01*
X317350372Y-178952502D01*
X316938503Y-178336097D01*
X316708560Y-178106154D01*
X316689971Y-178012701D01*
X316278103Y-177396297D01*
X315688000Y-177002003D01*
X315688000Y-175115113D01*
X316094651Y-175392966D01*
X316650000Y-175505427D01*
X318350000Y-175505427D01*
X318868809Y-175407806D01*
X319345303Y-175101191D01*
X319640000Y-174669888D01*
X319640000Y-209912000D01*
X319640000Y-209912000D01*
G37*
X319640000Y-209912000D02*
X316313388Y-209912000D01*
X316404315Y-209874430D01*
X316882950Y-209396630D01*
X317142304Y-208772034D01*
X317142894Y-208095733D01*
X316884630Y-207470685D01*
X316406830Y-206992050D01*
X315782234Y-206732696D01*
X315105933Y-206732106D01*
X314480885Y-206990370D01*
X314002250Y-207468170D01*
X313951743Y-207589805D01*
X313387548Y-208154000D01*
X311071778Y-208154000D01*
X311072294Y-207562333D01*
X310814030Y-206937285D01*
X310336230Y-206458650D01*
X310214595Y-206408143D01*
X310157726Y-206351274D01*
X309983973Y-206235176D01*
X309622428Y-205993599D01*
X308991000Y-205868000D01*
X304340778Y-205868000D01*
X305092593Y-205116185D01*
X305209622Y-205092486D01*
X305336843Y-205006843D01*
X306934019Y-203409667D01*
X310541906Y-203409667D01*
X310800170Y-204034715D01*
X311277970Y-204513350D01*
X311309980Y-204526642D01*
X311063196Y-205120966D01*
X311062606Y-205797267D01*
X311320870Y-206422315D01*
X311798670Y-206900950D01*
X312423266Y-207160304D01*
X313099567Y-207160894D01*
X313724615Y-206902630D01*
X314203250Y-206424830D01*
X314462604Y-205800234D01*
X314463194Y-205123933D01*
X314204930Y-204498885D01*
X313727130Y-204020250D01*
X313695120Y-204006958D01*
X313941904Y-203412634D01*
X313942494Y-202736333D01*
X313684230Y-202111285D01*
X313206430Y-201632650D01*
X312581834Y-201373296D01*
X311905533Y-201372706D01*
X311280485Y-201630970D01*
X310801850Y-202108770D01*
X310542496Y-202733366D01*
X310541906Y-203409667D01*
X306934019Y-203409667D01*
X309457710Y-200885976D01*
X309489566Y-200899204D01*
X310165867Y-200899794D01*
X310790915Y-200641530D01*
X311269550Y-200163730D01*
X311528904Y-199539134D01*
X311529494Y-198862833D01*
X311515272Y-198828414D01*
X314988843Y-195354843D01*
X315076600Y-195222517D01*
X315106000Y-195072000D01*
X315106000Y-191008000D01*
X315074486Y-190852378D01*
X314988843Y-190725157D01*
X314984564Y-190720878D01*
X317791589Y-187913853D01*
X318114581Y-187430463D01*
X318228000Y-186860264D01*
X318228000Y-184404000D01*
X318114581Y-183833802D01*
X317791589Y-183350411D01*
X317393159Y-182951981D01*
X317393333Y-182752774D01*
X317288580Y-182499251D01*
X317392665Y-182248586D01*
X317393333Y-181482774D01*
X317102184Y-180778138D01*
X317350372Y-180406698D01*
X317495000Y-179679600D01*
X317350372Y-178952502D01*
X316938503Y-178336097D01*
X316708560Y-178106154D01*
X316689971Y-178012701D01*
X316278103Y-177396297D01*
X315688000Y-177002003D01*
X315688000Y-175115113D01*
X316094651Y-175392966D01*
X316650000Y-175505427D01*
X318350000Y-175505427D01*
X318868809Y-175407806D01*
X319345303Y-175101191D01*
X319640000Y-174669888D01*
X319640000Y-209912000D01*
G36*
X253980994Y-189612000D02*
X250590000Y-189612000D01*
X250590000Y-188722000D01*
X250558486Y-188566378D01*
X250459069Y-188426024D01*
X247665069Y-185886024D01*
X247528719Y-185804660D01*
X247396000Y-185782000D01*
X242869783Y-185782000D01*
X243109635Y-185621736D01*
X243586535Y-184908005D01*
X243754000Y-184066101D01*
X243754000Y-183979899D01*
X243586535Y-183137995D01*
X243156231Y-182494000D01*
X246862994Y-182494000D01*
X253980994Y-189612000D01*
X253980994Y-189612000D01*
G37*
X253980994Y-189612000D02*
X250590000Y-189612000D01*
X250590000Y-188722000D01*
X250558486Y-188566378D01*
X250459069Y-188426024D01*
X247665069Y-185886024D01*
X247528719Y-185804660D01*
X247396000Y-185782000D01*
X242869783Y-185782000D01*
X243109635Y-185621736D01*
X243586535Y-184908005D01*
X243754000Y-184066101D01*
X243754000Y-183979899D01*
X243586535Y-183137995D01*
X243156231Y-182494000D01*
X246862994Y-182494000D01*
X253980994Y-189612000D01*
G36*
X285928770Y-180764350D02*
X286050405Y-180814857D01*
X287199474Y-181963926D01*
X287734772Y-182321601D01*
X288366200Y-182447200D01*
X293624002Y-182447200D01*
X294255430Y-182321601D01*
X294790728Y-181963926D01*
X295517513Y-181237141D01*
X295764590Y-181835115D01*
X296242390Y-182313750D01*
X296408357Y-182382665D01*
X294492722Y-184298300D01*
X289699700Y-184298300D01*
X289129501Y-184411719D01*
X288646111Y-184734711D01*
X287926822Y-185454000D01*
X285705659Y-185454000D01*
X285200634Y-185244296D01*
X284524333Y-185243706D01*
X283899285Y-185501970D01*
X283420650Y-185979770D01*
X283161296Y-186604366D01*
X283160706Y-187280667D01*
X283350498Y-187740000D01*
X274841452Y-187740000D01*
X277523452Y-185058000D01*
X281432000Y-185058000D01*
X281587622Y-185026486D01*
X281714843Y-184940843D01*
X285910069Y-180745617D01*
X285928770Y-180764350D01*
X285928770Y-180764350D01*
G37*
X285928770Y-180764350D02*
X286050405Y-180814857D01*
X287199474Y-181963926D01*
X287734772Y-182321601D01*
X288366200Y-182447200D01*
X293624002Y-182447200D01*
X294255430Y-182321601D01*
X294790728Y-181963926D01*
X295517513Y-181237141D01*
X295764590Y-181835115D01*
X296242390Y-182313750D01*
X296408357Y-182382665D01*
X294492722Y-184298300D01*
X289699700Y-184298300D01*
X289129501Y-184411719D01*
X288646111Y-184734711D01*
X287926822Y-185454000D01*
X285705659Y-185454000D01*
X285200634Y-185244296D01*
X284524333Y-185243706D01*
X283899285Y-185501970D01*
X283420650Y-185979770D01*
X283161296Y-186604366D01*
X283160706Y-187280667D01*
X283350498Y-187740000D01*
X274841452Y-187740000D01*
X277523452Y-185058000D01*
X281432000Y-185058000D01*
X281587622Y-185026486D01*
X281714843Y-184940843D01*
X285910069Y-180745617D01*
X285928770Y-180764350D01*
G36*
X239407969Y-184337422D02*
X239521465Y-184908005D01*
X239998365Y-185621736D01*
X240238217Y-185782000D01*
X234296852Y-185782000D01*
X234346635Y-185748736D01*
X234823535Y-185035005D01*
X234991000Y-184193101D01*
X234991000Y-184156452D01*
X235608726Y-183538726D01*
X235966402Y-183003427D01*
X236092000Y-182372000D01*
X236092000Y-181021452D01*
X239407969Y-184337422D01*
X239407969Y-184337422D01*
G37*
X239407969Y-184337422D02*
X239521465Y-184908005D01*
X239998365Y-185621736D01*
X240238217Y-185782000D01*
X234296852Y-185782000D01*
X234346635Y-185748736D01*
X234823535Y-185035005D01*
X234991000Y-184193101D01*
X234991000Y-184156452D01*
X235608726Y-183538726D01*
X235966402Y-183003427D01*
X236092000Y-182372000D01*
X236092000Y-181021452D01*
X239407969Y-184337422D01*
G36*
X243650011Y-164910011D02*
X242281104Y-166278918D01*
X241862285Y-166451970D01*
X241383650Y-166929770D01*
X241124296Y-167554366D01*
X241123748Y-168182000D01*
X234569000Y-168182000D01*
X233998801Y-168295419D01*
X233515411Y-168618411D01*
X231572674Y-170561148D01*
X231067285Y-170769970D01*
X230588650Y-171247770D01*
X230329296Y-171872366D01*
X230328706Y-172548667D01*
X230586970Y-173173715D01*
X231064770Y-173652350D01*
X231689366Y-173911704D01*
X232365667Y-173912294D01*
X232990715Y-173654030D01*
X233469350Y-173176230D01*
X233680532Y-172667646D01*
X233971194Y-172376984D01*
X234142970Y-172792715D01*
X234620770Y-173271350D01*
X235245366Y-173530704D01*
X235921667Y-173531294D01*
X236193972Y-173418780D01*
X236769366Y-173657704D01*
X237445667Y-173658294D01*
X238070715Y-173400030D01*
X238549350Y-172922230D01*
X238808704Y-172297634D01*
X238809294Y-171621333D01*
X238619502Y-171162000D01*
X239377563Y-171162000D01*
X239267599Y-171326572D01*
X239142000Y-171958000D01*
X239142000Y-173736000D01*
X239267599Y-174367428D01*
X239480356Y-174685841D01*
X239233099Y-174520629D01*
X238506000Y-174376000D01*
X235966000Y-174376000D01*
X235238901Y-174520629D01*
X234622497Y-174932497D01*
X234210629Y-175548901D01*
X234143914Y-175884302D01*
X233783273Y-176125274D01*
X233275274Y-176633274D01*
X232917599Y-177168572D01*
X232792000Y-177800000D01*
X232792000Y-181688548D01*
X232519680Y-181960868D01*
X231949096Y-182074364D01*
X231235365Y-182551264D01*
X230758465Y-183264995D01*
X230591000Y-184106899D01*
X230591000Y-184193101D01*
X230758465Y-185035005D01*
X231235365Y-185748736D01*
X231285148Y-185782000D01*
X219856000Y-185782000D01*
X219856000Y-171196000D01*
X219824486Y-171040378D01*
X219734908Y-170909277D01*
X219601383Y-170823356D01*
X219456000Y-170796000D01*
X168003550Y-170796000D01*
X168008176Y-170794084D01*
X168088651Y-170516072D01*
X167132000Y-169559421D01*
X166175349Y-170516072D01*
X166255824Y-170794084D01*
X166260755Y-170796000D01*
X136583413Y-170796000D01*
X136755641Y-170538242D01*
X136891630Y-169854578D01*
X137145999Y-169803981D01*
X137233371Y-169745601D01*
X153968799Y-169745601D01*
X154538998Y-169632182D01*
X155022388Y-169309190D01*
X155196455Y-169135123D01*
X165525367Y-169135123D01*
X165539412Y-169771488D01*
X165755916Y-170294176D01*
X166033928Y-170374651D01*
X166990579Y-169418000D01*
X167273421Y-169418000D01*
X168230072Y-170374651D01*
X168508084Y-170294176D01*
X168738633Y-169700877D01*
X168724588Y-169064512D01*
X168508084Y-168541824D01*
X168230072Y-168461349D01*
X167273421Y-169418000D01*
X166990579Y-169418000D01*
X166033928Y-168461349D01*
X165755916Y-168541824D01*
X165525367Y-169135123D01*
X155196455Y-169135123D01*
X156011650Y-168319928D01*
X166175349Y-168319928D01*
X167132000Y-169276579D01*
X168088651Y-168319928D01*
X168008176Y-168041916D01*
X167414877Y-167811367D01*
X166778512Y-167825412D01*
X166255824Y-168041916D01*
X166175349Y-168319928D01*
X156011650Y-168319928D01*
X156624578Y-167707000D01*
X156886366Y-167815704D01*
X157562667Y-167816294D01*
X158071618Y-167606000D01*
X188292029Y-167606000D01*
X188291706Y-167976667D01*
X188549970Y-168601715D01*
X189027770Y-169080350D01*
X189652366Y-169339704D01*
X190328667Y-169340294D01*
X190837618Y-169130000D01*
X225044000Y-169130000D01*
X225614199Y-169016581D01*
X226097589Y-168693589D01*
X229217178Y-165574000D01*
X240538000Y-165574000D01*
X241108199Y-165460581D01*
X241591589Y-165137589D01*
X241917178Y-164812000D01*
X243796694Y-164812000D01*
X243650011Y-164910011D01*
X243650011Y-164910011D01*
G37*
X243650011Y-164910011D02*
X242281104Y-166278918D01*
X241862285Y-166451970D01*
X241383650Y-166929770D01*
X241124296Y-167554366D01*
X241123748Y-168182000D01*
X234569000Y-168182000D01*
X233998801Y-168295419D01*
X233515411Y-168618411D01*
X231572674Y-170561148D01*
X231067285Y-170769970D01*
X230588650Y-171247770D01*
X230329296Y-171872366D01*
X230328706Y-172548667D01*
X230586970Y-173173715D01*
X231064770Y-173652350D01*
X231689366Y-173911704D01*
X232365667Y-173912294D01*
X232990715Y-173654030D01*
X233469350Y-173176230D01*
X233680532Y-172667646D01*
X233971194Y-172376984D01*
X234142970Y-172792715D01*
X234620770Y-173271350D01*
X235245366Y-173530704D01*
X235921667Y-173531294D01*
X236193972Y-173418780D01*
X236769366Y-173657704D01*
X237445667Y-173658294D01*
X238070715Y-173400030D01*
X238549350Y-172922230D01*
X238808704Y-172297634D01*
X238809294Y-171621333D01*
X238619502Y-171162000D01*
X239377563Y-171162000D01*
X239267599Y-171326572D01*
X239142000Y-171958000D01*
X239142000Y-173736000D01*
X239267599Y-174367428D01*
X239480356Y-174685841D01*
X239233099Y-174520629D01*
X238506000Y-174376000D01*
X235966000Y-174376000D01*
X235238901Y-174520629D01*
X234622497Y-174932497D01*
X234210629Y-175548901D01*
X234143914Y-175884302D01*
X233783273Y-176125274D01*
X233275274Y-176633274D01*
X232917599Y-177168572D01*
X232792000Y-177800000D01*
X232792000Y-181688548D01*
X232519680Y-181960868D01*
X231949096Y-182074364D01*
X231235365Y-182551264D01*
X230758465Y-183264995D01*
X230591000Y-184106899D01*
X230591000Y-184193101D01*
X230758465Y-185035005D01*
X231235365Y-185748736D01*
X231285148Y-185782000D01*
X219856000Y-185782000D01*
X219856000Y-171196000D01*
X219824486Y-171040378D01*
X219734908Y-170909277D01*
X219601383Y-170823356D01*
X219456000Y-170796000D01*
X168003550Y-170796000D01*
X168008176Y-170794084D01*
X168088651Y-170516072D01*
X167132000Y-169559421D01*
X166175349Y-170516072D01*
X166255824Y-170794084D01*
X166260755Y-170796000D01*
X136583413Y-170796000D01*
X136755641Y-170538242D01*
X136891630Y-169854578D01*
X137145999Y-169803981D01*
X137233371Y-169745601D01*
X153968799Y-169745601D01*
X154538998Y-169632182D01*
X155022388Y-169309190D01*
X155196455Y-169135123D01*
X165525367Y-169135123D01*
X165539412Y-169771488D01*
X165755916Y-170294176D01*
X166033928Y-170374651D01*
X166990579Y-169418000D01*
X167273421Y-169418000D01*
X168230072Y-170374651D01*
X168508084Y-170294176D01*
X168738633Y-169700877D01*
X168724588Y-169064512D01*
X168508084Y-168541824D01*
X168230072Y-168461349D01*
X167273421Y-169418000D01*
X166990579Y-169418000D01*
X166033928Y-168461349D01*
X165755916Y-168541824D01*
X165525367Y-169135123D01*
X155196455Y-169135123D01*
X156011650Y-168319928D01*
X166175349Y-168319928D01*
X167132000Y-169276579D01*
X168088651Y-168319928D01*
X168008176Y-168041916D01*
X167414877Y-167811367D01*
X166778512Y-167825412D01*
X166255824Y-168041916D01*
X166175349Y-168319928D01*
X156011650Y-168319928D01*
X156624578Y-167707000D01*
X156886366Y-167815704D01*
X157562667Y-167816294D01*
X158071618Y-167606000D01*
X188292029Y-167606000D01*
X188291706Y-167976667D01*
X188549970Y-168601715D01*
X189027770Y-169080350D01*
X189652366Y-169339704D01*
X190328667Y-169340294D01*
X190837618Y-169130000D01*
X225044000Y-169130000D01*
X225614199Y-169016581D01*
X226097589Y-168693589D01*
X229217178Y-165574000D01*
X240538000Y-165574000D01*
X241108199Y-165460581D01*
X241591589Y-165137589D01*
X241917178Y-164812000D01*
X243796694Y-164812000D01*
X243650011Y-164910011D01*
G36*
X312708000Y-169273178D02*
X312708000Y-176420822D01*
X308990583Y-180138239D01*
X308441634Y-179910296D01*
X307765333Y-179909706D01*
X307140285Y-180167970D01*
X307008035Y-180299989D01*
X307008294Y-180003333D01*
X306798000Y-179494382D01*
X306798000Y-177165000D01*
X306684581Y-176594802D01*
X306361589Y-176111411D01*
X304964589Y-174714411D01*
X304481199Y-174391419D01*
X303911000Y-174278000D01*
X303571178Y-174278000D01*
X304699266Y-173149912D01*
X305120050Y-173150280D01*
X305730366Y-173403704D01*
X306406667Y-173404294D01*
X306630404Y-173311848D01*
X306153650Y-173787770D01*
X305894296Y-174412366D01*
X305893706Y-175088667D01*
X306151970Y-175713715D01*
X306629770Y-176192350D01*
X307254366Y-176451704D01*
X307930667Y-176452294D01*
X308370471Y-176270571D01*
X308370206Y-176574567D01*
X308628470Y-177199615D01*
X309106270Y-177678250D01*
X309730866Y-177937604D01*
X310407167Y-177938194D01*
X311032215Y-177679930D01*
X311510850Y-177202130D01*
X311770204Y-176577534D01*
X311770794Y-175901233D01*
X311512530Y-175276185D01*
X311034730Y-174797550D01*
X310944882Y-174760242D01*
X310945179Y-174420043D01*
X311232667Y-174420294D01*
X311857715Y-174162030D01*
X312336350Y-173684230D01*
X312595704Y-173059634D01*
X312596294Y-172383333D01*
X312338030Y-171758285D01*
X311860230Y-171279650D01*
X311293294Y-171044239D01*
X311320350Y-171017230D01*
X311579704Y-170392634D01*
X311580294Y-169716333D01*
X311322030Y-169091285D01*
X310844230Y-168612650D01*
X310219634Y-168353296D01*
X309543333Y-168352706D01*
X309044655Y-168558755D01*
X309008681Y-168377902D01*
X308685689Y-167894511D01*
X308447978Y-167656800D01*
X311091622Y-167656800D01*
X312708000Y-169273178D01*
X312708000Y-169273178D01*
G37*
X312708000Y-169273178D02*
X312708000Y-176420822D01*
X308990583Y-180138239D01*
X308441634Y-179910296D01*
X307765333Y-179909706D01*
X307140285Y-180167970D01*
X307008035Y-180299989D01*
X307008294Y-180003333D01*
X306798000Y-179494382D01*
X306798000Y-177165000D01*
X306684581Y-176594802D01*
X306361589Y-176111411D01*
X304964589Y-174714411D01*
X304481199Y-174391419D01*
X303911000Y-174278000D01*
X303571178Y-174278000D01*
X304699266Y-173149912D01*
X305120050Y-173150280D01*
X305730366Y-173403704D01*
X306406667Y-173404294D01*
X306630404Y-173311848D01*
X306153650Y-173787770D01*
X305894296Y-174412366D01*
X305893706Y-175088667D01*
X306151970Y-175713715D01*
X306629770Y-176192350D01*
X307254366Y-176451704D01*
X307930667Y-176452294D01*
X308370471Y-176270571D01*
X308370206Y-176574567D01*
X308628470Y-177199615D01*
X309106270Y-177678250D01*
X309730866Y-177937604D01*
X310407167Y-177938194D01*
X311032215Y-177679930D01*
X311510850Y-177202130D01*
X311770204Y-176577534D01*
X311770794Y-175901233D01*
X311512530Y-175276185D01*
X311034730Y-174797550D01*
X310944882Y-174760242D01*
X310945179Y-174420043D01*
X311232667Y-174420294D01*
X311857715Y-174162030D01*
X312336350Y-173684230D01*
X312595704Y-173059634D01*
X312596294Y-172383333D01*
X312338030Y-171758285D01*
X311860230Y-171279650D01*
X311293294Y-171044239D01*
X311320350Y-171017230D01*
X311579704Y-170392634D01*
X311580294Y-169716333D01*
X311322030Y-169091285D01*
X310844230Y-168612650D01*
X310219634Y-168353296D01*
X309543333Y-168352706D01*
X309044655Y-168558755D01*
X309008681Y-168377902D01*
X308685689Y-167894511D01*
X308447978Y-167656800D01*
X311091622Y-167656800D01*
X312708000Y-169273178D01*
G36*
X208192285Y-153920192D02*
X207516565Y-154594734D01*
X207150417Y-155476516D01*
X207149584Y-156431295D01*
X207514192Y-157313715D01*
X208188734Y-157989435D01*
X209070516Y-158355583D01*
X210025295Y-158356416D01*
X210907715Y-157991808D01*
X211583435Y-157317266D01*
X211949583Y-156435484D01*
X211950416Y-155480705D01*
X211585808Y-154598285D01*
X210911266Y-153922565D01*
X210042929Y-153562000D01*
X277464231Y-153562000D01*
X276850785Y-153815470D01*
X276372150Y-154293270D01*
X276112796Y-154917866D01*
X276112206Y-155594167D01*
X276370470Y-156219215D01*
X276521990Y-156371000D01*
X275640800Y-156371000D01*
X275070601Y-156484419D01*
X274587211Y-156807411D01*
X271899422Y-159495200D01*
X240951978Y-159495200D01*
X240778789Y-159322011D01*
X240295399Y-158999019D01*
X239725200Y-158885600D01*
X239343448Y-158961535D01*
X238962230Y-158579650D01*
X238337634Y-158320296D01*
X237661333Y-158319706D01*
X237617666Y-158337749D01*
X237575634Y-158320296D01*
X236899333Y-158319706D01*
X236274285Y-158577970D01*
X235795650Y-159055770D01*
X235613183Y-159495200D01*
X228981000Y-159495200D01*
X228410802Y-159608619D01*
X228050074Y-159849650D01*
X227927411Y-159931611D01*
X224626556Y-163232466D01*
X224581030Y-163122285D01*
X224103230Y-162643650D01*
X223478634Y-162384296D01*
X222802333Y-162383706D01*
X222650000Y-162446649D01*
X222650000Y-157480000D01*
X222618486Y-157324378D01*
X222528908Y-157193277D01*
X222395383Y-157107356D01*
X222250000Y-157080000D01*
X213614000Y-157080000D01*
X213458378Y-157111514D01*
X213327277Y-157201092D01*
X213241356Y-157334617D01*
X213214000Y-157480000D01*
X213214000Y-164016400D01*
X158679434Y-164016400D01*
X158354999Y-163799619D01*
X157784800Y-163686200D01*
X157048200Y-163686200D01*
X156478001Y-163799619D01*
X155994611Y-164122611D01*
X153351621Y-166765601D01*
X136855066Y-166765601D01*
X136755641Y-166265758D01*
X136264954Y-165531393D01*
X135977908Y-165339595D01*
X136145544Y-164934869D01*
X136004995Y-164692000D01*
X134720000Y-164692000D01*
X134720000Y-164712000D01*
X134520000Y-164712000D01*
X134520000Y-164692000D01*
X133235005Y-164692000D01*
X133094456Y-164934869D01*
X133262092Y-165339595D01*
X132975046Y-165531393D01*
X132484359Y-166265758D01*
X132350761Y-166937400D01*
X127406400Y-166937400D01*
X126836202Y-167050819D01*
X126486624Y-167284400D01*
X126352811Y-167373811D01*
X125622000Y-168104622D01*
X125622000Y-162052000D01*
X132312053Y-162052000D01*
X132484359Y-162918242D01*
X132975046Y-163652607D01*
X133262092Y-163844405D01*
X133094456Y-164249131D01*
X133235005Y-164492000D01*
X134520000Y-164492000D01*
X134520000Y-164472000D01*
X134720000Y-164472000D01*
X134720000Y-164492000D01*
X136004995Y-164492000D01*
X136145544Y-164249131D01*
X135977908Y-163844405D01*
X136264954Y-163652607D01*
X136755641Y-162918242D01*
X136927947Y-162052000D01*
X136755641Y-161185758D01*
X136264954Y-160451393D01*
X135530589Y-159960706D01*
X134664347Y-159788400D01*
X134575653Y-159788400D01*
X133709411Y-159960706D01*
X132975046Y-160451393D01*
X132484359Y-161185758D01*
X132312053Y-162052000D01*
X125622000Y-162052000D01*
X125622000Y-153562000D01*
X209059177Y-153562000D01*
X208192285Y-153920192D01*
X208192285Y-153920192D01*
G37*
X208192285Y-153920192D02*
X207516565Y-154594734D01*
X207150417Y-155476516D01*
X207149584Y-156431295D01*
X207514192Y-157313715D01*
X208188734Y-157989435D01*
X209070516Y-158355583D01*
X210025295Y-158356416D01*
X210907715Y-157991808D01*
X211583435Y-157317266D01*
X211949583Y-156435484D01*
X211950416Y-155480705D01*
X211585808Y-154598285D01*
X210911266Y-153922565D01*
X210042929Y-153562000D01*
X277464231Y-153562000D01*
X276850785Y-153815470D01*
X276372150Y-154293270D01*
X276112796Y-154917866D01*
X276112206Y-155594167D01*
X276370470Y-156219215D01*
X276521990Y-156371000D01*
X275640800Y-156371000D01*
X275070601Y-156484419D01*
X274587211Y-156807411D01*
X271899422Y-159495200D01*
X240951978Y-159495200D01*
X240778789Y-159322011D01*
X240295399Y-158999019D01*
X239725200Y-158885600D01*
X239343448Y-158961535D01*
X238962230Y-158579650D01*
X238337634Y-158320296D01*
X237661333Y-158319706D01*
X237617666Y-158337749D01*
X237575634Y-158320296D01*
X236899333Y-158319706D01*
X236274285Y-158577970D01*
X235795650Y-159055770D01*
X235613183Y-159495200D01*
X228981000Y-159495200D01*
X228410802Y-159608619D01*
X228050074Y-159849650D01*
X227927411Y-159931611D01*
X224626556Y-163232466D01*
X224581030Y-163122285D01*
X224103230Y-162643650D01*
X223478634Y-162384296D01*
X222802333Y-162383706D01*
X222650000Y-162446649D01*
X222650000Y-157480000D01*
X222618486Y-157324378D01*
X222528908Y-157193277D01*
X222395383Y-157107356D01*
X222250000Y-157080000D01*
X213614000Y-157080000D01*
X213458378Y-157111514D01*
X213327277Y-157201092D01*
X213241356Y-157334617D01*
X213214000Y-157480000D01*
X213214000Y-164016400D01*
X158679434Y-164016400D01*
X158354999Y-163799619D01*
X157784800Y-163686200D01*
X157048200Y-163686200D01*
X156478001Y-163799619D01*
X155994611Y-164122611D01*
X153351621Y-166765601D01*
X136855066Y-166765601D01*
X136755641Y-166265758D01*
X136264954Y-165531393D01*
X135977908Y-165339595D01*
X136145544Y-164934869D01*
X136004995Y-164692000D01*
X134720000Y-164692000D01*
X134720000Y-164712000D01*
X134520000Y-164712000D01*
X134520000Y-164692000D01*
X133235005Y-164692000D01*
X133094456Y-164934869D01*
X133262092Y-165339595D01*
X132975046Y-165531393D01*
X132484359Y-166265758D01*
X132350761Y-166937400D01*
X127406400Y-166937400D01*
X126836202Y-167050819D01*
X126486624Y-167284400D01*
X126352811Y-167373811D01*
X125622000Y-168104622D01*
X125622000Y-162052000D01*
X132312053Y-162052000D01*
X132484359Y-162918242D01*
X132975046Y-163652607D01*
X133262092Y-163844405D01*
X133094456Y-164249131D01*
X133235005Y-164492000D01*
X134520000Y-164492000D01*
X134520000Y-164472000D01*
X134720000Y-164472000D01*
X134720000Y-164492000D01*
X136004995Y-164492000D01*
X136145544Y-164249131D01*
X135977908Y-163844405D01*
X136264954Y-163652607D01*
X136755641Y-162918242D01*
X136927947Y-162052000D01*
X136755641Y-161185758D01*
X136264954Y-160451393D01*
X135530589Y-159960706D01*
X134664347Y-159788400D01*
X134575653Y-159788400D01*
X133709411Y-159960706D01*
X132975046Y-160451393D01*
X132484359Y-161185758D01*
X132312053Y-162052000D01*
X125622000Y-162052000D01*
X125622000Y-153562000D01*
X209059177Y-153562000D01*
X208192285Y-153920192D01*
G36*
X310242000Y-162052000D02*
X310273514Y-162207622D01*
X310363092Y-162338723D01*
X310496617Y-162424644D01*
X310642000Y-162452000D01*
X319640000Y-162452000D01*
X319640000Y-167373387D01*
X319622809Y-167286962D01*
X319135070Y-166557010D01*
X318841411Y-166360793D01*
X319012084Y-165948737D01*
X318871359Y-165708000D01*
X317600000Y-165708000D01*
X317600000Y-165728000D01*
X317400000Y-165728000D01*
X317400000Y-165708000D01*
X316128641Y-165708000D01*
X315987916Y-165948737D01*
X316158589Y-166360793D01*
X315864930Y-166557010D01*
X315597310Y-166957532D01*
X313907041Y-165267263D01*
X315987916Y-165267263D01*
X316128641Y-165508000D01*
X317400000Y-165508000D01*
X317400000Y-164236222D01*
X317600000Y-164236222D01*
X317600000Y-165508000D01*
X318871359Y-165508000D01*
X319012084Y-165267263D01*
X318810148Y-164779728D01*
X318393453Y-164341405D01*
X317840738Y-164095909D01*
X317600000Y-164236222D01*
X317400000Y-164236222D01*
X317159262Y-164095909D01*
X316606547Y-164341405D01*
X316189852Y-164779728D01*
X315987916Y-165267263D01*
X313907041Y-165267263D01*
X313041789Y-164402011D01*
X312558399Y-164079019D01*
X311988200Y-163965600D01*
X303283578Y-163965600D01*
X300944645Y-161626667D01*
X302337706Y-161626667D01*
X302595970Y-162251715D01*
X303073770Y-162730350D01*
X303698366Y-162989704D01*
X304374667Y-162990294D01*
X304999715Y-162732030D01*
X305478350Y-162254230D01*
X305737704Y-161629634D01*
X305738294Y-160953333D01*
X305480030Y-160328285D01*
X305002230Y-159849650D01*
X304377634Y-159590296D01*
X303701333Y-159589706D01*
X303076285Y-159847970D01*
X302597650Y-160325770D01*
X302338296Y-160950366D01*
X302337706Y-161626667D01*
X300944645Y-161626667D01*
X297067519Y-157749541D01*
X297303515Y-157652030D01*
X297782150Y-157174230D01*
X298041504Y-156549634D01*
X298042094Y-155873333D01*
X297783830Y-155248285D01*
X297306030Y-154769650D01*
X296681434Y-154510296D01*
X296005133Y-154509706D01*
X295380085Y-154767970D01*
X294901450Y-155245770D01*
X294642096Y-155870366D01*
X294641659Y-156371000D01*
X279103319Y-156371000D01*
X279252850Y-156221730D01*
X279512204Y-155597134D01*
X279512794Y-154920833D01*
X279254530Y-154295785D01*
X278776730Y-153817150D01*
X278162258Y-153562000D01*
X310242000Y-153562000D01*
X310242000Y-162052000D01*
X310242000Y-162052000D01*
G37*
X310242000Y-162052000D02*
X310273514Y-162207622D01*
X310363092Y-162338723D01*
X310496617Y-162424644D01*
X310642000Y-162452000D01*
X319640000Y-162452000D01*
X319640000Y-167373387D01*
X319622809Y-167286962D01*
X319135070Y-166557010D01*
X318841411Y-166360793D01*
X319012084Y-165948737D01*
X318871359Y-165708000D01*
X317600000Y-165708000D01*
X317600000Y-165728000D01*
X317400000Y-165728000D01*
X317400000Y-165708000D01*
X316128641Y-165708000D01*
X315987916Y-165948737D01*
X316158589Y-166360793D01*
X315864930Y-166557010D01*
X315597310Y-166957532D01*
X313907041Y-165267263D01*
X315987916Y-165267263D01*
X316128641Y-165508000D01*
X317400000Y-165508000D01*
X317400000Y-164236222D01*
X317600000Y-164236222D01*
X317600000Y-165508000D01*
X318871359Y-165508000D01*
X319012084Y-165267263D01*
X318810148Y-164779728D01*
X318393453Y-164341405D01*
X317840738Y-164095909D01*
X317600000Y-164236222D01*
X317400000Y-164236222D01*
X317159262Y-164095909D01*
X316606547Y-164341405D01*
X316189852Y-164779728D01*
X315987916Y-165267263D01*
X313907041Y-165267263D01*
X313041789Y-164402011D01*
X312558399Y-164079019D01*
X311988200Y-163965600D01*
X303283578Y-163965600D01*
X300944645Y-161626667D01*
X302337706Y-161626667D01*
X302595970Y-162251715D01*
X303073770Y-162730350D01*
X303698366Y-162989704D01*
X304374667Y-162990294D01*
X304999715Y-162732030D01*
X305478350Y-162254230D01*
X305737704Y-161629634D01*
X305738294Y-160953333D01*
X305480030Y-160328285D01*
X305002230Y-159849650D01*
X304377634Y-159590296D01*
X303701333Y-159589706D01*
X303076285Y-159847970D01*
X302597650Y-160325770D01*
X302338296Y-160950366D01*
X302337706Y-161626667D01*
X300944645Y-161626667D01*
X297067519Y-157749541D01*
X297303515Y-157652030D01*
X297782150Y-157174230D01*
X298041504Y-156549634D01*
X298042094Y-155873333D01*
X297783830Y-155248285D01*
X297306030Y-154769650D01*
X296681434Y-154510296D01*
X296005133Y-154509706D01*
X295380085Y-154767970D01*
X294901450Y-155245770D01*
X294642096Y-155870366D01*
X294641659Y-156371000D01*
X279103319Y-156371000D01*
X279252850Y-156221730D01*
X279512204Y-155597134D01*
X279512794Y-154920833D01*
X279254530Y-154295785D01*
X278776730Y-153817150D01*
X278162258Y-153562000D01*
X310242000Y-153562000D01*
X310242000Y-162052000D01*
G36*
X278287555Y-164473600D02*
X277522956Y-164473600D01*
X277543704Y-164423634D01*
X277544119Y-163948400D01*
X278505636Y-163948400D01*
X278287555Y-164473600D01*
X278287555Y-164473600D01*
G37*
X278287555Y-164473600D02*
X277522956Y-164473600D01*
X277543704Y-164423634D01*
X277544119Y-163948400D01*
X278505636Y-163948400D01*
X278287555Y-164473600D01*
G36*
X303967570Y-195030415D02*
X304445370Y-195509050D01*
X304689572Y-195610451D01*
X304401050Y-195898470D01*
X304141696Y-196523066D01*
X304141106Y-197199367D01*
X304399370Y-197824415D01*
X304877170Y-198303050D01*
X305246276Y-198456316D01*
X304067466Y-199598288D01*
X303821589Y-199352411D01*
X303338199Y-199029419D01*
X302768000Y-198916000D01*
X302564269Y-198916000D01*
X302157430Y-198508450D01*
X301532834Y-198249096D01*
X301491472Y-198249060D01*
X301395430Y-198152850D01*
X300815807Y-197912171D01*
X303758089Y-194969889D01*
X303872074Y-194799298D01*
X303967570Y-195030415D01*
X303967570Y-195030415D01*
G37*
X303967570Y-195030415D02*
X304445370Y-195509050D01*
X304689572Y-195610451D01*
X304401050Y-195898470D01*
X304141696Y-196523066D01*
X304141106Y-197199367D01*
X304399370Y-197824415D01*
X304877170Y-198303050D01*
X305246276Y-198456316D01*
X304067466Y-199598288D01*
X303821589Y-199352411D01*
X303338199Y-199029419D01*
X302768000Y-198916000D01*
X302564269Y-198916000D01*
X302157430Y-198508450D01*
X301532834Y-198249096D01*
X301491472Y-198249060D01*
X301395430Y-198152850D01*
X300815807Y-197912171D01*
X303758089Y-194969889D01*
X303872074Y-194799298D01*
X303967570Y-195030415D01*
G36*
X304971939Y-187681625D02*
X304881200Y-188137800D01*
X304881200Y-192447628D01*
X304447885Y-192626670D01*
X304194500Y-192879613D01*
X304194500Y-186904186D01*
X304971939Y-187681625D01*
X304971939Y-187681625D01*
G37*
X304971939Y-187681625D02*
X304881200Y-188137800D01*
X304881200Y-192447628D01*
X304447885Y-192626670D01*
X304194500Y-192879613D01*
X304194500Y-186904186D01*
X304971939Y-187681625D01*
D54*
G36*
X269169289Y-170758711D02*
X269202371Y-170780650D01*
X269240000Y-170788000D01*
X274728000Y-170788000D01*
X274728000Y-183542000D01*
X268732000Y-183542000D01*
X268693094Y-183549879D01*
X268661289Y-183571289D01*
X266150578Y-186082000D01*
X260450000Y-186082000D01*
X260450000Y-179578000D01*
X260442121Y-179539094D01*
X260420711Y-179507289D01*
X259404711Y-178491289D01*
X259371629Y-178469350D01*
X259334000Y-178462000D01*
X256132000Y-178462000D01*
X256132000Y-176784000D01*
X256124121Y-176745094D01*
X256101727Y-176712319D01*
X256068346Y-176690839D01*
X256032000Y-176684000D01*
X251306000Y-176684000D01*
X251306000Y-169772000D01*
X268182578Y-169772000D01*
X269169289Y-170758711D01*
X269169289Y-170758711D01*
G37*
X269169289Y-170758711D02*
X269202371Y-170780650D01*
X269240000Y-170788000D01*
X274728000Y-170788000D01*
X274728000Y-183542000D01*
X268732000Y-183542000D01*
X268693094Y-183549879D01*
X268661289Y-183571289D01*
X266150578Y-186082000D01*
X260450000Y-186082000D01*
X260450000Y-179578000D01*
X260442121Y-179539094D01*
X260420711Y-179507289D01*
X259404711Y-178491289D01*
X259371629Y-178469350D01*
X259334000Y-178462000D01*
X256132000Y-178462000D01*
X256132000Y-176784000D01*
X256124121Y-176745094D01*
X256101727Y-176712319D01*
X256068346Y-176690839D01*
X256032000Y-176684000D01*
X251306000Y-176684000D01*
X251306000Y-169772000D01*
X268182578Y-169772000D01*
X269169289Y-170758711D01*
D51*
G36*
X156722000Y-196342000D02*
X156741696Y-196439264D01*
X156797682Y-196521202D01*
X156881136Y-196574903D01*
X156972000Y-196592000D01*
X160617151Y-196592000D01*
X162811648Y-201712494D01*
X162355337Y-201491226D01*
X162048000Y-201616824D01*
X162048000Y-203712000D01*
X162068000Y-203712000D01*
X162068000Y-204212000D01*
X162048000Y-204212000D01*
X162048000Y-204232000D01*
X161548000Y-204232000D01*
X161548000Y-204212000D01*
X159798000Y-204212000D01*
X159798000Y-204762000D01*
X160045912Y-205508337D01*
X160469698Y-205998000D01*
X159254000Y-205998000D01*
X159254000Y-203162000D01*
X159798000Y-203162000D01*
X159798000Y-203712000D01*
X161548000Y-203712000D01*
X161548000Y-201616824D01*
X161240663Y-201491226D01*
X160560563Y-201821010D01*
X160045912Y-202415663D01*
X159798000Y-203162000D01*
X159254000Y-203162000D01*
X159254000Y-201422000D01*
X159234304Y-201324736D01*
X159178318Y-201242798D01*
X159094864Y-201189097D01*
X159004000Y-201172000D01*
X156787759Y-201172000D01*
X156718000Y-201158124D01*
X156648241Y-201172000D01*
X151707759Y-201172000D01*
X151638000Y-201158124D01*
X151568241Y-201172000D01*
X146627759Y-201172000D01*
X146558000Y-201158124D01*
X146488241Y-201172000D01*
X141982000Y-201172000D01*
X141982000Y-198480436D01*
X148436693Y-192274000D01*
X156722000Y-192274000D01*
X156722000Y-196342000D01*
X156722000Y-196342000D01*
G37*
X156722000Y-196342000D02*
X156741696Y-196439264D01*
X156797682Y-196521202D01*
X156881136Y-196574903D01*
X156972000Y-196592000D01*
X160617151Y-196592000D01*
X162811648Y-201712494D01*
X162355337Y-201491226D01*
X162048000Y-201616824D01*
X162048000Y-203712000D01*
X162068000Y-203712000D01*
X162068000Y-204212000D01*
X162048000Y-204212000D01*
X162048000Y-204232000D01*
X161548000Y-204232000D01*
X161548000Y-204212000D01*
X159798000Y-204212000D01*
X159798000Y-204762000D01*
X160045912Y-205508337D01*
X160469698Y-205998000D01*
X159254000Y-205998000D01*
X159254000Y-203162000D01*
X159798000Y-203162000D01*
X159798000Y-203712000D01*
X161548000Y-203712000D01*
X161548000Y-201616824D01*
X161240663Y-201491226D01*
X160560563Y-201821010D01*
X160045912Y-202415663D01*
X159798000Y-203162000D01*
X159254000Y-203162000D01*
X159254000Y-201422000D01*
X159234304Y-201324736D01*
X159178318Y-201242798D01*
X159094864Y-201189097D01*
X159004000Y-201172000D01*
X156787759Y-201172000D01*
X156718000Y-201158124D01*
X156648241Y-201172000D01*
X151707759Y-201172000D01*
X151638000Y-201158124D01*
X151568241Y-201172000D01*
X146627759Y-201172000D01*
X146558000Y-201158124D01*
X146488241Y-201172000D01*
X141982000Y-201172000D01*
X141982000Y-198480436D01*
X148436693Y-192274000D01*
X156722000Y-192274000D01*
X156722000Y-196342000D01*
D53*
G36*
X132975046Y-176352607D02*
X133179499Y-176489218D01*
X132995496Y-176933457D01*
X133159820Y-177192000D01*
X134520000Y-177192000D01*
X134520000Y-177172000D01*
X134720000Y-177172000D01*
X134720000Y-177192000D01*
X136080180Y-177192000D01*
X136244504Y-176933457D01*
X136060501Y-176489218D01*
X136264954Y-176352607D01*
X136558022Y-175914000D01*
X165108322Y-175914000D01*
X164832400Y-176578495D01*
X164831601Y-177493491D01*
X165181018Y-178339143D01*
X165827453Y-178986708D01*
X166672495Y-179337600D01*
X167587491Y-179338399D01*
X168433143Y-178988982D01*
X169080708Y-178342547D01*
X169431600Y-177497505D01*
X169432399Y-176582509D01*
X169156176Y-175914000D01*
X193084522Y-175914000D01*
X192864296Y-176444366D01*
X192863706Y-177120667D01*
X193121970Y-177745715D01*
X193599770Y-178224350D01*
X193621578Y-178233406D01*
X193629970Y-178253715D01*
X194107770Y-178732350D01*
X194732366Y-178991704D01*
X195408667Y-178992294D01*
X195579648Y-178921646D01*
X195748366Y-178991704D01*
X196424667Y-178992294D01*
X197049715Y-178734030D01*
X197528350Y-178256230D01*
X197537406Y-178234422D01*
X197557715Y-178226030D01*
X198036350Y-177748230D01*
X198295704Y-177123634D01*
X198296294Y-176447333D01*
X198075926Y-175914000D01*
X214992000Y-175914000D01*
X214992000Y-184346437D01*
X210814421Y-187909666D01*
X210716470Y-188034634D01*
X210674000Y-188214000D01*
X210674000Y-195688000D01*
X210626000Y-195688000D01*
X210626000Y-194864000D01*
X210426000Y-194664000D01*
X208126000Y-194664000D01*
X208126000Y-194684000D01*
X207926000Y-194684000D01*
X207926000Y-194664000D01*
X207906000Y-194664000D01*
X207906000Y-194464000D01*
X207926000Y-194464000D01*
X207926000Y-192714000D01*
X208126000Y-192714000D01*
X208126000Y-194464000D01*
X210426000Y-194464000D01*
X210626000Y-194264000D01*
X210626000Y-193154870D01*
X210504207Y-192860836D01*
X210279164Y-192635793D01*
X209985130Y-192514000D01*
X208326000Y-192514000D01*
X208126000Y-192714000D01*
X207926000Y-192714000D01*
X207726000Y-192514000D01*
X206066870Y-192514000D01*
X205772836Y-192635793D01*
X205547793Y-192860836D01*
X205426000Y-193154870D01*
X205426000Y-193656000D01*
X195580000Y-193656000D01*
X195424378Y-193687514D01*
X195293277Y-193777092D01*
X195207356Y-193910617D01*
X195180000Y-194056000D01*
X195180000Y-206864000D01*
X192034301Y-206864000D01*
X192194350Y-206704230D01*
X192453704Y-206079634D01*
X192454294Y-205403333D01*
X192383646Y-205232352D01*
X192453704Y-205063634D01*
X192454294Y-204387333D01*
X192331042Y-204089039D01*
X192453704Y-203793634D01*
X192454294Y-203117333D01*
X192196030Y-202492285D01*
X191866474Y-202162153D01*
X191688030Y-201730285D01*
X191210230Y-201251650D01*
X190585634Y-200992296D01*
X189909333Y-200991706D01*
X189293224Y-201246276D01*
X188639333Y-201245706D01*
X188014285Y-201503970D01*
X187535650Y-201981770D01*
X187276296Y-202606366D01*
X187275706Y-203282667D01*
X187504168Y-203835588D01*
X187276296Y-204384366D01*
X187275706Y-205060667D01*
X187398958Y-205358961D01*
X187276296Y-205654366D01*
X187275706Y-206330667D01*
X187496074Y-206864000D01*
X164484000Y-206864000D01*
X164484000Y-204262000D01*
X164828000Y-204262000D01*
X164828000Y-205921130D01*
X164949793Y-206215164D01*
X165174836Y-206440207D01*
X165468870Y-206562000D01*
X166578000Y-206562000D01*
X166778000Y-206362000D01*
X166778000Y-204062000D01*
X166978000Y-204062000D01*
X166978000Y-206362000D01*
X167178000Y-206562000D01*
X168287130Y-206562000D01*
X168581164Y-206440207D01*
X168806207Y-206215164D01*
X168928000Y-205921130D01*
X168928000Y-204262000D01*
X168728000Y-204062000D01*
X166978000Y-204062000D01*
X166778000Y-204062000D01*
X165028000Y-204062000D01*
X164828000Y-204262000D01*
X164484000Y-204262000D01*
X164484000Y-202002870D01*
X164828000Y-202002870D01*
X164828000Y-203662000D01*
X165028000Y-203862000D01*
X166778000Y-203862000D01*
X166778000Y-201562000D01*
X166978000Y-201562000D01*
X166978000Y-203862000D01*
X168728000Y-203862000D01*
X168928000Y-203662000D01*
X168928000Y-202002870D01*
X168811660Y-201722000D01*
X176604000Y-201722000D01*
X176604000Y-202231130D01*
X176725793Y-202525164D01*
X176950836Y-202750207D01*
X177244870Y-202872000D01*
X177754000Y-202872000D01*
X177954000Y-202672000D01*
X177954000Y-201522000D01*
X178154000Y-201522000D01*
X178154000Y-202672000D01*
X178354000Y-202872000D01*
X178863130Y-202872000D01*
X179157164Y-202750207D01*
X179382207Y-202525164D01*
X179504000Y-202231130D01*
X179504000Y-201827981D01*
X181003645Y-201827981D01*
X181315081Y-202581715D01*
X181891252Y-203158892D01*
X182644441Y-203471643D01*
X183459981Y-203472355D01*
X184213715Y-203160919D01*
X184790892Y-202584748D01*
X185103643Y-201831559D01*
X185104355Y-201016019D01*
X184792919Y-200262285D01*
X184216748Y-199685108D01*
X183463559Y-199372357D01*
X182648019Y-199371645D01*
X181894285Y-199683081D01*
X181317108Y-200259252D01*
X181004357Y-201012441D01*
X181003645Y-201827981D01*
X179504000Y-201827981D01*
X179504000Y-201722000D01*
X179304000Y-201522000D01*
X178154000Y-201522000D01*
X177954000Y-201522000D01*
X176804000Y-201522000D01*
X176604000Y-201722000D01*
X168811660Y-201722000D01*
X168806207Y-201708836D01*
X168581164Y-201483793D01*
X168287130Y-201362000D01*
X167178000Y-201362000D01*
X166978000Y-201562000D01*
X166778000Y-201562000D01*
X166578000Y-201362000D01*
X165468870Y-201362000D01*
X165174836Y-201483793D01*
X164949793Y-201708836D01*
X164828000Y-202002870D01*
X164484000Y-202002870D01*
X164484000Y-200612870D01*
X176604000Y-200612870D01*
X176604000Y-201122000D01*
X176804000Y-201322000D01*
X177954000Y-201322000D01*
X177954000Y-200172000D01*
X178154000Y-200172000D01*
X178154000Y-201322000D01*
X179304000Y-201322000D01*
X179504000Y-201122000D01*
X179504000Y-200612870D01*
X179382207Y-200318836D01*
X179157164Y-200093793D01*
X178863130Y-199972000D01*
X178354000Y-199972000D01*
X178154000Y-200172000D01*
X177954000Y-200172000D01*
X177754000Y-199972000D01*
X177244870Y-199972000D01*
X176950836Y-200093793D01*
X176725793Y-200318836D01*
X176604000Y-200612870D01*
X164484000Y-200612870D01*
X164484000Y-200406000D01*
X164452486Y-200250378D01*
X164362908Y-200119277D01*
X164229383Y-200033356D01*
X164089063Y-200006953D01*
X161944000Y-195240145D01*
X161944000Y-191852667D01*
X167971706Y-191852667D01*
X168042354Y-192023648D01*
X167972296Y-192192366D01*
X167971706Y-192868667D01*
X168042354Y-193039648D01*
X167972296Y-193208366D01*
X167971706Y-193884667D01*
X168229970Y-194509715D01*
X168707770Y-194988350D01*
X169332366Y-195247704D01*
X170008667Y-195248294D01*
X170306961Y-195125042D01*
X170602366Y-195247704D01*
X171278667Y-195248294D01*
X171576961Y-195125042D01*
X171872366Y-195247704D01*
X172548667Y-195248294D01*
X173173715Y-194990030D01*
X173652350Y-194512230D01*
X173911704Y-193887634D01*
X173912294Y-193211333D01*
X173841646Y-193040352D01*
X173911704Y-192871634D01*
X173912294Y-192195333D01*
X173841646Y-192024352D01*
X173911704Y-191855634D01*
X173912294Y-191179333D01*
X173654030Y-190554285D01*
X173176230Y-190075650D01*
X172551634Y-189816296D01*
X171875333Y-189815706D01*
X171577039Y-189938958D01*
X171281634Y-189816296D01*
X170605333Y-189815706D01*
X170307039Y-189938958D01*
X170011634Y-189816296D01*
X169335333Y-189815706D01*
X168710285Y-190073970D01*
X168231650Y-190551770D01*
X167972296Y-191176366D01*
X167971706Y-191852667D01*
X161944000Y-191852667D01*
X161944000Y-190246000D01*
X161912486Y-190090378D01*
X161822908Y-189959277D01*
X161689383Y-189873356D01*
X161544000Y-189846000D01*
X150831478Y-189846000D01*
X151051704Y-189315634D01*
X151052294Y-188639333D01*
X150981646Y-188468352D01*
X151051704Y-188299634D01*
X151052294Y-187623333D01*
X150895558Y-187244000D01*
X176604000Y-187244000D01*
X176604000Y-187753130D01*
X176725793Y-188047164D01*
X176950836Y-188272207D01*
X177244870Y-188394000D01*
X177754000Y-188394000D01*
X177954000Y-188194000D01*
X177954000Y-187044000D01*
X178154000Y-187044000D01*
X178154000Y-188194000D01*
X178354000Y-188394000D01*
X178863130Y-188394000D01*
X179157164Y-188272207D01*
X179382207Y-188047164D01*
X179504000Y-187753130D01*
X179504000Y-187349981D01*
X181003645Y-187349981D01*
X181315081Y-188103715D01*
X181891252Y-188680892D01*
X182644441Y-188993643D01*
X183459981Y-188994355D01*
X183919061Y-188804667D01*
X187529706Y-188804667D01*
X187787970Y-189429715D01*
X188265770Y-189908350D01*
X188890366Y-190167704D01*
X189566667Y-190168294D01*
X189688388Y-190118000D01*
X191818665Y-190118000D01*
X191938366Y-190167704D01*
X192614667Y-190168294D01*
X193239715Y-189910030D01*
X193718350Y-189432230D01*
X193977704Y-188807634D01*
X193978294Y-188131333D01*
X193720030Y-187506285D01*
X193242230Y-187027650D01*
X192617634Y-186768296D01*
X191941333Y-186767706D01*
X191819612Y-186818000D01*
X189689335Y-186818000D01*
X189569634Y-186768296D01*
X188893333Y-186767706D01*
X188268285Y-187025970D01*
X187789650Y-187503770D01*
X187530296Y-188128366D01*
X187529706Y-188804667D01*
X183919061Y-188804667D01*
X184213715Y-188682919D01*
X184790892Y-188106748D01*
X185103643Y-187353559D01*
X185104355Y-186538019D01*
X184792919Y-185784285D01*
X184221632Y-185212000D01*
X209116000Y-185212000D01*
X209116000Y-185721130D01*
X209237793Y-186015164D01*
X209462836Y-186240207D01*
X209756870Y-186362000D01*
X210266000Y-186362000D01*
X210466000Y-186162000D01*
X210466000Y-185012000D01*
X210666000Y-185012000D01*
X210666000Y-186162000D01*
X210866000Y-186362000D01*
X211375130Y-186362000D01*
X211669164Y-186240207D01*
X211894207Y-186015164D01*
X212016000Y-185721130D01*
X212016000Y-185212000D01*
X211816000Y-185012000D01*
X210666000Y-185012000D01*
X210466000Y-185012000D01*
X209316000Y-185012000D01*
X209116000Y-185212000D01*
X184221632Y-185212000D01*
X184216748Y-185207108D01*
X183463559Y-184894357D01*
X182648019Y-184893645D01*
X181894285Y-185205081D01*
X181317108Y-185781252D01*
X181004357Y-186534441D01*
X181003645Y-187349981D01*
X179504000Y-187349981D01*
X179504000Y-187244000D01*
X179304000Y-187044000D01*
X178154000Y-187044000D01*
X177954000Y-187044000D01*
X176804000Y-187044000D01*
X176604000Y-187244000D01*
X150895558Y-187244000D01*
X150794030Y-186998285D01*
X150486164Y-186689881D01*
X150792350Y-186384230D01*
X150895892Y-186134870D01*
X176604000Y-186134870D01*
X176604000Y-186644000D01*
X176804000Y-186844000D01*
X177954000Y-186844000D01*
X177954000Y-185694000D01*
X178154000Y-185694000D01*
X178154000Y-186844000D01*
X179304000Y-186844000D01*
X179504000Y-186644000D01*
X179504000Y-186134870D01*
X179382207Y-185840836D01*
X179157164Y-185615793D01*
X178863130Y-185494000D01*
X178354000Y-185494000D01*
X178154000Y-185694000D01*
X177954000Y-185694000D01*
X177754000Y-185494000D01*
X177244870Y-185494000D01*
X176950836Y-185615793D01*
X176725793Y-185840836D01*
X176604000Y-186134870D01*
X150895892Y-186134870D01*
X151051704Y-185759634D01*
X151052294Y-185083333D01*
X151002000Y-184961612D01*
X151002000Y-184102870D01*
X209116000Y-184102870D01*
X209116000Y-184612000D01*
X209316000Y-184812000D01*
X210466000Y-184812000D01*
X210466000Y-183662000D01*
X210666000Y-183662000D01*
X210666000Y-184812000D01*
X211816000Y-184812000D01*
X212016000Y-184612000D01*
X212016000Y-184102870D01*
X211894207Y-183808836D01*
X211669164Y-183583793D01*
X211375130Y-183462000D01*
X210866000Y-183462000D01*
X210666000Y-183662000D01*
X210466000Y-183662000D01*
X210266000Y-183462000D01*
X209756870Y-183462000D01*
X209462836Y-183583793D01*
X209237793Y-183808836D01*
X209116000Y-184102870D01*
X151002000Y-184102870D01*
X151002000Y-183309452D01*
X152618785Y-181692667D01*
X192355706Y-181692667D01*
X192426354Y-181863648D01*
X192356296Y-182032366D01*
X192355706Y-182708667D01*
X192613970Y-183333715D01*
X193091770Y-183812350D01*
X193716366Y-184071704D01*
X194392667Y-184072294D01*
X195017715Y-183814030D01*
X195496350Y-183336230D01*
X195755704Y-182711634D01*
X195756294Y-182035333D01*
X195685646Y-181864352D01*
X195755704Y-181695634D01*
X195756294Y-181019333D01*
X195498030Y-180394285D01*
X195421860Y-180317981D01*
X208515645Y-180317981D01*
X208827081Y-181071715D01*
X209403252Y-181648892D01*
X210156441Y-181961643D01*
X210971981Y-181962355D01*
X211725715Y-181650919D01*
X212302892Y-181074748D01*
X212615643Y-180321559D01*
X212616355Y-179506019D01*
X212304919Y-178752285D01*
X211728748Y-178175108D01*
X210975559Y-177862357D01*
X210160019Y-177861645D01*
X209406285Y-178173081D01*
X208829108Y-178749252D01*
X208516357Y-179502441D01*
X208515645Y-180317981D01*
X195421860Y-180317981D01*
X195020230Y-179915650D01*
X194395634Y-179656296D01*
X193719333Y-179655706D01*
X193094285Y-179913970D01*
X192615650Y-180391770D01*
X192356296Y-181016366D01*
X192355706Y-181692667D01*
X152618785Y-181692667D01*
X153749927Y-180561525D01*
X153869715Y-180512030D01*
X154348350Y-180034230D01*
X154607704Y-179409634D01*
X154608294Y-178733333D01*
X154350030Y-178108285D01*
X153872230Y-177629650D01*
X153247634Y-177370296D01*
X152571333Y-177369706D01*
X151946285Y-177627970D01*
X151467650Y-178105770D01*
X151417143Y-178227405D01*
X148185274Y-181459274D01*
X147827599Y-181994572D01*
X147702000Y-182626000D01*
X147702000Y-184960665D01*
X147652296Y-185080366D01*
X147651706Y-185756667D01*
X147754702Y-186005936D01*
X147491333Y-186005706D01*
X146866285Y-186263970D01*
X146387650Y-186741770D01*
X146303886Y-186943497D01*
X146104285Y-187025970D01*
X145625650Y-187503770D01*
X145366296Y-188128366D01*
X145365706Y-188804667D01*
X145623970Y-189429715D01*
X146101770Y-189908350D01*
X146726366Y-190167704D01*
X146869683Y-190167829D01*
X146969526Y-190267847D01*
X147147970Y-190699715D01*
X147232211Y-190784103D01*
X140433157Y-197583157D01*
X140345400Y-197715483D01*
X140316000Y-197866000D01*
X140316000Y-200035566D01*
X140306378Y-200037514D01*
X140179157Y-200123157D01*
X137756314Y-202546000D01*
X125622000Y-202546000D01*
X125622000Y-192324000D01*
X130376000Y-192324000D01*
X130376000Y-192833130D01*
X130497793Y-193127164D01*
X130722836Y-193352207D01*
X131016870Y-193474000D01*
X131526000Y-193474000D01*
X131726000Y-193274000D01*
X131726000Y-192124000D01*
X131926000Y-192124000D01*
X131926000Y-193274000D01*
X132126000Y-193474000D01*
X132635130Y-193474000D01*
X132929164Y-193352207D01*
X133154207Y-193127164D01*
X133276000Y-192833130D01*
X133276000Y-192429981D01*
X134775645Y-192429981D01*
X135087081Y-193183715D01*
X135663252Y-193760892D01*
X136416441Y-194073643D01*
X137231981Y-194074355D01*
X137985715Y-193762919D01*
X138562892Y-193186748D01*
X138875643Y-192433559D01*
X138876355Y-191618019D01*
X138564919Y-190864285D01*
X137988748Y-190287108D01*
X137235559Y-189974357D01*
X136420019Y-189973645D01*
X135666285Y-190285081D01*
X135089108Y-190861252D01*
X134776357Y-191614441D01*
X134775645Y-192429981D01*
X133276000Y-192429981D01*
X133276000Y-192324000D01*
X133076000Y-192124000D01*
X131926000Y-192124000D01*
X131726000Y-192124000D01*
X130576000Y-192124000D01*
X130376000Y-192324000D01*
X125622000Y-192324000D01*
X125622000Y-191214870D01*
X130376000Y-191214870D01*
X130376000Y-191724000D01*
X130576000Y-191924000D01*
X131726000Y-191924000D01*
X131726000Y-190774000D01*
X131926000Y-190774000D01*
X131926000Y-191924000D01*
X133076000Y-191924000D01*
X133276000Y-191724000D01*
X133276000Y-191214870D01*
X133154207Y-190920836D01*
X132929164Y-190695793D01*
X132635130Y-190574000D01*
X132126000Y-190574000D01*
X131926000Y-190774000D01*
X131726000Y-190774000D01*
X131526000Y-190574000D01*
X131016870Y-190574000D01*
X130722836Y-190695793D01*
X130497793Y-190920836D01*
X130376000Y-191214870D01*
X125622000Y-191214870D01*
X125622000Y-178968400D01*
X132328973Y-178968400D01*
X132328973Y-180695600D01*
X132426594Y-181214409D01*
X132733209Y-181690903D01*
X133201051Y-182010566D01*
X133756400Y-182123027D01*
X135483600Y-182123027D01*
X136002409Y-182025406D01*
X136478903Y-181718791D01*
X136798566Y-181250949D01*
X136911027Y-180695600D01*
X136911027Y-178968400D01*
X136813406Y-178449591D01*
X136506791Y-177973097D01*
X136198229Y-177762265D01*
X136244504Y-177650543D01*
X136080180Y-177392000D01*
X134720000Y-177392000D01*
X134720000Y-177412000D01*
X134520000Y-177412000D01*
X134520000Y-177392000D01*
X133159820Y-177392000D01*
X132995496Y-177650543D01*
X133042535Y-177764109D01*
X132761097Y-177945209D01*
X132441434Y-178413051D01*
X132328973Y-178968400D01*
X125622000Y-178968400D01*
X125622000Y-175914000D01*
X132681978Y-175914000D01*
X132975046Y-176352607D01*
X132975046Y-176352607D01*
G37*
X132975046Y-176352607D02*
X133179499Y-176489218D01*
X132995496Y-176933457D01*
X133159820Y-177192000D01*
X134520000Y-177192000D01*
X134520000Y-177172000D01*
X134720000Y-177172000D01*
X134720000Y-177192000D01*
X136080180Y-177192000D01*
X136244504Y-176933457D01*
X136060501Y-176489218D01*
X136264954Y-176352607D01*
X136558022Y-175914000D01*
X165108322Y-175914000D01*
X164832400Y-176578495D01*
X164831601Y-177493491D01*
X165181018Y-178339143D01*
X165827453Y-178986708D01*
X166672495Y-179337600D01*
X167587491Y-179338399D01*
X168433143Y-178988982D01*
X169080708Y-178342547D01*
X169431600Y-177497505D01*
X169432399Y-176582509D01*
X169156176Y-175914000D01*
X193084522Y-175914000D01*
X192864296Y-176444366D01*
X192863706Y-177120667D01*
X193121970Y-177745715D01*
X193599770Y-178224350D01*
X193621578Y-178233406D01*
X193629970Y-178253715D01*
X194107770Y-178732350D01*
X194732366Y-178991704D01*
X195408667Y-178992294D01*
X195579648Y-178921646D01*
X195748366Y-178991704D01*
X196424667Y-178992294D01*
X197049715Y-178734030D01*
X197528350Y-178256230D01*
X197537406Y-178234422D01*
X197557715Y-178226030D01*
X198036350Y-177748230D01*
X198295704Y-177123634D01*
X198296294Y-176447333D01*
X198075926Y-175914000D01*
X214992000Y-175914000D01*
X214992000Y-184346437D01*
X210814421Y-187909666D01*
X210716470Y-188034634D01*
X210674000Y-188214000D01*
X210674000Y-195688000D01*
X210626000Y-195688000D01*
X210626000Y-194864000D01*
X210426000Y-194664000D01*
X208126000Y-194664000D01*
X208126000Y-194684000D01*
X207926000Y-194684000D01*
X207926000Y-194664000D01*
X207906000Y-194664000D01*
X207906000Y-194464000D01*
X207926000Y-194464000D01*
X207926000Y-192714000D01*
X208126000Y-192714000D01*
X208126000Y-194464000D01*
X210426000Y-194464000D01*
X210626000Y-194264000D01*
X210626000Y-193154870D01*
X210504207Y-192860836D01*
X210279164Y-192635793D01*
X209985130Y-192514000D01*
X208326000Y-192514000D01*
X208126000Y-192714000D01*
X207926000Y-192714000D01*
X207726000Y-192514000D01*
X206066870Y-192514000D01*
X205772836Y-192635793D01*
X205547793Y-192860836D01*
X205426000Y-193154870D01*
X205426000Y-193656000D01*
X195580000Y-193656000D01*
X195424378Y-193687514D01*
X195293277Y-193777092D01*
X195207356Y-193910617D01*
X195180000Y-194056000D01*
X195180000Y-206864000D01*
X192034301Y-206864000D01*
X192194350Y-206704230D01*
X192453704Y-206079634D01*
X192454294Y-205403333D01*
X192383646Y-205232352D01*
X192453704Y-205063634D01*
X192454294Y-204387333D01*
X192331042Y-204089039D01*
X192453704Y-203793634D01*
X192454294Y-203117333D01*
X192196030Y-202492285D01*
X191866474Y-202162153D01*
X191688030Y-201730285D01*
X191210230Y-201251650D01*
X190585634Y-200992296D01*
X189909333Y-200991706D01*
X189293224Y-201246276D01*
X188639333Y-201245706D01*
X188014285Y-201503970D01*
X187535650Y-201981770D01*
X187276296Y-202606366D01*
X187275706Y-203282667D01*
X187504168Y-203835588D01*
X187276296Y-204384366D01*
X187275706Y-205060667D01*
X187398958Y-205358961D01*
X187276296Y-205654366D01*
X187275706Y-206330667D01*
X187496074Y-206864000D01*
X164484000Y-206864000D01*
X164484000Y-204262000D01*
X164828000Y-204262000D01*
X164828000Y-205921130D01*
X164949793Y-206215164D01*
X165174836Y-206440207D01*
X165468870Y-206562000D01*
X166578000Y-206562000D01*
X166778000Y-206362000D01*
X166778000Y-204062000D01*
X166978000Y-204062000D01*
X166978000Y-206362000D01*
X167178000Y-206562000D01*
X168287130Y-206562000D01*
X168581164Y-206440207D01*
X168806207Y-206215164D01*
X168928000Y-205921130D01*
X168928000Y-204262000D01*
X168728000Y-204062000D01*
X166978000Y-204062000D01*
X166778000Y-204062000D01*
X165028000Y-204062000D01*
X164828000Y-204262000D01*
X164484000Y-204262000D01*
X164484000Y-202002870D01*
X164828000Y-202002870D01*
X164828000Y-203662000D01*
X165028000Y-203862000D01*
X166778000Y-203862000D01*
X166778000Y-201562000D01*
X166978000Y-201562000D01*
X166978000Y-203862000D01*
X168728000Y-203862000D01*
X168928000Y-203662000D01*
X168928000Y-202002870D01*
X168811660Y-201722000D01*
X176604000Y-201722000D01*
X176604000Y-202231130D01*
X176725793Y-202525164D01*
X176950836Y-202750207D01*
X177244870Y-202872000D01*
X177754000Y-202872000D01*
X177954000Y-202672000D01*
X177954000Y-201522000D01*
X178154000Y-201522000D01*
X178154000Y-202672000D01*
X178354000Y-202872000D01*
X178863130Y-202872000D01*
X179157164Y-202750207D01*
X179382207Y-202525164D01*
X179504000Y-202231130D01*
X179504000Y-201827981D01*
X181003645Y-201827981D01*
X181315081Y-202581715D01*
X181891252Y-203158892D01*
X182644441Y-203471643D01*
X183459981Y-203472355D01*
X184213715Y-203160919D01*
X184790892Y-202584748D01*
X185103643Y-201831559D01*
X185104355Y-201016019D01*
X184792919Y-200262285D01*
X184216748Y-199685108D01*
X183463559Y-199372357D01*
X182648019Y-199371645D01*
X181894285Y-199683081D01*
X181317108Y-200259252D01*
X181004357Y-201012441D01*
X181003645Y-201827981D01*
X179504000Y-201827981D01*
X179504000Y-201722000D01*
X179304000Y-201522000D01*
X178154000Y-201522000D01*
X177954000Y-201522000D01*
X176804000Y-201522000D01*
X176604000Y-201722000D01*
X168811660Y-201722000D01*
X168806207Y-201708836D01*
X168581164Y-201483793D01*
X168287130Y-201362000D01*
X167178000Y-201362000D01*
X166978000Y-201562000D01*
X166778000Y-201562000D01*
X166578000Y-201362000D01*
X165468870Y-201362000D01*
X165174836Y-201483793D01*
X164949793Y-201708836D01*
X164828000Y-202002870D01*
X164484000Y-202002870D01*
X164484000Y-200612870D01*
X176604000Y-200612870D01*
X176604000Y-201122000D01*
X176804000Y-201322000D01*
X177954000Y-201322000D01*
X177954000Y-200172000D01*
X178154000Y-200172000D01*
X178154000Y-201322000D01*
X179304000Y-201322000D01*
X179504000Y-201122000D01*
X179504000Y-200612870D01*
X179382207Y-200318836D01*
X179157164Y-200093793D01*
X178863130Y-199972000D01*
X178354000Y-199972000D01*
X178154000Y-200172000D01*
X177954000Y-200172000D01*
X177754000Y-199972000D01*
X177244870Y-199972000D01*
X176950836Y-200093793D01*
X176725793Y-200318836D01*
X176604000Y-200612870D01*
X164484000Y-200612870D01*
X164484000Y-200406000D01*
X164452486Y-200250378D01*
X164362908Y-200119277D01*
X164229383Y-200033356D01*
X164089063Y-200006953D01*
X161944000Y-195240145D01*
X161944000Y-191852667D01*
X167971706Y-191852667D01*
X168042354Y-192023648D01*
X167972296Y-192192366D01*
X167971706Y-192868667D01*
X168042354Y-193039648D01*
X167972296Y-193208366D01*
X167971706Y-193884667D01*
X168229970Y-194509715D01*
X168707770Y-194988350D01*
X169332366Y-195247704D01*
X170008667Y-195248294D01*
X170306961Y-195125042D01*
X170602366Y-195247704D01*
X171278667Y-195248294D01*
X171576961Y-195125042D01*
X171872366Y-195247704D01*
X172548667Y-195248294D01*
X173173715Y-194990030D01*
X173652350Y-194512230D01*
X173911704Y-193887634D01*
X173912294Y-193211333D01*
X173841646Y-193040352D01*
X173911704Y-192871634D01*
X173912294Y-192195333D01*
X173841646Y-192024352D01*
X173911704Y-191855634D01*
X173912294Y-191179333D01*
X173654030Y-190554285D01*
X173176230Y-190075650D01*
X172551634Y-189816296D01*
X171875333Y-189815706D01*
X171577039Y-189938958D01*
X171281634Y-189816296D01*
X170605333Y-189815706D01*
X170307039Y-189938958D01*
X170011634Y-189816296D01*
X169335333Y-189815706D01*
X168710285Y-190073970D01*
X168231650Y-190551770D01*
X167972296Y-191176366D01*
X167971706Y-191852667D01*
X161944000Y-191852667D01*
X161944000Y-190246000D01*
X161912486Y-190090378D01*
X161822908Y-189959277D01*
X161689383Y-189873356D01*
X161544000Y-189846000D01*
X150831478Y-189846000D01*
X151051704Y-189315634D01*
X151052294Y-188639333D01*
X150981646Y-188468352D01*
X151051704Y-188299634D01*
X151052294Y-187623333D01*
X150895558Y-187244000D01*
X176604000Y-187244000D01*
X176604000Y-187753130D01*
X176725793Y-188047164D01*
X176950836Y-188272207D01*
X177244870Y-188394000D01*
X177754000Y-188394000D01*
X177954000Y-188194000D01*
X177954000Y-187044000D01*
X178154000Y-187044000D01*
X178154000Y-188194000D01*
X178354000Y-188394000D01*
X178863130Y-188394000D01*
X179157164Y-188272207D01*
X179382207Y-188047164D01*
X179504000Y-187753130D01*
X179504000Y-187349981D01*
X181003645Y-187349981D01*
X181315081Y-188103715D01*
X181891252Y-188680892D01*
X182644441Y-188993643D01*
X183459981Y-188994355D01*
X183919061Y-188804667D01*
X187529706Y-188804667D01*
X187787970Y-189429715D01*
X188265770Y-189908350D01*
X188890366Y-190167704D01*
X189566667Y-190168294D01*
X189688388Y-190118000D01*
X191818665Y-190118000D01*
X191938366Y-190167704D01*
X192614667Y-190168294D01*
X193239715Y-189910030D01*
X193718350Y-189432230D01*
X193977704Y-188807634D01*
X193978294Y-188131333D01*
X193720030Y-187506285D01*
X193242230Y-187027650D01*
X192617634Y-186768296D01*
X191941333Y-186767706D01*
X191819612Y-186818000D01*
X189689335Y-186818000D01*
X189569634Y-186768296D01*
X188893333Y-186767706D01*
X188268285Y-187025970D01*
X187789650Y-187503770D01*
X187530296Y-188128366D01*
X187529706Y-188804667D01*
X183919061Y-188804667D01*
X184213715Y-188682919D01*
X184790892Y-188106748D01*
X185103643Y-187353559D01*
X185104355Y-186538019D01*
X184792919Y-185784285D01*
X184221632Y-185212000D01*
X209116000Y-185212000D01*
X209116000Y-185721130D01*
X209237793Y-186015164D01*
X209462836Y-186240207D01*
X209756870Y-186362000D01*
X210266000Y-186362000D01*
X210466000Y-186162000D01*
X210466000Y-185012000D01*
X210666000Y-185012000D01*
X210666000Y-186162000D01*
X210866000Y-186362000D01*
X211375130Y-186362000D01*
X211669164Y-186240207D01*
X211894207Y-186015164D01*
X212016000Y-185721130D01*
X212016000Y-185212000D01*
X211816000Y-185012000D01*
X210666000Y-185012000D01*
X210466000Y-185012000D01*
X209316000Y-185012000D01*
X209116000Y-185212000D01*
X184221632Y-185212000D01*
X184216748Y-185207108D01*
X183463559Y-184894357D01*
X182648019Y-184893645D01*
X181894285Y-185205081D01*
X181317108Y-185781252D01*
X181004357Y-186534441D01*
X181003645Y-187349981D01*
X179504000Y-187349981D01*
X179504000Y-187244000D01*
X179304000Y-187044000D01*
X178154000Y-187044000D01*
X177954000Y-187044000D01*
X176804000Y-187044000D01*
X176604000Y-187244000D01*
X150895558Y-187244000D01*
X150794030Y-186998285D01*
X150486164Y-186689881D01*
X150792350Y-186384230D01*
X150895892Y-186134870D01*
X176604000Y-186134870D01*
X176604000Y-186644000D01*
X176804000Y-186844000D01*
X177954000Y-186844000D01*
X177954000Y-185694000D01*
X178154000Y-185694000D01*
X178154000Y-186844000D01*
X179304000Y-186844000D01*
X179504000Y-186644000D01*
X179504000Y-186134870D01*
X179382207Y-185840836D01*
X179157164Y-185615793D01*
X178863130Y-185494000D01*
X178354000Y-185494000D01*
X178154000Y-185694000D01*
X177954000Y-185694000D01*
X177754000Y-185494000D01*
X177244870Y-185494000D01*
X176950836Y-185615793D01*
X176725793Y-185840836D01*
X176604000Y-186134870D01*
X150895892Y-186134870D01*
X151051704Y-185759634D01*
X151052294Y-185083333D01*
X151002000Y-184961612D01*
X151002000Y-184102870D01*
X209116000Y-184102870D01*
X209116000Y-184612000D01*
X209316000Y-184812000D01*
X210466000Y-184812000D01*
X210466000Y-183662000D01*
X210666000Y-183662000D01*
X210666000Y-184812000D01*
X211816000Y-184812000D01*
X212016000Y-184612000D01*
X212016000Y-184102870D01*
X211894207Y-183808836D01*
X211669164Y-183583793D01*
X211375130Y-183462000D01*
X210866000Y-183462000D01*
X210666000Y-183662000D01*
X210466000Y-183662000D01*
X210266000Y-183462000D01*
X209756870Y-183462000D01*
X209462836Y-183583793D01*
X209237793Y-183808836D01*
X209116000Y-184102870D01*
X151002000Y-184102870D01*
X151002000Y-183309452D01*
X152618785Y-181692667D01*
X192355706Y-181692667D01*
X192426354Y-181863648D01*
X192356296Y-182032366D01*
X192355706Y-182708667D01*
X192613970Y-183333715D01*
X193091770Y-183812350D01*
X193716366Y-184071704D01*
X194392667Y-184072294D01*
X195017715Y-183814030D01*
X195496350Y-183336230D01*
X195755704Y-182711634D01*
X195756294Y-182035333D01*
X195685646Y-181864352D01*
X195755704Y-181695634D01*
X195756294Y-181019333D01*
X195498030Y-180394285D01*
X195421860Y-180317981D01*
X208515645Y-180317981D01*
X208827081Y-181071715D01*
X209403252Y-181648892D01*
X210156441Y-181961643D01*
X210971981Y-181962355D01*
X211725715Y-181650919D01*
X212302892Y-181074748D01*
X212615643Y-180321559D01*
X212616355Y-179506019D01*
X212304919Y-178752285D01*
X211728748Y-178175108D01*
X210975559Y-177862357D01*
X210160019Y-177861645D01*
X209406285Y-178173081D01*
X208829108Y-178749252D01*
X208516357Y-179502441D01*
X208515645Y-180317981D01*
X195421860Y-180317981D01*
X195020230Y-179915650D01*
X194395634Y-179656296D01*
X193719333Y-179655706D01*
X193094285Y-179913970D01*
X192615650Y-180391770D01*
X192356296Y-181016366D01*
X192355706Y-181692667D01*
X152618785Y-181692667D01*
X153749927Y-180561525D01*
X153869715Y-180512030D01*
X154348350Y-180034230D01*
X154607704Y-179409634D01*
X154608294Y-178733333D01*
X154350030Y-178108285D01*
X153872230Y-177629650D01*
X153247634Y-177370296D01*
X152571333Y-177369706D01*
X151946285Y-177627970D01*
X151467650Y-178105770D01*
X151417143Y-178227405D01*
X148185274Y-181459274D01*
X147827599Y-181994572D01*
X147702000Y-182626000D01*
X147702000Y-184960665D01*
X147652296Y-185080366D01*
X147651706Y-185756667D01*
X147754702Y-186005936D01*
X147491333Y-186005706D01*
X146866285Y-186263970D01*
X146387650Y-186741770D01*
X146303886Y-186943497D01*
X146104285Y-187025970D01*
X145625650Y-187503770D01*
X145366296Y-188128366D01*
X145365706Y-188804667D01*
X145623970Y-189429715D01*
X146101770Y-189908350D01*
X146726366Y-190167704D01*
X146869683Y-190167829D01*
X146969526Y-190267847D01*
X147147970Y-190699715D01*
X147232211Y-190784103D01*
X140433157Y-197583157D01*
X140345400Y-197715483D01*
X140316000Y-197866000D01*
X140316000Y-200035566D01*
X140306378Y-200037514D01*
X140179157Y-200123157D01*
X137756314Y-202546000D01*
X125622000Y-202546000D01*
X125622000Y-192324000D01*
X130376000Y-192324000D01*
X130376000Y-192833130D01*
X130497793Y-193127164D01*
X130722836Y-193352207D01*
X131016870Y-193474000D01*
X131526000Y-193474000D01*
X131726000Y-193274000D01*
X131726000Y-192124000D01*
X131926000Y-192124000D01*
X131926000Y-193274000D01*
X132126000Y-193474000D01*
X132635130Y-193474000D01*
X132929164Y-193352207D01*
X133154207Y-193127164D01*
X133276000Y-192833130D01*
X133276000Y-192429981D01*
X134775645Y-192429981D01*
X135087081Y-193183715D01*
X135663252Y-193760892D01*
X136416441Y-194073643D01*
X137231981Y-194074355D01*
X137985715Y-193762919D01*
X138562892Y-193186748D01*
X138875643Y-192433559D01*
X138876355Y-191618019D01*
X138564919Y-190864285D01*
X137988748Y-190287108D01*
X137235559Y-189974357D01*
X136420019Y-189973645D01*
X135666285Y-190285081D01*
X135089108Y-190861252D01*
X134776357Y-191614441D01*
X134775645Y-192429981D01*
X133276000Y-192429981D01*
X133276000Y-192324000D01*
X133076000Y-192124000D01*
X131926000Y-192124000D01*
X131726000Y-192124000D01*
X130576000Y-192124000D01*
X130376000Y-192324000D01*
X125622000Y-192324000D01*
X125622000Y-191214870D01*
X130376000Y-191214870D01*
X130376000Y-191724000D01*
X130576000Y-191924000D01*
X131726000Y-191924000D01*
X131726000Y-190774000D01*
X131926000Y-190774000D01*
X131926000Y-191924000D01*
X133076000Y-191924000D01*
X133276000Y-191724000D01*
X133276000Y-191214870D01*
X133154207Y-190920836D01*
X132929164Y-190695793D01*
X132635130Y-190574000D01*
X132126000Y-190574000D01*
X131926000Y-190774000D01*
X131726000Y-190774000D01*
X131526000Y-190574000D01*
X131016870Y-190574000D01*
X130722836Y-190695793D01*
X130497793Y-190920836D01*
X130376000Y-191214870D01*
X125622000Y-191214870D01*
X125622000Y-178968400D01*
X132328973Y-178968400D01*
X132328973Y-180695600D01*
X132426594Y-181214409D01*
X132733209Y-181690903D01*
X133201051Y-182010566D01*
X133756400Y-182123027D01*
X135483600Y-182123027D01*
X136002409Y-182025406D01*
X136478903Y-181718791D01*
X136798566Y-181250949D01*
X136911027Y-180695600D01*
X136911027Y-178968400D01*
X136813406Y-178449591D01*
X136506791Y-177973097D01*
X136198229Y-177762265D01*
X136244504Y-177650543D01*
X136080180Y-177392000D01*
X134720000Y-177392000D01*
X134720000Y-177412000D01*
X134520000Y-177412000D01*
X134520000Y-177392000D01*
X133159820Y-177392000D01*
X132995496Y-177650543D01*
X133042535Y-177764109D01*
X132761097Y-177945209D01*
X132441434Y-178413051D01*
X132328973Y-178968400D01*
X125622000Y-178968400D01*
X125622000Y-175914000D01*
X132681978Y-175914000D01*
X132975046Y-176352607D01*
D51*
G36*
X204220000Y-200914000D02*
X204239696Y-201011264D01*
X204293223Y-201090777D01*
X205236000Y-202033554D01*
X205236000Y-209046000D01*
X198116000Y-209046000D01*
X198116000Y-203962000D01*
X198096304Y-203864736D01*
X198040318Y-203782798D01*
X197956864Y-203729097D01*
X197866000Y-203712000D01*
X197100000Y-203712000D01*
X197100000Y-196338000D01*
X204220000Y-196338000D01*
X204220000Y-200914000D01*
X204220000Y-200914000D01*
G37*
X204220000Y-200914000D02*
X204239696Y-201011264D01*
X204293223Y-201090777D01*
X205236000Y-202033554D01*
X205236000Y-209046000D01*
X198116000Y-209046000D01*
X198116000Y-203962000D01*
X198096304Y-203864736D01*
X198040318Y-203782798D01*
X197956864Y-203729097D01*
X197866000Y-203712000D01*
X197100000Y-203712000D01*
X197100000Y-196338000D01*
X204220000Y-196338000D01*
X204220000Y-200914000D01*
M02*
