G04 #@! TF.FileFunction,Soldermask,Top*
%FSLAX46Y46*%
G04 Gerber Fmt 4.6, Leading zero omitted, Abs format (unit mm)*
G04 Created by KiCad (PCBNEW 4.0.2-stable) date 06/03/2018 00:18:55*
%MOMM*%
G01*
G04 APERTURE LIST*
%ADD10C,0.100000*%
%ADD11R,0.900000X0.500000*%
%ADD12R,0.500000X0.900000*%
%ADD13C,1.998980*%
%ADD14R,1.998980X1.998980*%
%ADD15R,1.300000X1.300000*%
%ADD16C,1.300000*%
%ADD17R,0.800000X0.750000*%
%ADD18R,1.600000X1.000000*%
%ADD19R,1.000000X1.600000*%
%ADD20R,3.000000X1.000000*%
%ADD21C,1.700000*%
%ADD22R,1.700000X1.700000*%
%ADD23R,1.400000X1.150000*%
%ADD24R,0.508000X1.143000*%
%ADD25R,2.000000X3.800000*%
%ADD26R,2.000000X1.500000*%
%ADD27R,1.143000X0.508000*%
%ADD28R,1.060000X0.650000*%
%ADD29R,1.727200X1.727200*%
%ADD30O,1.727200X1.727200*%
%ADD31R,0.650000X1.060000*%
%ADD32R,1.780000X1.520000*%
%ADD33O,3.600000X2.500000*%
%ADD34R,3.600000X2.500000*%
%ADD35O,2.500000X3.600000*%
%ADD36R,2.500000X3.600000*%
%ADD37R,0.760000X1.650000*%
%ADD38R,3.200000X1.000000*%
%ADD39C,1.600000*%
%ADD40O,1.600000X1.600000*%
%ADD41C,2.400000*%
%ADD42O,2.400000X2.400000*%
%ADD43R,0.900000X1.700000*%
%ADD44R,1.000000X3.200000*%
%ADD45R,1.700000X0.900000*%
%ADD46C,2.400000*%
%ADD47R,3.048000X1.651000*%
%ADD48R,6.700520X6.700520*%
%ADD49R,1.000000X1.400000*%
%ADD50R,1.651000X3.048000*%
%ADD51R,1.400000X1.000000*%
%ADD52C,3.750000*%
%ADD53C,1.250000*%
%ADD54R,2.100000X3.600000*%
%ADD55O,2.100000X3.600000*%
%ADD56O,1.700000X1.700000*%
%ADD57R,1.050000X1.050000*%
%ADD58C,1.050000*%
%ADD59R,1.500000X4.200000*%
%ADD60R,1.470000X2.770000*%
%ADD61R,1.800000X1.800000*%
%ADD62C,1.800000*%
%ADD63R,1.800000X2.100000*%
%ADD64R,2.100000X1.800000*%
%ADD65R,2.600000X3.200000*%
%ADD66R,1.000000X3.000000*%
%ADD67R,0.750000X0.800000*%
%ADD68R,1.800000X3.600000*%
%ADD69O,1.800000X3.600000*%
%ADD70C,2.200000*%
%ADD71C,2.800000*%
%ADD72R,5.800000X5.800000*%
%ADD73C,1.600000*%
%ADD74O,1.800000X1.800000*%
%ADD75C,3.500000*%
%ADD76O,3.500000X5.000000*%
%ADD77O,8.000000X10.500000*%
%ADD78R,2.000000X2.600000*%
%ADD79O,2.000000X2.600000*%
%ADD80R,2.148840X5.499100*%
%ADD81R,1.498600X1.297940*%
%ADD82C,5.500000*%
%ADD83C,1.500000*%
%ADD84C,4.000000*%
%ADD85C,0.254000*%
G04 APERTURE END LIST*
D10*
X253944500Y-227000000D02*
G75*
G03X253944500Y-227000000I-444500J0D01*
G01*
X249444500Y-227000000D02*
G75*
G03X249444500Y-227000000I-444500J0D01*
G01*
X248385000Y-224500000D02*
G75*
G03X248385000Y-224500000I-635000J0D01*
G01*
X255385000Y-224500000D02*
G75*
G03X255385000Y-224500000I-635000J0D01*
G01*
D11*
X267462000Y-194806000D03*
X267462000Y-193306000D03*
D12*
X259600000Y-192024000D03*
X261100000Y-192024000D03*
D11*
X269240000Y-190766000D03*
X269240000Y-192266000D03*
D12*
X282396500Y-203073000D03*
X283896500Y-203073000D03*
D13*
X156464000Y-226824540D03*
D14*
X166624000Y-226824540D03*
D15*
X131826000Y-192024000D03*
D16*
X136826000Y-192024000D03*
D15*
X234696000Y-202438000D03*
D16*
X239696000Y-202438000D03*
D17*
X236486000Y-194310000D03*
X237986000Y-194310000D03*
D18*
X197866000Y-185698000D03*
X197866000Y-188698000D03*
D19*
X198350000Y-182118000D03*
X195350000Y-182118000D03*
D15*
X210566000Y-184912000D03*
D16*
X210566000Y-179912000D03*
D20*
X222250000Y-220740000D03*
X222250000Y-216140000D03*
D21*
X180340000Y-217250000D03*
D22*
X180340000Y-222250000D03*
D21*
X195580000Y-217250000D03*
D22*
X195580000Y-222250000D03*
D18*
X153416000Y-226290000D03*
X153416000Y-223290000D03*
X162814000Y-195048000D03*
X162814000Y-192048000D03*
D17*
X152896000Y-180848000D03*
X151396000Y-180848000D03*
D15*
X178054000Y-201422000D03*
D16*
X183054000Y-201422000D03*
D17*
X292747000Y-179324000D03*
X294247000Y-179324000D03*
X281253500Y-210629500D03*
X282753500Y-210629500D03*
D23*
X314368000Y-199682000D03*
X314368000Y-198082000D03*
X316568000Y-198082000D03*
X316568000Y-199682000D03*
D24*
X282956000Y-165100000D03*
X284226000Y-165100000D03*
X285496000Y-165100000D03*
X286766000Y-165100000D03*
X288036000Y-165100000D03*
X289306000Y-165100000D03*
X290576000Y-165100000D03*
X290576000Y-158750000D03*
X289306000Y-158750000D03*
X286766000Y-158750000D03*
X285496000Y-158750000D03*
X284226000Y-158750000D03*
X282956000Y-158750000D03*
X288036000Y-158750000D03*
X294132000Y-165100000D03*
X295402000Y-165100000D03*
X296672000Y-165100000D03*
X297942000Y-165100000D03*
X299212000Y-165100000D03*
X300482000Y-165100000D03*
X301752000Y-165100000D03*
X301752000Y-158750000D03*
X300482000Y-158750000D03*
X297942000Y-158750000D03*
X296672000Y-158750000D03*
X295402000Y-158750000D03*
X294132000Y-158750000D03*
X299212000Y-158750000D03*
D10*
G36*
X301558218Y-182621001D02*
X302882771Y-183945554D01*
X302438284Y-184390041D01*
X301113731Y-183065488D01*
X301558218Y-182621001D01*
X301558218Y-182621001D01*
G37*
G36*
X301270850Y-182908369D02*
X302595403Y-184232922D01*
X302150916Y-184677409D01*
X300826363Y-183352856D01*
X301270850Y-182908369D01*
X301270850Y-182908369D01*
G37*
G36*
X301001442Y-183177777D02*
X302325995Y-184502330D01*
X301881508Y-184946817D01*
X300556955Y-183622264D01*
X301001442Y-183177777D01*
X301001442Y-183177777D01*
G37*
G36*
X300714074Y-183465145D02*
X302038627Y-184789698D01*
X301594140Y-185234185D01*
X300269587Y-183909632D01*
X300714074Y-183465145D01*
X300714074Y-183465145D01*
G37*
G36*
X300426706Y-183752513D02*
X301751259Y-185077066D01*
X301306772Y-185521553D01*
X299982219Y-184197000D01*
X300426706Y-183752513D01*
X300426706Y-183752513D01*
G37*
G36*
X300139337Y-184039881D02*
X301463890Y-185364434D01*
X301019403Y-185808921D01*
X299694850Y-184484368D01*
X300139337Y-184039881D01*
X300139337Y-184039881D01*
G37*
G36*
X299869930Y-184309289D02*
X301194483Y-185633842D01*
X300749996Y-186078329D01*
X299425443Y-184753776D01*
X299869930Y-184309289D01*
X299869930Y-184309289D01*
G37*
G36*
X299582561Y-184596657D02*
X300907114Y-185921210D01*
X300462627Y-186365697D01*
X299138074Y-185041144D01*
X299582561Y-184596657D01*
X299582561Y-184596657D01*
G37*
G36*
X299295193Y-184884025D02*
X300619746Y-186208578D01*
X300175259Y-186653065D01*
X298850706Y-185328512D01*
X299295193Y-184884025D01*
X299295193Y-184884025D01*
G37*
G36*
X299007825Y-185171394D02*
X300332378Y-186495947D01*
X299887891Y-186940434D01*
X298563338Y-185615881D01*
X299007825Y-185171394D01*
X299007825Y-185171394D01*
G37*
G36*
X298738417Y-185440801D02*
X300062970Y-186765354D01*
X299618483Y-187209841D01*
X298293930Y-185885288D01*
X298738417Y-185440801D01*
X298738417Y-185440801D01*
G37*
G36*
X298451049Y-185728169D02*
X299775602Y-187052722D01*
X299331115Y-187497209D01*
X298006562Y-186172656D01*
X298451049Y-185728169D01*
X298451049Y-185728169D01*
G37*
G36*
X298163681Y-186015538D02*
X299488234Y-187340091D01*
X299043747Y-187784578D01*
X297719194Y-186460025D01*
X298163681Y-186015538D01*
X298163681Y-186015538D01*
G37*
G36*
X297876313Y-186302906D02*
X299200866Y-187627459D01*
X298756379Y-188071946D01*
X297431826Y-186747393D01*
X297876313Y-186302906D01*
X297876313Y-186302906D01*
G37*
G36*
X297606905Y-186572314D02*
X298931458Y-187896867D01*
X298486971Y-188341354D01*
X297162418Y-187016801D01*
X297606905Y-186572314D01*
X297606905Y-186572314D01*
G37*
G36*
X297319537Y-186859682D02*
X298644090Y-188184235D01*
X298199603Y-188628722D01*
X296875050Y-187304169D01*
X297319537Y-186859682D01*
X297319537Y-186859682D01*
G37*
G36*
X297032169Y-187147050D02*
X298356722Y-188471603D01*
X297912235Y-188916090D01*
X296587682Y-187591537D01*
X297032169Y-187147050D01*
X297032169Y-187147050D01*
G37*
G36*
X296744801Y-187434418D02*
X298069354Y-188758971D01*
X297624867Y-189203458D01*
X296300314Y-187878905D01*
X296744801Y-187434418D01*
X296744801Y-187434418D01*
G37*
G36*
X296475393Y-187703826D02*
X297799946Y-189028379D01*
X297355459Y-189472866D01*
X296030906Y-188148313D01*
X296475393Y-187703826D01*
X296475393Y-187703826D01*
G37*
G36*
X296188025Y-187991194D02*
X297512578Y-189315747D01*
X297068091Y-189760234D01*
X295743538Y-188435681D01*
X296188025Y-187991194D01*
X296188025Y-187991194D01*
G37*
G36*
X295900656Y-188278562D02*
X297225209Y-189603115D01*
X296780722Y-190047602D01*
X295456169Y-188723049D01*
X295900656Y-188278562D01*
X295900656Y-188278562D01*
G37*
G36*
X295613288Y-188565930D02*
X296937841Y-189890483D01*
X296493354Y-190334970D01*
X295168801Y-189010417D01*
X295613288Y-188565930D01*
X295613288Y-188565930D01*
G37*
G36*
X295343881Y-188835338D02*
X296668434Y-190159891D01*
X296223947Y-190604378D01*
X294899394Y-189279825D01*
X295343881Y-188835338D01*
X295343881Y-188835338D01*
G37*
G36*
X295056512Y-189122706D02*
X296381065Y-190447259D01*
X295936578Y-190891746D01*
X294612025Y-189567193D01*
X295056512Y-189122706D01*
X295056512Y-189122706D01*
G37*
G36*
X294769144Y-189410074D02*
X296093697Y-190734627D01*
X295649210Y-191179114D01*
X294324657Y-189854561D01*
X294769144Y-189410074D01*
X294769144Y-189410074D01*
G37*
G36*
X294481776Y-189697443D02*
X295806329Y-191021996D01*
X295361842Y-191466483D01*
X294037289Y-190141930D01*
X294481776Y-189697443D01*
X294481776Y-189697443D01*
G37*
G36*
X294212368Y-189966850D02*
X295536921Y-191291403D01*
X295092434Y-191735890D01*
X293767881Y-190411337D01*
X294212368Y-189966850D01*
X294212368Y-189966850D01*
G37*
G36*
X293925000Y-190254219D02*
X295249553Y-191578772D01*
X294805066Y-192023259D01*
X293480513Y-190698706D01*
X293925000Y-190254219D01*
X293925000Y-190254219D01*
G37*
G36*
X293637632Y-190541587D02*
X294962185Y-191866140D01*
X294517698Y-192310627D01*
X293193145Y-190986074D01*
X293637632Y-190541587D01*
X293637632Y-190541587D01*
G37*
G36*
X293350264Y-190828955D02*
X294674817Y-192153508D01*
X294230330Y-192597995D01*
X292905777Y-191273442D01*
X293350264Y-190828955D01*
X293350264Y-190828955D01*
G37*
G36*
X293080856Y-191098363D02*
X294405409Y-192422916D01*
X293960922Y-192867403D01*
X292636369Y-191542850D01*
X293080856Y-191098363D01*
X293080856Y-191098363D01*
G37*
G36*
X292793488Y-191385731D02*
X294118041Y-192710284D01*
X293673554Y-193154771D01*
X292349001Y-191830218D01*
X292793488Y-191385731D01*
X292793488Y-191385731D01*
G37*
G36*
X294118041Y-193877716D02*
X292793488Y-195202269D01*
X292349001Y-194757782D01*
X293673554Y-193433229D01*
X294118041Y-193877716D01*
X294118041Y-193877716D01*
G37*
G36*
X294405409Y-194165084D02*
X293080856Y-195489637D01*
X292636369Y-195045150D01*
X293960922Y-193720597D01*
X294405409Y-194165084D01*
X294405409Y-194165084D01*
G37*
G36*
X294674817Y-194434492D02*
X293350264Y-195759045D01*
X292905777Y-195314558D01*
X294230330Y-193990005D01*
X294674817Y-194434492D01*
X294674817Y-194434492D01*
G37*
G36*
X294962185Y-194721860D02*
X293637632Y-196046413D01*
X293193145Y-195601926D01*
X294517698Y-194277373D01*
X294962185Y-194721860D01*
X294962185Y-194721860D01*
G37*
G36*
X295249553Y-195009228D02*
X293925000Y-196333781D01*
X293480513Y-195889294D01*
X294805066Y-194564741D01*
X295249553Y-195009228D01*
X295249553Y-195009228D01*
G37*
G36*
X295536921Y-195296597D02*
X294212368Y-196621150D01*
X293767881Y-196176663D01*
X295092434Y-194852110D01*
X295536921Y-195296597D01*
X295536921Y-195296597D01*
G37*
G36*
X295806329Y-195566004D02*
X294481776Y-196890557D01*
X294037289Y-196446070D01*
X295361842Y-195121517D01*
X295806329Y-195566004D01*
X295806329Y-195566004D01*
G37*
G36*
X296093697Y-195853373D02*
X294769144Y-197177926D01*
X294324657Y-196733439D01*
X295649210Y-195408886D01*
X296093697Y-195853373D01*
X296093697Y-195853373D01*
G37*
G36*
X296381065Y-196140741D02*
X295056512Y-197465294D01*
X294612025Y-197020807D01*
X295936578Y-195696254D01*
X296381065Y-196140741D01*
X296381065Y-196140741D01*
G37*
G36*
X296668434Y-196428109D02*
X295343881Y-197752662D01*
X294899394Y-197308175D01*
X296223947Y-195983622D01*
X296668434Y-196428109D01*
X296668434Y-196428109D01*
G37*
G36*
X296937841Y-196697517D02*
X295613288Y-198022070D01*
X295168801Y-197577583D01*
X296493354Y-196253030D01*
X296937841Y-196697517D01*
X296937841Y-196697517D01*
G37*
G36*
X297225209Y-196984885D02*
X295900656Y-198309438D01*
X295456169Y-197864951D01*
X296780722Y-196540398D01*
X297225209Y-196984885D01*
X297225209Y-196984885D01*
G37*
G36*
X297512578Y-197272253D02*
X296188025Y-198596806D01*
X295743538Y-198152319D01*
X297068091Y-196827766D01*
X297512578Y-197272253D01*
X297512578Y-197272253D01*
G37*
G36*
X297799946Y-197559621D02*
X296475393Y-198884174D01*
X296030906Y-198439687D01*
X297355459Y-197115134D01*
X297799946Y-197559621D01*
X297799946Y-197559621D01*
G37*
G36*
X298069354Y-197829029D02*
X296744801Y-199153582D01*
X296300314Y-198709095D01*
X297624867Y-197384542D01*
X298069354Y-197829029D01*
X298069354Y-197829029D01*
G37*
G36*
X298356722Y-198116397D02*
X297032169Y-199440950D01*
X296587682Y-198996463D01*
X297912235Y-197671910D01*
X298356722Y-198116397D01*
X298356722Y-198116397D01*
G37*
G36*
X298644090Y-198403765D02*
X297319537Y-199728318D01*
X296875050Y-199283831D01*
X298199603Y-197959278D01*
X298644090Y-198403765D01*
X298644090Y-198403765D01*
G37*
G36*
X298931458Y-198691133D02*
X297606905Y-200015686D01*
X297162418Y-199571199D01*
X298486971Y-198246646D01*
X298931458Y-198691133D01*
X298931458Y-198691133D01*
G37*
G36*
X299200866Y-198960541D02*
X297876313Y-200285094D01*
X297431826Y-199840607D01*
X298756379Y-198516054D01*
X299200866Y-198960541D01*
X299200866Y-198960541D01*
G37*
G36*
X299488234Y-199247909D02*
X298163681Y-200572462D01*
X297719194Y-200127975D01*
X299043747Y-198803422D01*
X299488234Y-199247909D01*
X299488234Y-199247909D01*
G37*
G36*
X299775602Y-199535278D02*
X298451049Y-200859831D01*
X298006562Y-200415344D01*
X299331115Y-199090791D01*
X299775602Y-199535278D01*
X299775602Y-199535278D01*
G37*
G36*
X300062970Y-199822646D02*
X298738417Y-201147199D01*
X298293930Y-200702712D01*
X299618483Y-199378159D01*
X300062970Y-199822646D01*
X300062970Y-199822646D01*
G37*
G36*
X300332378Y-200092053D02*
X299007825Y-201416606D01*
X298563338Y-200972119D01*
X299887891Y-199647566D01*
X300332378Y-200092053D01*
X300332378Y-200092053D01*
G37*
G36*
X300619746Y-200379422D02*
X299295193Y-201703975D01*
X298850706Y-201259488D01*
X300175259Y-199934935D01*
X300619746Y-200379422D01*
X300619746Y-200379422D01*
G37*
G36*
X300907114Y-200666790D02*
X299582561Y-201991343D01*
X299138074Y-201546856D01*
X300462627Y-200222303D01*
X300907114Y-200666790D01*
X300907114Y-200666790D01*
G37*
G36*
X301194483Y-200954158D02*
X299869930Y-202278711D01*
X299425443Y-201834224D01*
X300749996Y-200509671D01*
X301194483Y-200954158D01*
X301194483Y-200954158D01*
G37*
G36*
X301463890Y-201223566D02*
X300139337Y-202548119D01*
X299694850Y-202103632D01*
X301019403Y-200779079D01*
X301463890Y-201223566D01*
X301463890Y-201223566D01*
G37*
G36*
X301751259Y-201510934D02*
X300426706Y-202835487D01*
X299982219Y-202391000D01*
X301306772Y-201066447D01*
X301751259Y-201510934D01*
X301751259Y-201510934D01*
G37*
G36*
X302038627Y-201798302D02*
X300714074Y-203122855D01*
X300269587Y-202678368D01*
X301594140Y-201353815D01*
X302038627Y-201798302D01*
X302038627Y-201798302D01*
G37*
G36*
X302325995Y-202085670D02*
X301001442Y-203410223D01*
X300556955Y-202965736D01*
X301881508Y-201641183D01*
X302325995Y-202085670D01*
X302325995Y-202085670D01*
G37*
G36*
X302595403Y-202355078D02*
X301270850Y-203679631D01*
X300826363Y-203235144D01*
X302150916Y-201910591D01*
X302595403Y-202355078D01*
X302595403Y-202355078D01*
G37*
G36*
X302882771Y-202642446D02*
X301558218Y-203966999D01*
X301113731Y-203522512D01*
X302438284Y-202197959D01*
X302882771Y-202642446D01*
X302882771Y-202642446D01*
G37*
G36*
X303605716Y-202197959D02*
X304930269Y-203522512D01*
X304485782Y-203966999D01*
X303161229Y-202642446D01*
X303605716Y-202197959D01*
X303605716Y-202197959D01*
G37*
G36*
X303893084Y-201910591D02*
X305217637Y-203235144D01*
X304773150Y-203679631D01*
X303448597Y-202355078D01*
X303893084Y-201910591D01*
X303893084Y-201910591D01*
G37*
G36*
X304162492Y-201641183D02*
X305487045Y-202965736D01*
X305042558Y-203410223D01*
X303718005Y-202085670D01*
X304162492Y-201641183D01*
X304162492Y-201641183D01*
G37*
G36*
X304449860Y-201353815D02*
X305774413Y-202678368D01*
X305329926Y-203122855D01*
X304005373Y-201798302D01*
X304449860Y-201353815D01*
X304449860Y-201353815D01*
G37*
G36*
X304737228Y-201066447D02*
X306061781Y-202391000D01*
X305617294Y-202835487D01*
X304292741Y-201510934D01*
X304737228Y-201066447D01*
X304737228Y-201066447D01*
G37*
G36*
X305024597Y-200779079D02*
X306349150Y-202103632D01*
X305904663Y-202548119D01*
X304580110Y-201223566D01*
X305024597Y-200779079D01*
X305024597Y-200779079D01*
G37*
G36*
X305294004Y-200509671D02*
X306618557Y-201834224D01*
X306174070Y-202278711D01*
X304849517Y-200954158D01*
X305294004Y-200509671D01*
X305294004Y-200509671D01*
G37*
G36*
X305581373Y-200222303D02*
X306905926Y-201546856D01*
X306461439Y-201991343D01*
X305136886Y-200666790D01*
X305581373Y-200222303D01*
X305581373Y-200222303D01*
G37*
G36*
X305868741Y-199934935D02*
X307193294Y-201259488D01*
X306748807Y-201703975D01*
X305424254Y-200379422D01*
X305868741Y-199934935D01*
X305868741Y-199934935D01*
G37*
G36*
X306156109Y-199647566D02*
X307480662Y-200972119D01*
X307036175Y-201416606D01*
X305711622Y-200092053D01*
X306156109Y-199647566D01*
X306156109Y-199647566D01*
G37*
G36*
X306425517Y-199378159D02*
X307750070Y-200702712D01*
X307305583Y-201147199D01*
X305981030Y-199822646D01*
X306425517Y-199378159D01*
X306425517Y-199378159D01*
G37*
G36*
X306712885Y-199090791D02*
X308037438Y-200415344D01*
X307592951Y-200859831D01*
X306268398Y-199535278D01*
X306712885Y-199090791D01*
X306712885Y-199090791D01*
G37*
G36*
X307000253Y-198803422D02*
X308324806Y-200127975D01*
X307880319Y-200572462D01*
X306555766Y-199247909D01*
X307000253Y-198803422D01*
X307000253Y-198803422D01*
G37*
G36*
X307287621Y-198516054D02*
X308612174Y-199840607D01*
X308167687Y-200285094D01*
X306843134Y-198960541D01*
X307287621Y-198516054D01*
X307287621Y-198516054D01*
G37*
G36*
X307557029Y-198246646D02*
X308881582Y-199571199D01*
X308437095Y-200015686D01*
X307112542Y-198691133D01*
X307557029Y-198246646D01*
X307557029Y-198246646D01*
G37*
G36*
X307844397Y-197959278D02*
X309168950Y-199283831D01*
X308724463Y-199728318D01*
X307399910Y-198403765D01*
X307844397Y-197959278D01*
X307844397Y-197959278D01*
G37*
G36*
X308131765Y-197671910D02*
X309456318Y-198996463D01*
X309011831Y-199440950D01*
X307687278Y-198116397D01*
X308131765Y-197671910D01*
X308131765Y-197671910D01*
G37*
G36*
X308419133Y-197384542D02*
X309743686Y-198709095D01*
X309299199Y-199153582D01*
X307974646Y-197829029D01*
X308419133Y-197384542D01*
X308419133Y-197384542D01*
G37*
G36*
X308688541Y-197115134D02*
X310013094Y-198439687D01*
X309568607Y-198884174D01*
X308244054Y-197559621D01*
X308688541Y-197115134D01*
X308688541Y-197115134D01*
G37*
G36*
X308975909Y-196827766D02*
X310300462Y-198152319D01*
X309855975Y-198596806D01*
X308531422Y-197272253D01*
X308975909Y-196827766D01*
X308975909Y-196827766D01*
G37*
G36*
X309263278Y-196540398D02*
X310587831Y-197864951D01*
X310143344Y-198309438D01*
X308818791Y-196984885D01*
X309263278Y-196540398D01*
X309263278Y-196540398D01*
G37*
G36*
X309550646Y-196253030D02*
X310875199Y-197577583D01*
X310430712Y-198022070D01*
X309106159Y-196697517D01*
X309550646Y-196253030D01*
X309550646Y-196253030D01*
G37*
G36*
X309820053Y-195983622D02*
X311144606Y-197308175D01*
X310700119Y-197752662D01*
X309375566Y-196428109D01*
X309820053Y-195983622D01*
X309820053Y-195983622D01*
G37*
G36*
X310107422Y-195696254D02*
X311431975Y-197020807D01*
X310987488Y-197465294D01*
X309662935Y-196140741D01*
X310107422Y-195696254D01*
X310107422Y-195696254D01*
G37*
G36*
X310394790Y-195408886D02*
X311719343Y-196733439D01*
X311274856Y-197177926D01*
X309950303Y-195853373D01*
X310394790Y-195408886D01*
X310394790Y-195408886D01*
G37*
G36*
X310682158Y-195121517D02*
X312006711Y-196446070D01*
X311562224Y-196890557D01*
X310237671Y-195566004D01*
X310682158Y-195121517D01*
X310682158Y-195121517D01*
G37*
G36*
X310951566Y-194852110D02*
X312276119Y-196176663D01*
X311831632Y-196621150D01*
X310507079Y-195296597D01*
X310951566Y-194852110D01*
X310951566Y-194852110D01*
G37*
G36*
X311238934Y-194564741D02*
X312563487Y-195889294D01*
X312119000Y-196333781D01*
X310794447Y-195009228D01*
X311238934Y-194564741D01*
X311238934Y-194564741D01*
G37*
G36*
X311526302Y-194277373D02*
X312850855Y-195601926D01*
X312406368Y-196046413D01*
X311081815Y-194721860D01*
X311526302Y-194277373D01*
X311526302Y-194277373D01*
G37*
G36*
X311813670Y-193990005D02*
X313138223Y-195314558D01*
X312693736Y-195759045D01*
X311369183Y-194434492D01*
X311813670Y-193990005D01*
X311813670Y-193990005D01*
G37*
G36*
X312083078Y-193720597D02*
X313407631Y-195045150D01*
X312963144Y-195489637D01*
X311638591Y-194165084D01*
X312083078Y-193720597D01*
X312083078Y-193720597D01*
G37*
G36*
X312370446Y-193433229D02*
X313694999Y-194757782D01*
X313250512Y-195202269D01*
X311925959Y-193877716D01*
X312370446Y-193433229D01*
X312370446Y-193433229D01*
G37*
G36*
X313694999Y-191830218D02*
X312370446Y-193154771D01*
X311925959Y-192710284D01*
X313250512Y-191385731D01*
X313694999Y-191830218D01*
X313694999Y-191830218D01*
G37*
G36*
X313407631Y-191542850D02*
X312083078Y-192867403D01*
X311638591Y-192422916D01*
X312963144Y-191098363D01*
X313407631Y-191542850D01*
X313407631Y-191542850D01*
G37*
G36*
X313138223Y-191273442D02*
X311813670Y-192597995D01*
X311369183Y-192153508D01*
X312693736Y-190828955D01*
X313138223Y-191273442D01*
X313138223Y-191273442D01*
G37*
G36*
X312850855Y-190986074D02*
X311526302Y-192310627D01*
X311081815Y-191866140D01*
X312406368Y-190541587D01*
X312850855Y-190986074D01*
X312850855Y-190986074D01*
G37*
G36*
X312563487Y-190698706D02*
X311238934Y-192023259D01*
X310794447Y-191578772D01*
X312119000Y-190254219D01*
X312563487Y-190698706D01*
X312563487Y-190698706D01*
G37*
G36*
X312276119Y-190411337D02*
X310951566Y-191735890D01*
X310507079Y-191291403D01*
X311831632Y-189966850D01*
X312276119Y-190411337D01*
X312276119Y-190411337D01*
G37*
G36*
X312006711Y-190141930D02*
X310682158Y-191466483D01*
X310237671Y-191021996D01*
X311562224Y-189697443D01*
X312006711Y-190141930D01*
X312006711Y-190141930D01*
G37*
G36*
X311719343Y-189854561D02*
X310394790Y-191179114D01*
X309950303Y-190734627D01*
X311274856Y-189410074D01*
X311719343Y-189854561D01*
X311719343Y-189854561D01*
G37*
G36*
X311431975Y-189567193D02*
X310107422Y-190891746D01*
X309662935Y-190447259D01*
X310987488Y-189122706D01*
X311431975Y-189567193D01*
X311431975Y-189567193D01*
G37*
G36*
X311144606Y-189279825D02*
X309820053Y-190604378D01*
X309375566Y-190159891D01*
X310700119Y-188835338D01*
X311144606Y-189279825D01*
X311144606Y-189279825D01*
G37*
G36*
X310875199Y-189010417D02*
X309550646Y-190334970D01*
X309106159Y-189890483D01*
X310430712Y-188565930D01*
X310875199Y-189010417D01*
X310875199Y-189010417D01*
G37*
G36*
X310587831Y-188723049D02*
X309263278Y-190047602D01*
X308818791Y-189603115D01*
X310143344Y-188278562D01*
X310587831Y-188723049D01*
X310587831Y-188723049D01*
G37*
G36*
X310300462Y-188435681D02*
X308975909Y-189760234D01*
X308531422Y-189315747D01*
X309855975Y-187991194D01*
X310300462Y-188435681D01*
X310300462Y-188435681D01*
G37*
G36*
X310013094Y-188148313D02*
X308688541Y-189472866D01*
X308244054Y-189028379D01*
X309568607Y-187703826D01*
X310013094Y-188148313D01*
X310013094Y-188148313D01*
G37*
G36*
X309743686Y-187878905D02*
X308419133Y-189203458D01*
X307974646Y-188758971D01*
X309299199Y-187434418D01*
X309743686Y-187878905D01*
X309743686Y-187878905D01*
G37*
G36*
X309456318Y-187591537D02*
X308131765Y-188916090D01*
X307687278Y-188471603D01*
X309011831Y-187147050D01*
X309456318Y-187591537D01*
X309456318Y-187591537D01*
G37*
G36*
X309168950Y-187304169D02*
X307844397Y-188628722D01*
X307399910Y-188184235D01*
X308724463Y-186859682D01*
X309168950Y-187304169D01*
X309168950Y-187304169D01*
G37*
G36*
X308881582Y-187016801D02*
X307557029Y-188341354D01*
X307112542Y-187896867D01*
X308437095Y-186572314D01*
X308881582Y-187016801D01*
X308881582Y-187016801D01*
G37*
G36*
X308612174Y-186747393D02*
X307287621Y-188071946D01*
X306843134Y-187627459D01*
X308167687Y-186302906D01*
X308612174Y-186747393D01*
X308612174Y-186747393D01*
G37*
G36*
X308324806Y-186460025D02*
X307000253Y-187784578D01*
X306555766Y-187340091D01*
X307880319Y-186015538D01*
X308324806Y-186460025D01*
X308324806Y-186460025D01*
G37*
G36*
X308037438Y-186172656D02*
X306712885Y-187497209D01*
X306268398Y-187052722D01*
X307592951Y-185728169D01*
X308037438Y-186172656D01*
X308037438Y-186172656D01*
G37*
G36*
X307750070Y-185885288D02*
X306425517Y-187209841D01*
X305981030Y-186765354D01*
X307305583Y-185440801D01*
X307750070Y-185885288D01*
X307750070Y-185885288D01*
G37*
G36*
X307480662Y-185615881D02*
X306156109Y-186940434D01*
X305711622Y-186495947D01*
X307036175Y-185171394D01*
X307480662Y-185615881D01*
X307480662Y-185615881D01*
G37*
G36*
X307193294Y-185328512D02*
X305868741Y-186653065D01*
X305424254Y-186208578D01*
X306748807Y-184884025D01*
X307193294Y-185328512D01*
X307193294Y-185328512D01*
G37*
G36*
X306905926Y-185041144D02*
X305581373Y-186365697D01*
X305136886Y-185921210D01*
X306461439Y-184596657D01*
X306905926Y-185041144D01*
X306905926Y-185041144D01*
G37*
G36*
X306618557Y-184753776D02*
X305294004Y-186078329D01*
X304849517Y-185633842D01*
X306174070Y-184309289D01*
X306618557Y-184753776D01*
X306618557Y-184753776D01*
G37*
G36*
X306349150Y-184484368D02*
X305024597Y-185808921D01*
X304580110Y-185364434D01*
X305904663Y-184039881D01*
X306349150Y-184484368D01*
X306349150Y-184484368D01*
G37*
G36*
X306061781Y-184197000D02*
X304737228Y-185521553D01*
X304292741Y-185077066D01*
X305617294Y-183752513D01*
X306061781Y-184197000D01*
X306061781Y-184197000D01*
G37*
G36*
X305774413Y-183909632D02*
X304449860Y-185234185D01*
X304005373Y-184789698D01*
X305329926Y-183465145D01*
X305774413Y-183909632D01*
X305774413Y-183909632D01*
G37*
G36*
X305487045Y-183622264D02*
X304162492Y-184946817D01*
X303718005Y-184502330D01*
X305042558Y-183177777D01*
X305487045Y-183622264D01*
X305487045Y-183622264D01*
G37*
G36*
X305217637Y-183352856D02*
X303893084Y-184677409D01*
X303448597Y-184232922D01*
X304773150Y-182908369D01*
X305217637Y-183352856D01*
X305217637Y-183352856D01*
G37*
G36*
X304930269Y-183065488D02*
X303605716Y-184390041D01*
X303161229Y-183945554D01*
X304485782Y-182621001D01*
X304930269Y-183065488D01*
X304930269Y-183065488D01*
G37*
D25*
X267004400Y-159461200D03*
D26*
X273304400Y-159461200D03*
X273304400Y-157161200D03*
X273304400Y-161761200D03*
D25*
X227672500Y-159702500D03*
D26*
X233972500Y-159702500D03*
X233972500Y-157402500D03*
X233972500Y-162002500D03*
D27*
X248793000Y-163322000D03*
X248793000Y-162052000D03*
X248793000Y-160782000D03*
X248793000Y-159512000D03*
X255143000Y-159512000D03*
X255143000Y-160782000D03*
X255143000Y-162052000D03*
X255143000Y-163322000D03*
D28*
X258996000Y-160213000D03*
X258996000Y-161163000D03*
X258996000Y-162113000D03*
X261196000Y-162113000D03*
X261196000Y-160213000D03*
X261196000Y-161163000D03*
D29*
X134620000Y-179832000D03*
D30*
X134620000Y-177292000D03*
X134620000Y-174752000D03*
X134620000Y-169672000D03*
X134620000Y-167132000D03*
X134620000Y-164592000D03*
X134620000Y-162052000D03*
D31*
X191704000Y-191686000D03*
X190754000Y-191686000D03*
X189804000Y-191686000D03*
X189804000Y-193886000D03*
X191704000Y-193886000D03*
D32*
X192532000Y-169609000D03*
X189992000Y-169609000D03*
X187452000Y-169609000D03*
X187452000Y-178879000D03*
X189992000Y-178879000D03*
X192532000Y-178879000D03*
D31*
X152334000Y-182542000D03*
X151384000Y-182542000D03*
X150434000Y-182542000D03*
X150434000Y-184742000D03*
X152334000Y-184742000D03*
D24*
X308864000Y-169926000D03*
X307594000Y-169926000D03*
X306324000Y-169926000D03*
X305054000Y-169926000D03*
X303784000Y-169926000D03*
X302514000Y-169926000D03*
X301244000Y-169926000D03*
X301244000Y-176276000D03*
X302514000Y-176276000D03*
X305054000Y-176276000D03*
X306324000Y-176276000D03*
X307594000Y-176276000D03*
X308864000Y-176276000D03*
X303784000Y-176276000D03*
X233172000Y-179578000D03*
X234442000Y-179578000D03*
X235712000Y-179578000D03*
X236982000Y-179578000D03*
X238252000Y-179578000D03*
X239522000Y-179578000D03*
X240792000Y-179578000D03*
X240792000Y-173228000D03*
X239522000Y-173228000D03*
X236982000Y-173228000D03*
X235712000Y-173228000D03*
X234442000Y-173228000D03*
X233172000Y-173228000D03*
X238252000Y-173228000D03*
D27*
X290957000Y-183134000D03*
X290957000Y-181864000D03*
X290957000Y-180594000D03*
X290957000Y-179324000D03*
X290957000Y-178054000D03*
X290957000Y-176784000D03*
X290957000Y-175514000D03*
X284607000Y-175514000D03*
X284607000Y-176784000D03*
X284607000Y-179324000D03*
X284607000Y-180594000D03*
X284607000Y-181864000D03*
X284607000Y-183134000D03*
X284607000Y-178054000D03*
D33*
X208026000Y-209804000D03*
X208026000Y-205994000D03*
X218186000Y-209804000D03*
X218186000Y-205994000D03*
X208026000Y-202184000D03*
X208026000Y-198374000D03*
D34*
X208026000Y-194564000D03*
D33*
X218186000Y-194564000D03*
X218186000Y-198374000D03*
X218186000Y-202184000D03*
D35*
X146558000Y-203962000D03*
X151638000Y-203962000D03*
X146558000Y-216662000D03*
X151638000Y-216662000D03*
X156718000Y-203962000D03*
X161798000Y-203962000D03*
D36*
X166878000Y-203962000D03*
D35*
X166878000Y-216662000D03*
X161798000Y-216662000D03*
X156718000Y-216662000D03*
D37*
X303784000Y-219393000D03*
X303784000Y-210883000D03*
X302514000Y-219393000D03*
X302514000Y-210883000D03*
X301244000Y-219393000D03*
X301244000Y-210883000D03*
X299974000Y-219393000D03*
X299974000Y-210883000D03*
X298704000Y-219393000D03*
X298704000Y-210883000D03*
X297434000Y-219393000D03*
X297434000Y-210883000D03*
X296164000Y-219393000D03*
X296164000Y-210883000D03*
X294894000Y-219393000D03*
X294894000Y-210883000D03*
D12*
X319012000Y-186182000D03*
X317512000Y-186182000D03*
X319012000Y-184658000D03*
X317512000Y-184658000D03*
X319012000Y-183134000D03*
X317512000Y-183134000D03*
X319012000Y-181610000D03*
X317512000Y-181610000D03*
D11*
X307594000Y-219698000D03*
X307594000Y-218198000D03*
X309372000Y-219698000D03*
X309372000Y-218198000D03*
D12*
X307098000Y-216154000D03*
X308598000Y-216154000D03*
X307098000Y-214630000D03*
X308598000Y-214630000D03*
X295898000Y-208534000D03*
X294398000Y-208534000D03*
X297065000Y-208534000D03*
X298565000Y-208534000D03*
X301613000Y-208534000D03*
X300113000Y-208534000D03*
X302780000Y-208534000D03*
X304280000Y-208534000D03*
D11*
X287528000Y-218198000D03*
X287528000Y-219698000D03*
X289560000Y-218198000D03*
X289560000Y-219698000D03*
D12*
X314718000Y-196342000D03*
X316218000Y-196342000D03*
X307098000Y-207264000D03*
X308598000Y-207264000D03*
X307201000Y-208915000D03*
X305701000Y-208915000D03*
X311392000Y-203962000D03*
X309892000Y-203962000D03*
D11*
X310134000Y-206998000D03*
X310134000Y-205498000D03*
D12*
X295390000Y-156718000D03*
X293890000Y-156718000D03*
X296430000Y-167132000D03*
X297930000Y-167132000D03*
X310376000Y-182118000D03*
X308876000Y-182118000D03*
X284468000Y-220472000D03*
X282968000Y-220472000D03*
X277888000Y-194564000D03*
X279388000Y-194564000D03*
X252107000Y-157480000D03*
X253607000Y-157480000D03*
X255155000Y-157480000D03*
X256655000Y-157480000D03*
D11*
X193294000Y-194830000D03*
X193294000Y-196330000D03*
D38*
X201930000Y-187654000D03*
X201930000Y-193854000D03*
D12*
X195314000Y-185674000D03*
X193814000Y-185674000D03*
D11*
X187960000Y-192036000D03*
X187960000Y-193536000D03*
X194818000Y-167652000D03*
X194818000Y-169152000D03*
X303022000Y-178955000D03*
X303022000Y-180455000D03*
D12*
X286627000Y-185801000D03*
X285127000Y-185801000D03*
D11*
X282829000Y-184924000D03*
X282829000Y-186424000D03*
D39*
X217932000Y-219202000D03*
D40*
X207772000Y-219202000D03*
D41*
X207010000Y-225552000D03*
D42*
X222250000Y-225552000D03*
D10*
G36*
X174009538Y-214034544D02*
X172807456Y-212832462D01*
X173443852Y-212196066D01*
X174645934Y-213398148D01*
X174009538Y-214034544D01*
X174009538Y-214034544D01*
G37*
G36*
X176060148Y-211983934D02*
X174858066Y-210781852D01*
X175494462Y-210145456D01*
X176696544Y-211347538D01*
X176060148Y-211983934D01*
X176060148Y-211983934D01*
G37*
G36*
X174664544Y-225786462D02*
X173462462Y-226988544D01*
X172826066Y-226352148D01*
X174028148Y-225150066D01*
X174664544Y-225786462D01*
X174664544Y-225786462D01*
G37*
G36*
X172613934Y-223735852D02*
X171411852Y-224937934D01*
X170775456Y-224301538D01*
X171977538Y-223099456D01*
X172613934Y-223735852D01*
X172613934Y-223735852D01*
G37*
G36*
X204636544Y-214610462D02*
X203434462Y-215812544D01*
X202798066Y-215176148D01*
X204000148Y-213974066D01*
X204636544Y-214610462D01*
X204636544Y-214610462D01*
G37*
G36*
X202585934Y-212559852D02*
X201383852Y-213761934D01*
X200747456Y-213125538D01*
X201949538Y-211923456D01*
X202585934Y-212559852D01*
X202585934Y-212559852D01*
G37*
G36*
X201949538Y-227496544D02*
X200747456Y-226294462D01*
X201383852Y-225658066D01*
X202585934Y-226860148D01*
X201949538Y-227496544D01*
X201949538Y-227496544D01*
G37*
G36*
X204000148Y-225445934D02*
X202798066Y-224243852D01*
X203434462Y-223607456D01*
X204636544Y-224809538D01*
X204000148Y-225445934D01*
X204000148Y-225445934D01*
G37*
D43*
X144600000Y-222885000D03*
X147500000Y-222885000D03*
D39*
X157480000Y-223266000D03*
D40*
X167640000Y-223266000D03*
D44*
X184860000Y-211074000D03*
X191060000Y-211074000D03*
D12*
X154190000Y-185420000D03*
X155690000Y-185420000D03*
D38*
X166116000Y-198426000D03*
X166116000Y-192226000D03*
D12*
X147840000Y-179070000D03*
X149340000Y-179070000D03*
D11*
X148590000Y-182892000D03*
X148590000Y-184392000D03*
X161798000Y-167652000D03*
X161798000Y-169152000D03*
X247396000Y-174994000D03*
X247396000Y-173494000D03*
X227076000Y-173216000D03*
X227076000Y-171716000D03*
X285242000Y-169684000D03*
X285242000Y-171184000D03*
X287020000Y-171184000D03*
X287020000Y-169684000D03*
D12*
X287516000Y-172847000D03*
X286016000Y-172847000D03*
X288937000Y-172847000D03*
X290437000Y-172847000D03*
X281698000Y-178054000D03*
X283198000Y-178054000D03*
D11*
X277495000Y-187337000D03*
X277495000Y-188837000D03*
D45*
X280797000Y-173408000D03*
X280797000Y-170508000D03*
D11*
X282702000Y-176518000D03*
X282702000Y-175018000D03*
D12*
X271538000Y-193040000D03*
X273038000Y-193040000D03*
D11*
X302514000Y-168136000D03*
X302514000Y-166636000D03*
X305054000Y-179566000D03*
X305054000Y-178066000D03*
X241808000Y-165874000D03*
X241808000Y-167374000D03*
X239776000Y-169660000D03*
X239776000Y-168160000D03*
D12*
X244209000Y-171069000D03*
X242709000Y-171069000D03*
D41*
X246761000Y-191770000D03*
D46*
X257537307Y-180993693D02*
X257537307Y-180993693D01*
D12*
X304304000Y-166116000D03*
X305804000Y-166116000D03*
X305804000Y-167894000D03*
X304304000Y-167894000D03*
D11*
X296926000Y-177558000D03*
X296926000Y-179058000D03*
D12*
X234176000Y-171069000D03*
X232676000Y-171069000D03*
D11*
X246507000Y-171057000D03*
X246507000Y-169557000D03*
X243840000Y-174994000D03*
X243840000Y-173494000D03*
X245618000Y-174994000D03*
X245618000Y-173494000D03*
D12*
X228866000Y-175006000D03*
X230366000Y-175006000D03*
D11*
X228854000Y-173216000D03*
X228854000Y-171716000D03*
X243840000Y-176796000D03*
X243840000Y-178296000D03*
X230124000Y-176796000D03*
X230124000Y-178296000D03*
D12*
X236232000Y-181610000D03*
X237732000Y-181610000D03*
X234962000Y-183896000D03*
X236462000Y-183896000D03*
X239256000Y-183896000D03*
X237756000Y-183896000D03*
D39*
X232791000Y-194310000D03*
D40*
X232791000Y-184150000D03*
D39*
X241554000Y-194183000D03*
D40*
X241554000Y-184023000D03*
D12*
X255282000Y-192024000D03*
X256782000Y-192024000D03*
X293255000Y-171577000D03*
X294755000Y-171577000D03*
X292493000Y-173228000D03*
X293993000Y-173228000D03*
D11*
X292862000Y-176137000D03*
X292862000Y-174637000D03*
D12*
X294398000Y-175895000D03*
X295898000Y-175895000D03*
X294374000Y-177673000D03*
X292874000Y-177673000D03*
D11*
X292862000Y-182384000D03*
X292862000Y-183884000D03*
D12*
X292874000Y-180975000D03*
X294374000Y-180975000D03*
D11*
X283273500Y-197854000D03*
X283273500Y-196354000D03*
D12*
X285762000Y-192532000D03*
X287262000Y-192532000D03*
X275221000Y-194056000D03*
X276721000Y-194056000D03*
D11*
X281241500Y-211911500D03*
X281241500Y-213411500D03*
D47*
X193548000Y-198358760D03*
D48*
X200197720Y-200660000D03*
D47*
X193548000Y-202961240D03*
D49*
X314010000Y-206840000D03*
X315910000Y-206840000D03*
X314960000Y-204640000D03*
D50*
X155971240Y-188722000D03*
D48*
X153670000Y-195371720D03*
D50*
X151368760Y-188722000D03*
D49*
X290637000Y-168572000D03*
X288737000Y-168572000D03*
X289687000Y-170772000D03*
X279842000Y-166286000D03*
X277942000Y-166286000D03*
X278892000Y-168486000D03*
D47*
X278003000Y-180355240D03*
D48*
X271353280Y-178054000D03*
D47*
X278003000Y-175752760D03*
D49*
X298384000Y-172763000D03*
X296484000Y-172763000D03*
X297434000Y-174963000D03*
D51*
X265514000Y-195260000D03*
X265514000Y-193360000D03*
X263314000Y-194310000D03*
X267292000Y-191450000D03*
X267292000Y-189550000D03*
X265092000Y-190500000D03*
D49*
X261300000Y-193972000D03*
X259400000Y-193972000D03*
X260350000Y-196172000D03*
X256982000Y-193972000D03*
X255082000Y-193972000D03*
X256032000Y-196172000D03*
D52*
X308356000Y-231902000D03*
D53*
X299466000Y-223012000D03*
D52*
X296924000Y-231902000D03*
D53*
X302006000Y-223012000D03*
X304546000Y-223012000D03*
X307086000Y-223012000D03*
X298196000Y-225552000D03*
X300736000Y-225552000D03*
X303276000Y-225552000D03*
X305816000Y-225552000D03*
D54*
X131000000Y-226000000D03*
D55*
X136080000Y-226000000D03*
D35*
X238160000Y-226080000D03*
X233080000Y-226080000D03*
D36*
X228000000Y-226080000D03*
X228000000Y-221000000D03*
D35*
X233080000Y-221000000D03*
X238160000Y-221000000D03*
D22*
X281432000Y-222758000D03*
D56*
X283972000Y-222758000D03*
X286512000Y-222758000D03*
X289052000Y-222758000D03*
X291592000Y-222758000D03*
D22*
X290322000Y-197866000D03*
D56*
X290322000Y-200406000D03*
X290322000Y-202946000D03*
X290322000Y-205486000D03*
X290322000Y-208026000D03*
X290322000Y-210566000D03*
D57*
X314198000Y-181864000D03*
D58*
X314198000Y-183134000D03*
X314198000Y-184404000D03*
X314198000Y-185674000D03*
X314198000Y-186944000D03*
X315468000Y-183134000D03*
X315468000Y-184404000D03*
X315468000Y-185674000D03*
X315468000Y-186944000D03*
X315468000Y-181864000D03*
D59*
X245146000Y-197104000D03*
X249646000Y-197104000D03*
D60*
X136652000Y-204990000D03*
X136652000Y-201410000D03*
X129540000Y-204990000D03*
X129540000Y-201410000D03*
D28*
X300439000Y-206690000D03*
X300439000Y-205740000D03*
X300439000Y-204790000D03*
X298239000Y-204790000D03*
X298239000Y-206690000D03*
X298239000Y-205740000D03*
D61*
X289000000Y-227000000D03*
D62*
X291540000Y-227000000D03*
D61*
X283000000Y-227000000D03*
D62*
X285540000Y-227000000D03*
D51*
X298534000Y-170876000D03*
X298534000Y-168976000D03*
X296334000Y-169926000D03*
D61*
X145000000Y-227000000D03*
D62*
X147540000Y-227000000D03*
D49*
X312003400Y-175115400D03*
X313903400Y-175115400D03*
X312953400Y-172915400D03*
D51*
X305478000Y-157038000D03*
X305478000Y-158938000D03*
X307678000Y-157988000D03*
D63*
X197866000Y-190840000D03*
X197866000Y-195240000D03*
X159766000Y-193380000D03*
X159766000Y-197780000D03*
D51*
X246464000Y-167828000D03*
X246464000Y-165928000D03*
X244264000Y-166878000D03*
X310091000Y-180274000D03*
X310091000Y-178374000D03*
X307891000Y-179324000D03*
X305478000Y-161356000D03*
X305478000Y-163256000D03*
X307678000Y-162306000D03*
D49*
X291658000Y-187840800D03*
X293558000Y-187840800D03*
X292608000Y-185640800D03*
D64*
X274787000Y-191135000D03*
X279187000Y-191135000D03*
D49*
X275778000Y-186098000D03*
X273878000Y-186098000D03*
X274828000Y-188298000D03*
D63*
X253111000Y-174330000D03*
X253111000Y-178730000D03*
D65*
X239600000Y-213106000D03*
X232400000Y-213106000D03*
D51*
X254424000Y-216982000D03*
X254424000Y-218882000D03*
X256624000Y-217932000D03*
X249852000Y-219014000D03*
X249852000Y-220914000D03*
X252052000Y-219964000D03*
D66*
X309993000Y-215900000D03*
X314593000Y-215900000D03*
D17*
X310400000Y-208534000D03*
X311900000Y-208534000D03*
D67*
X312166000Y-199632000D03*
X312166000Y-198132000D03*
X319024000Y-198132000D03*
X319024000Y-199632000D03*
D17*
X309384000Y-183896000D03*
X310884000Y-183896000D03*
D67*
X310642000Y-200164000D03*
X310642000Y-201664000D03*
D17*
X309384000Y-185420000D03*
X310884000Y-185420000D03*
X283222000Y-156718000D03*
X284722000Y-156718000D03*
D67*
X290068000Y-193306000D03*
X290068000Y-194806000D03*
D17*
X315988000Y-193294000D03*
X317488000Y-193294000D03*
X297930000Y-183388000D03*
X296430000Y-183388000D03*
D67*
X295783000Y-201918000D03*
X295783000Y-200418000D03*
X306832000Y-203974000D03*
X306832000Y-205474000D03*
X308356000Y-203974000D03*
X308356000Y-205474000D03*
D17*
X298692000Y-181864000D03*
X297192000Y-181864000D03*
X299224000Y-167132000D03*
X300724000Y-167132000D03*
X132346000Y-201422000D03*
X133846000Y-201422000D03*
X132346000Y-204978000D03*
X133846000Y-204978000D03*
D67*
X275844000Y-160286000D03*
X275844000Y-161786000D03*
X275844000Y-156984000D03*
X275844000Y-158484000D03*
D17*
X297422000Y-184912000D03*
X295922000Y-184912000D03*
D67*
X236093000Y-160159000D03*
X236093000Y-161659000D03*
X236093000Y-156920500D03*
X236093000Y-158420500D03*
X256794000Y-163588000D03*
X256794000Y-165088000D03*
D17*
X261608000Y-158369000D03*
X260108000Y-158369000D03*
D67*
X257175000Y-161024000D03*
X257175000Y-159524000D03*
X263652000Y-161048000D03*
X263652000Y-162548000D03*
X145288000Y-165850000D03*
X145288000Y-164350000D03*
D17*
X189496000Y-189738000D03*
X190996000Y-189738000D03*
D19*
X198350000Y-179578000D03*
X195350000Y-179578000D03*
D18*
X169672000Y-198350000D03*
X169672000Y-195350000D03*
X172212000Y-198350000D03*
X172212000Y-195350000D03*
D67*
X307340000Y-167374000D03*
X307340000Y-165874000D03*
D17*
X235597000Y-170815000D03*
X237097000Y-170815000D03*
X240018000Y-166624000D03*
X238518000Y-166624000D03*
X241288000Y-171069000D03*
X239788000Y-171069000D03*
D10*
G36*
X245277472Y-187399899D02*
X244146101Y-186268528D01*
X244853208Y-185561421D01*
X245984579Y-186692792D01*
X245277472Y-187399899D01*
X245277472Y-187399899D01*
G37*
G36*
X247398792Y-185278579D02*
X246267421Y-184147208D01*
X246974528Y-183440101D01*
X248105899Y-184571472D01*
X247398792Y-185278579D01*
X247398792Y-185278579D01*
G37*
D17*
X272847500Y-200533000D03*
X271347500Y-200533000D03*
X282396500Y-200533000D03*
X283896500Y-200533000D03*
D32*
X159512000Y-169609000D03*
X156972000Y-169609000D03*
X154432000Y-169609000D03*
X154432000Y-178879000D03*
X156972000Y-178879000D03*
X159512000Y-178879000D03*
D15*
X178054000Y-186944000D03*
D16*
X183054000Y-186944000D03*
D65*
X136950000Y-210566000D03*
X129750000Y-210566000D03*
D68*
X130810000Y-219456000D03*
D69*
X135890000Y-219456000D03*
D70*
X247750000Y-224500000D03*
X254750000Y-224500000D03*
D21*
X249000000Y-227000000D03*
X253500000Y-227000000D03*
D10*
G36*
X276023101Y-209336472D02*
X277154472Y-208205101D01*
X277861579Y-208912208D01*
X276730208Y-210043579D01*
X276023101Y-209336472D01*
X276023101Y-209336472D01*
G37*
G36*
X278144421Y-211457792D02*
X279275792Y-210326421D01*
X279982899Y-211033528D01*
X278851528Y-212164899D01*
X278144421Y-211457792D01*
X278144421Y-211457792D01*
G37*
D59*
X273340000Y-215138000D03*
X277840000Y-215138000D03*
D45*
X274447000Y-212016000D03*
X274447000Y-209116000D03*
X274447000Y-207571000D03*
X274447000Y-204671000D03*
D10*
G36*
X272835544Y-207117462D02*
X271633462Y-208319544D01*
X270997066Y-207683148D01*
X272199148Y-206481066D01*
X272835544Y-207117462D01*
X272835544Y-207117462D01*
G37*
G36*
X270784934Y-205066852D02*
X269582852Y-206268934D01*
X268946456Y-205632538D01*
X270148538Y-204430456D01*
X270784934Y-205066852D01*
X270784934Y-205066852D01*
G37*
D43*
X276616500Y-206565500D03*
X279516500Y-206565500D03*
X281125000Y-206565500D03*
X284025000Y-206565500D03*
D10*
G36*
X271633462Y-209129456D02*
X272835544Y-210331538D01*
X272199148Y-210967934D01*
X270997066Y-209765852D01*
X271633462Y-209129456D01*
X271633462Y-209129456D01*
G37*
G36*
X269582852Y-211180066D02*
X270784934Y-212382148D01*
X270148538Y-213018544D01*
X268946456Y-211816462D01*
X269582852Y-211180066D01*
X269582852Y-211180066D01*
G37*
D62*
X260286500Y-212153500D03*
X255206500Y-212153500D03*
D71*
X250126500Y-212153500D03*
D72*
X265366500Y-212153500D03*
D62*
X260286500Y-205359000D03*
X255206500Y-205359000D03*
D71*
X250126500Y-205359000D03*
D72*
X265366500Y-205359000D03*
D27*
X274447000Y-203073000D03*
X274447000Y-201803000D03*
X274447000Y-200533000D03*
X274447000Y-199263000D03*
X280797000Y-199263000D03*
X280797000Y-200533000D03*
X280797000Y-201803000D03*
X280797000Y-203073000D03*
D67*
X241554000Y-161024000D03*
X241554000Y-159524000D03*
D49*
X294447000Y-167302000D03*
X292547000Y-167302000D03*
X293497000Y-169502000D03*
X278894500Y-157119500D03*
X280794500Y-157119500D03*
X279844500Y-154919500D03*
D51*
X298874000Y-178374000D03*
X298874000Y-180274000D03*
X301074000Y-179324000D03*
X243502000Y-159324000D03*
X243502000Y-161224000D03*
X245702000Y-160274000D03*
D39*
X227330000Y-215900000D03*
D73*
X225565735Y-205894353D02*
X225565735Y-205894353D01*
D11*
X280289000Y-162675000D03*
X280289000Y-161175000D03*
D12*
X286143000Y-156845000D03*
X287643000Y-156845000D03*
X244360000Y-157480000D03*
X245860000Y-157480000D03*
X242939000Y-157480000D03*
X241439000Y-157480000D03*
X314948000Y-168148000D03*
X313448000Y-168148000D03*
D61*
X227457000Y-200406000D03*
D74*
X227457000Y-195326000D03*
D75*
X315000000Y-158000000D03*
X121000000Y-158000000D03*
D76*
X121000000Y-223500000D03*
D75*
X218000000Y-161000000D03*
D62*
X243586000Y-197104000D03*
X251206000Y-197104000D03*
D17*
X225794000Y-191262000D03*
X224294000Y-191262000D03*
X121654000Y-187452000D03*
X120154000Y-187452000D03*
D77*
X315000000Y-223500000D03*
D22*
X317500000Y-173228000D03*
D56*
X317500000Y-170688000D03*
X317500000Y-168148000D03*
X317500000Y-165608000D03*
D78*
X121920000Y-192024000D03*
D79*
X119380000Y-192024000D03*
D80*
X148691600Y-162814000D03*
X152552400Y-162814000D03*
D49*
X119822000Y-183304000D03*
X117922000Y-183304000D03*
X118872000Y-185504000D03*
D12*
X227342000Y-191262000D03*
X228842000Y-191262000D03*
X150610000Y-169672000D03*
X149110000Y-169672000D03*
D11*
X117856000Y-181598000D03*
X117856000Y-180098000D03*
X119888000Y-181598000D03*
X119888000Y-180098000D03*
X317500000Y-177534000D03*
X317500000Y-176034000D03*
D12*
X313448000Y-170180000D03*
X314948000Y-170180000D03*
D39*
X308229000Y-212598000D03*
D40*
X318389000Y-212598000D03*
D81*
X120142000Y-168729660D03*
X117602000Y-168729660D03*
X117602000Y-177728000D03*
X120142000Y-177728000D03*
D82*
X268000000Y-220620000D03*
D83*
X270540000Y-220620000D03*
D84*
X273080000Y-225700000D03*
X262920000Y-225700000D03*
D62*
X167132000Y-169418000D03*
X167132000Y-177038000D03*
D85*
G36*
X278511000Y-203962000D02*
X278521006Y-204011410D01*
X278548197Y-204051803D01*
X279310197Y-204813803D01*
X279352211Y-204841666D01*
X279400000Y-204851000D01*
X282141394Y-204851000D01*
X282321000Y-205030606D01*
X282321000Y-208227394D01*
X281633394Y-208915000D01*
X279146000Y-208915000D01*
X279096590Y-208925006D01*
X279056197Y-208952197D01*
X276516197Y-211492197D01*
X276488334Y-211534211D01*
X276479000Y-211582000D01*
X276479000Y-212598000D01*
X276489006Y-212647410D01*
X276516197Y-212687803D01*
X276733000Y-212904606D01*
X276733000Y-218133394D01*
X275791394Y-219075000D01*
X270764000Y-219075000D01*
X270693553Y-219096330D01*
X269931553Y-219604330D01*
X269895992Y-219640063D01*
X269875000Y-219710000D01*
X269875000Y-221917510D01*
X269464020Y-222123000D01*
X265990606Y-222123000D01*
X265303000Y-221435394D01*
X265303000Y-214630000D01*
X265292994Y-214580590D01*
X265265803Y-214540197D01*
X263525000Y-212799394D01*
X263525000Y-203073000D01*
X272288000Y-203073000D01*
X272337410Y-203062994D01*
X272377803Y-203035803D01*
X273102606Y-202311000D01*
X278511000Y-202311000D01*
X278511000Y-203962000D01*
X278511000Y-203962000D01*
G37*
X278511000Y-203962000D02*
X278521006Y-204011410D01*
X278548197Y-204051803D01*
X279310197Y-204813803D01*
X279352211Y-204841666D01*
X279400000Y-204851000D01*
X282141394Y-204851000D01*
X282321000Y-205030606D01*
X282321000Y-208227394D01*
X281633394Y-208915000D01*
X279146000Y-208915000D01*
X279096590Y-208925006D01*
X279056197Y-208952197D01*
X276516197Y-211492197D01*
X276488334Y-211534211D01*
X276479000Y-211582000D01*
X276479000Y-212598000D01*
X276489006Y-212647410D01*
X276516197Y-212687803D01*
X276733000Y-212904606D01*
X276733000Y-218133394D01*
X275791394Y-219075000D01*
X270764000Y-219075000D01*
X270693553Y-219096330D01*
X269931553Y-219604330D01*
X269895992Y-219640063D01*
X269875000Y-219710000D01*
X269875000Y-221917510D01*
X269464020Y-222123000D01*
X265990606Y-222123000D01*
X265303000Y-221435394D01*
X265303000Y-214630000D01*
X265292994Y-214580590D01*
X265265803Y-214540197D01*
X263525000Y-212799394D01*
X263525000Y-203073000D01*
X272288000Y-203073000D01*
X272337410Y-203062994D01*
X272377803Y-203035803D01*
X273102606Y-202311000D01*
X278511000Y-202311000D01*
X278511000Y-203962000D01*
M02*
